<mxfile host="app.diagrams.net" agent="Mozilla/5.0 (Windows NT 10.0; Win64; x64) AppleWebKit/537.36 (KHTML, like Gecko) Chrome/133.0.0.0 Safari/537.36" version="26.0.16">
  <diagram name="第 1 页" id="bacPLwrwPYclDKcDeAhA">
    <mxGraphModel dx="2511" dy="407" grid="1" gridSize="10" guides="1" tooltips="1" connect="1" arrows="1" fold="1" page="1" pageScale="1" pageWidth="827" pageHeight="1169" math="0" shadow="0">
      <root>
        <mxCell id="0" />
        <mxCell id="1" parent="0" />
        <mxCell id="vFPAhSTZljZsFCCQi-PZ-1" value="" style="rounded=0;whiteSpace=wrap;html=1;fillColor=#fff2cc;strokeColor=#d6b656;" parent="1" vertex="1">
          <mxGeometry x="130" y="150" width="305" height="40" as="geometry" />
        </mxCell>
        <mxCell id="vFPAhSTZljZsFCCQi-PZ-2" value="&lt;font style=&quot;font-size: 30px;&quot;&gt;&lt;b style=&quot;&quot;&gt;&lt;i style=&quot;&quot;&gt;1.畫面請縮放60%，可等比例符合真實環境&lt;/i&gt;&lt;/b&gt;&lt;/font&gt;" style="text;html=1;align=center;verticalAlign=middle;whiteSpace=wrap;rounded=0;" parent="1" vertex="1">
          <mxGeometry x="-1000" y="100" width="630" height="70" as="geometry" />
        </mxCell>
        <mxCell id="vFPAhSTZljZsFCCQi-PZ-6" value="V" style="text;html=1;align=center;verticalAlign=middle;whiteSpace=wrap;rounded=0;strokeColor=default;" parent="1" vertex="1">
          <mxGeometry x="130" y="150" width="40" height="40" as="geometry" />
        </mxCell>
        <mxCell id="vFPAhSTZljZsFCCQi-PZ-12" value="" style="rounded=0;whiteSpace=wrap;html=1;fillColor=#fff2cc;strokeColor=#d6b656;" parent="1" vertex="1">
          <mxGeometry x="-1010" y="250" width="600" height="300" as="geometry" />
        </mxCell>
        <mxCell id="vFPAhSTZljZsFCCQi-PZ-14" value="關閉" style="text;html=1;align=center;verticalAlign=middle;whiteSpace=wrap;rounded=0;strokeColor=default;aspect=fixed;" parent="1" vertex="1">
          <mxGeometry x="395" y="150" width="40" height="40" as="geometry" />
        </mxCell>
        <mxCell id="vFPAhSTZljZsFCCQi-PZ-15" value="隱藏" style="text;html=1;align=center;verticalAlign=middle;whiteSpace=wrap;rounded=0;strokeColor=default;aspect=fixed;" parent="1" vertex="1">
          <mxGeometry x="355" y="150" width="40" height="40" as="geometry" />
        </mxCell>
        <mxCell id="He7p6NDhDGaTkKvORS2x-1" value="" style="rounded=0;whiteSpace=wrap;html=1;fillColor=#fff2cc;strokeColor=#d6b656;" parent="1" vertex="1">
          <mxGeometry x="-1020" y="730" width="600" height="300" as="geometry" />
        </mxCell>
        <mxCell id="He7p6NDhDGaTkKvORS2x-2" value="" style="shape=image;verticalLabelPosition=bottom;labelBackgroundColor=default;verticalAlign=top;aspect=fixed;imageAspect=0;image=data:image/png,iVBORw0KGgoAAAANSUhEUgAAAgAAAAIACAYAAAD0eNT6AAAABHNCSVQICAgIfAhkiAAAAAlwSFlzAAAOxAAADsQBlSsOGwAAABl0RVh0U29mdHdhcmUAd3d3Lmlua3NjYXBlLm9yZ5vuPBoAACAASURBVHic7d132B1lnf/x90NIg4TQQUroEDougqjgUgVEQUVR11VwLay6InZ3V39igbWBImDFdcW1gFhWRLFQFBQFdxUECSAtQSE0gUAqJL8/7icmkOd5csrM+d4z9/t1Xd+LiOScz5mZc+Y7M/fcA5IkSZIkSZIkSZIkSZIkSZIkSZIkSZIkSZIkSZIkSZIkSZIkSZIkSZIkSZIkSZIkSZIkSZIkSZIkSZIkSZIktcRQdIAGmgZsCWwBbAKsB6wPrAFMBiaFJcvLI8Bc4CZgJvCb4X8ntcl0YC9ge9JvwhRgQmiifDwMPA48ANwH3A/cCdwOzAIWhSUTYAMwliFgBrAPsDuw23CtFxmqwRaTmoBzgW+SfhCkJtodOBY4EtgmOEtTLQFuA64drv8DfoW/Cwq0DfAvwPdJG+JSq5ZaAHyWdCZFaorDgMuJ//60uW4AvgC8CFirs9Ui9W534BTgRuI3/tJqPnASXjZR3rYFLiL++1JaLQIuBo4nXWaVKrEh8E5Stxm9kVvpFOCOY64xKcargUeJ/46UXouBC4EXAuPHXGPSKPYhXYNeSPwGbT2x5gLPHX3VSQO1GnAW8d8La+W6C/ggsNGoa08aNgQcBVxB/IZrjV2LgJeNvBqlgVmddKAQ/X2wxq75pPEC2428GlW6g4GriN9Qrc5rEXD4SCtTGoAh4GzivwdW5/U4cB5prIbEjsAlxG+YVm81F9hhpbUq1e9dxG//Vm+1kDSge42V1qqKsAbwH3iNvw11Dd4doMF6BmmwWfS2b/VXt5Mu+6ogzydNLBG98VnV1fuQBmN1UtMZvc1b1dUFwFao1TYAvkv8xmZVX/NIU61KdXsr8du7Vc9vyFtx1ttWOhj4M/EbmVVfnYFUr4n4O9L2+hmwKWqFcaTBHkuI37Csems+sC5SfV5L/HZu1V/3AAegvxkXHaAH6wHfAY7D0zolWB24A/htdBC11ul4qakEawKvIB1UXBmcRT3YEufsL7EuRarHZngmscT6Is08AK7UatEBurAz6Ulc20cH0cA9k9S9S1U7EM8klui1pDPJk6ODRGpKA7AvaSrfzaKDKMQE4GnRIdRKz4oOoDBHAj8G1o4OEqUJDcDzgZ9Q8EoSADOiA6iVfApl2faj4IPL3BuAI/E0jRLn+VYdtokOoHA7k6aO3zA6yKDl3ADsA3ydNApc8gyQ6jAtOoCysB3wUwr7ncm1AdgV+BEO/NJyU6IDqHWG8MExWm434HzSmKMi5NgAbA5cSGGdmFZpQXQAtc5S0uOnpWUOAs6lkFsEc2sA1iNN2bh5dBBl5+HoAGqludEBlJ0XAKdFhxiEnBqA1YD/xvv8NbJZ0QHUSrOjAyhLJwCviQ5Rt5wagA8Dh0WHULZujA6gVpoZHUDZOhPYMzpEnXJpAA4F3hMdQtlaClwdHUKtdFV0AGVrEnAeMDU6SF1yaADWB76M03FqdNcDc6JDqJV8zoTGsjXw6egQdcmhAfgC8JToEMra/0QHUGtdC9waHUJZOw54SXSIOkQ3AEcBLwzOoPx9NTqAWmspafCxNJYzgHWjQ1QtsgFYA/hk4PurGX6MAwBVr8/hPBMa20bAJ6JDVC2yAXgvsFXg+6sZPhwdQK13F/Bf0SGUveOAZ0eHqFLUwLvtSdfeJga9v5rhW8Ax0SFUhI1ItwQ6A6nG8nvSo8kfjw5ShajpDr+FT3fT2B4ijRFxBkANwqOkbe550UGUtY1Jk0f9X3SQpnouaeCNZY1VL0cavG8Tv+1beddfaMkj6gd9BmAI+AawyYDfV83yEeBT0SFUpJ8AR5AuCUgjmQrcB/w6Oki/Bj0G4CjgewN+TzXLl0lzcC+NDqJibQJcgYOUNbo5pO1jfnSQfgz6LoB3Dfj91CxnAK/Fnb9i/QV4JmnAlzSSjUh3BahD+xB/7cbKs+YDxyPlZS3SgOXo74eVZ91E/GR6jfFN4leYlV/9BtgNKV+vBe4n/rti5VdHoVXaEFhI/Mqy8qlbgX/CDlrNsAHpoTDziP/uWPnUhWiV3kn8irLi6zHgItItfuORmmdj0iymNxL/fbLi6zFgcxpqUHcB3ADMGNB7Kd5jwFzSrTK3kdb/5cBlpFOpUhvsCBxImhluBmlHMAWYFhlKA/de4OToEL0YRAOwO+0cTbuE9LkuBa4mDQiZBTxCutwhSaWaQrpffntSc7QvcBDtfPT7dcCu0SFydQrxp2mqrFmkjm+LKheSJLXcEPD3pLk+FhD/W15l7VThcmqVtlwr+zNpNPCEahePJBVnU+BMYDHxv+1V1PuqXTztsA3xK6bfWkIa/btWxctGkkq3O+kSavTvfL/1q6oXTBv8C/Erpp+6H58OJkl1mkB69kf0730/9RiwbtULpum+T/yK6bVmkUb5SpLq9wbSjjT6t7/XenH1i6S5hki3gUWvlF53/tOrXySSpDG8knTZNXof0Ev5BNMVzCB+hfRS9+ORvyRFeTvx+4Fe6rd1LIymejXxK6TbWoLX/CUp2jeI3x90W4uBNepYGE3UxEEdn65lSUiSujEVuIP4fUK3tVcdC6MudT6IZfcaX7sOd+O9nJKUg7nAidEhetCo/V6dDcAuNb52Hd4HPBQdQpIEwHeBn0eH6FLT9nu1mEb8qZhuajbO8CdJuTmE+P1DN/X9ehZDPeo6A7BVTa9bl88Bi6JDSJKe4KfAzOgQXWjUvq+uBmCLml63DkuA/44OIUka0TnRAbpgA0CzHvn4e9JoU0lSfpp0Wn1N0qOQG6GuBmD9ml63DpdGB5AkjeqPpLu0mqIx+7+6GoD1anrdOlwdHUCSNKqlNGuWveIbgKk1vW4dmjTARJJKdGN0gC40Zv9XVwPQpFvq7owOIEka06zoAF2YGB2gUzYAacYpSVK+mvQ7XXwDML6m163a43j/vyTl7pHoAF1ozAFwnVMBN8HS6ACSpFYZig7QqdIbAEmSimQDIElSgWwAJEkqkA2AJEkFsgGQJKlANgCSJBXIBkCSpALZAEiSVCAbAEmSCmQDIElSgWwAJEkqkA2AJEkFsgGQJKlANgCSJBXIBkCSpALZAEiSVCAbAEmSCmQDIElSgWwAJEkqkA2AJEkFsgGQJKlANgCSJBXIBkCSpALZAEiSVCAbAEmSCmQDIElSgWwAJEkqkA2AJEkFsgGQJKlANgCSJBXIBkCSpALZAEiSVCAbAEmSCmQDIElSgWwAJEkqkA2AJEkFsgGQJKlANgCSJBXIBkCSpALZAEiSVCAbAEmSCrR6dACpwXYHngU8HdgNWB9YB1gzMlSLPQr8FbgPuAa4Cvjl8J8ldckGQOrOZsBxwD8CO8RGKc6aw7UZsAdw7PC/nwl8Dfgv4M6QZFIDeQlA6sx6wEeAm4EP4c4/JzNI6+QW4PPAxrFxpGawAZBW7TXAbcC7gUnBWTS6CcDrgZuA1wZnkbJnAyCNbh3gfOBsYGpwFnVuKvBF0rpbJziLlC0bAGlkGwGXAUcH51DvjiYNEtwkOoiUIxsAaWXTgctJI/vVbDuSGrnpwTmk7NgASE80BbgQ2C46iCqzHXARsFZ0ECknNgDSckPAl4BdooOocjuSbhMcCs4hZcMGQFrudcAx0SFUmxfi3QHS39gASMk6wMnRIVS7j5BmbJSKZwMgJR/EHUMJ1gU+EB1CyoENgJRGiL8+OoQG5nXA1tEhpGg2ABK8lzSLnMowHvjX6BBSNBsAlW46yx8qo3Ici2cBVDgbAJXOo/8yeRZAxbMBUMk8+i+bZwFUNBsAlcyj/7J5FkBFswFQqTz6F3gWQAWzAVCpPPoXeBZABbMBUIk8+teKPAugItXVACyp6XWr9nh0AIXw6F8r8ixA/pr0W92YrHU1AI/W9LpVmxsdQAPn0b9G4lmAvM2LDtCFxuxX6moAHqzpdavWlJyqjkf/GolnAfL21+gAXWjMfqWuBuBPNb1u1ZqSU9Xw6F9j8SxAvm6ODtCFxuxX6moA/ljT61ZtZnQADZRH/xqLZwHy9QAwJzpEB+aQsjZCXQ3Ar4FFNb12lS6PDqCB8ehfnfAsQL6uiA7QgUbtU+pqAOaRmoCcPQ5cFh1CA+PRvzrhWYB8XRwdoANNyDgQbwSWZlw/qu+jKzPTgYXEb3NWM2oRngXI0QakdRO9fYxWi4GNavv0NahzIqBzgfk1vn6/vhIdQAPj0b+64VmAPN1L3gduP6QZ4xQG5iziu7KR6hZg9Ro/t/Lh0b/VS3kWIE/7Eb9tjFb71vi5G2kL0niA6BXz5PqnOj+0svIF4rc3q5n1RZSji4nfNp5cP6v1EzfY+4lfOSvW1fgMhFJ49G/1U54FyNNO5DUWYDGwa62fuMEmAb8nfiUtJY1J2K3ej6uMePRv9VueBcjTScRvG8vqpFo/aQvMIM2PHL2ijq/7gyobHv1bVZRnAfI0DriU+O3j0uEsWoWDiP1BPqv+j6iMePRvVVWeBcjTeqRZZ6O2i5uADWv/lC3yMmKu3fwnXvcviUf/VpXlWYB8TSc9J2DQ28TNw++tLh3OYC8H/AcwNJBPplx49G9VXZ4FyNdGwG8Z3LZwNR7592UH4HfUu5IeAl46qA+kbHj0b9VRngXI2yTgdOrfDs4B1hjQZ2q1ScD/o555Ar4FbDa4j6KMePRv1VWeBcjf4aRr81Wv+xuBQwf4OYoxHTiDahqBi3A2ppJ59G/VWZ4FaIaJwBuAW+l/nd8C/DNOJV67dUkL+hJgAZ2tnCXAdcCHSJcVVDaP/q26y7MAzTEOOIx02v4eOl/Hc0jPijmUlt/il+vguMnA3sCOwLbAWsDawCPDNQuYSRqM4cMXYk0DNgamkNbRFGK65cnA2aQHuTTR74A/RYcYkG2Bp0aH6NFi4HWkM5aDtoj0+/fg8D/vJo110qoNATuTJoLbHngK6bcK0rK8i3Tp4FrgelIj0Hq5NgDK007AASz/Es0g7fzVn0XAdqTGtgTLbt3ytGr/7iYdDC3beV1KujdekvoyFTgW+DqpQ44+/drW+lynK6RFPkv8cm9r3UX6zh5L+g5LUkdWIw2k/Dx5TN/c9loEbNnJimmZzel8rI/Ve80HzgOej49AlzSKCcCrqOcWGmv0+mwnK6elPAsw2LoNeAvpFmxJYjJwInAn8T9QpdVCyp5O1Ns2Y2o2NgJS8Q4EbiD+B6nUKvnofxnPAsTVn4DnrnoVSWqTzYFvE/8DVHKVfvS/jGcB4ut8nDlVKsILgAeI/9EpvTz6X86zAPHls1OkFpvIYB6WYa26Sh35PxrvCMinziGNC5LUEpsA/0v8j4uVqsT7/lfFswD51NWkmfIkNdzWpFnXon9UrFQe/Y/MswB51W2k2T7VYqtFB1Ct9gSuJM29rjx8Cbg9OkSGZgNfjg6hv9kS+BWwT3AOST3YkzSwJ/pIwlpejvwfm3cE5FcPkX5L1EKeAWinbYELSU9RVD7+k3Ie+NOLWaRlpHysBVyEj1tvJZ8G2D6bAL/E68y5WUy6pnp7cI7cbU4aszIxOoieYDbwrOF/qiU8A9AuE4ELcOefo//EnX8nHAuQp82B72BjJmXrLOKvGVorlyP/u+NYgHzr02OsN0lBXkz8j4M1cjnrX/c+R/x6s0auo8dYb2oQxwC0w+bAH4Bp0UG0kkXAdjj4r1vTSWMBJkQH0UoeBHbD8QCN5xiAdvgU7vxz5cj/3szCsQC5Whs4LTqEJDiU+FOC1sjltf/+OBYg7zpi9FWnJvAMQLNNJg38U56c9a8/ngXI2+nApOgQUqneSvxRgDVyefRfDc8C5F0njL7qJNVlInAn8T8A1sjlyP/qeEdAvjUb5waQBu544r/81sjl0X+1PAuQd71u9FUnqWrjgFuI/+JbI9fnRl916pFnAfKtW0i/SZIGwJH/+ZZH//XwLEDedcjoq0658i6AZnpVdACNypH/9fCOgLy9MjqAuudMgM2zFnAXsEZ0EK3EJ/7Vy9kB8/UosDHwSHQQdc4zAM3zQtz558on/tXLswD5WhN4QXQIdccGoHkOjQ6gES0ATokOUYBTSMta+TksOoC6s3p0AHVlCDggOoRG9FHynvN/GukU7QYsn71tEmk2ySXAQ8Bfh/+57M+PDT7mKs0CPg68LzqIVnJgdAB1xzEAzbIzcF10CK1kFrAT6TpopI2BXYAdSXl2BLYh7fS7naxlMelz3QbcOly/B64GHqgob68mA3/Euy1ytCMwMzqEOuMZgGbZPzqAVvIYcCyD3/kPATOAfVeorSt8/fGk5mGbEf6/m0mNwJXARcCfKnzfTswHXgP8GH/DcnMgNgBSLT5P/P2+1hPrLWOusWqNI10COh24o+LP0U/dSHok9XMY7Aj9t1f8Oaz+yymwpZpcRvwX3Fpeg5rx7xnA2cB9A/hM/da9pAZlz1qWxMq+MIDPZHVel469uiT16m7iv+BWqjOpdwzNOsCbgT9k8Fl7reuAt5HmrqjLEHBaBp/VSvWXsVeXpF5MI/7LbaXBce9exbrqx2bAp4F5GXzWqupB4GPAphUupyf7V9K6if6sVr0Nn1SkGcR/sUuv20mD7eqwFWmMR5vnu19ImsinysGKK9qbNEAx+nOWXjusakVJ6s5exH+xS62HgQ8AU1e5lrq3HnAWZR29LgBOJV3mqNpU4IPA3Aw+Z6m11yrXkqSuHED8F7u0mk2aeW6DDtZPt1YHTgDuz+BzRtX9pDECddw5sCHwEeDODD5naeWEQFLFjiT+i932WkC6t/104CDqmyp7P+D6DD5vLnUt9R01rgYcTFqnvyat4+jP2/bymQAN4SQazdGkBwB9ArgqOkSHHiHNbHc/aea7RTW+1yTgJOAdpHv6lewK/Ar4DPBvVDup0hLgZ8MF6WzDdNKll3WBKRW+V532Jm03TdCk3yqpEV5OfGffab2opmXQZHviUX8ndSPwtB6XcZu9iPh102m9oqZloIr5NECpfieSLi3sFB2kAbYHrgDeEB1EajsbAKk+k0i3vX2SNLe+OjORdDngazTnFL3UODYAUj22JF3XPi42RqP9A2ng3hbRQaQ2sgGQqrcnaRDkU6ODtMDOpEZq9+ggUtvYAEjVejZwCfXMHVCqTUjjAg6LDiK1iQ2AVJ0jSc+ody706k0B/gd4cXQQqS1sAKRqHAN8mzTwT/WYAHwdOCo6iNQGNgBS/w4BzsGJtQZhPHAe8LzoIFLT2QBI/dkX+B7p1jUNxgTgW6TpmiX1yAZA6t3uwAU49WmESaRLLk6uJPXIBkDqzUbAD4C1o4MUbBpwIenJf5K6ZAMgdW88cC6wWXQQsSXpTICXYKQu2QBI3TsN+PvoEPqbfUmP+5XUBRsAqTuvAv4lOoRWcjxwdHQIqUlsAKTObQmcGR1CozobnxsgdcwGQOrMaqQn+02NDqJRrQ18FRgXHURqAhsAqTNvAfaPDqFV2g84MTqE1AQ2ANKq7QCcHB1CHTsJ2Dw6hJQ7GwBp1T4JTI4OoY5NwbsCpFWyAZDGdgRweHQIde2FpKczShqFDYA0uvHAqdEh1LNTSetQ0ghsAKTRvYl0/V/NtC3w6ugQUq5sAKSRTQLeFR1CfXs/jt+QRmQDII3seOAp0SHUt01I61LSk9gASCubCLwjOoQq8258WJC0EhsAaWXH4ZP+2mRj4KXRIaTc2ABIK3tzdABV7i3RAaTc2ABIT/QsYOfoEKrc3wHPjA4h5cQGQHqi10UHUG3eFB1AyokNgLTcNOAl0SFUmxeQpgmWBKweHUDKyDHAGtEhanQr8CvgDuB+4AFgMWmnuBEwA9gV2AUYCspYpzVI0wN/PTqIlAMbAGm5F0YHqNhS4OfAl4GfAnd1+Pc2AJ4D/CNwCDCulnQxXo4NgAR4CUBaZi3gwOgQFXkM+CywPXAAcA6d7/wB7gW+RnoI0rbDr7Ww4oxRngOsGx1CyoENgJQ8l3ZMFvMTYA/gjcCfKni924dfa1fgxxW8XrQJwKHRIaQc2ABIyVHRAfq0iDR/waHA9TW8/s3AYaSR9AtqeP1BOjg6gJQDGwAp2T86QB/+TMp/5gDe6zPAs4F7BvBedbEBkLABkAC2I00X20R3k67zXznA97wa2A+4c4DvWaXppPERUtFsACTYNzpAj+4njdK/OeC9byJdEngg4L2rsH90ACmaDYCUpv9tmiWkSYuuC8xwPWnuhCWBGXq1Z3QAKZoNgAR7RwfowSeAS6NDABcDJ0eH6MEe0QGkaDYAKt3qNO968LXA+6JDrODDwA3RIbq0K06EpsLZAKh029C8+///nXTbXy4W0bzH7U4GdogOIUWyAVDpdowO0KWrgR9EhxjBT0nPGWiSGdEBpEg2ACpd0xqAU6IDjOHj0QG6tHl0ACmSDYBK16SdwIPAD6NDjOFC0nMEmqJJ616qnA2ASrdBdIAufI+8rv0/2WLgu9EhumADoKLZAKh0G0UH6ML3ogN04GfRAbqwWXQAKZINgEq3YXSALvwuOkAHLo8O0IV1ogNIkWwAVLr1ogN06GFgdnSIDtwN/DU6RIcmRweQItkAqHTjowN0aCawNDpEh26JDtChNaIDSJFsAFS6pjQAD0cH6MKD0QE65BkAFc0GQKUbFx2gQ4ujA3RhbnSADtkAqGg2ACpdU+aDb1IDMCU6QIcejw4gRbIBUOmasmNt0nwF60cH6NDC6ABSJBsAle6h6AAd2jI6QBea0gAsiA4gRbIBUOma0gBsTDOuWa8DbBodokNNGlgpVc4GQKVrSgMwBOwTHaIDz6A5vyv3RQeQIjXliyrVpSkNAMBzogN04BnRAbpwf3QAKZINgErXhNn1ljk0OkAHXhQdoAt3RweQItkAqHS3RQfowlOBvaJDjOGZwE7RIbpwe3QAKZINgEp3a3SALr05OsAYXhsdoEtNav6kytkAqHRNawBeSp6Psd0eeEV0iC415ZkFUi1sAFS6m6MDdGkCcHp0iBF8jJStKZYC10eHkCLZAKh099G8a8EvAo6MDrGCw4CjokN06XacB0CFswGQ4OroAD34DPCU6BDA5sA50SF6cE10ACmaDYAEV0UH6MGmwPeBNQMzTATOp1nPKVjmyugAUjQbAKmZZwAAngZ8DRgf8N6TgG8Dewe8dxV+GR1AimYDIKUzAPOjQ/ToKOBCYNoA33NN4AfAEQN8zyrNB34bHUKKZgMgpR3CZdEh+nAIcAWDeWLgjsDlwEEDeK+6/BwfBSzZAEjDfhgdoE+7ANcCJwDjanj9IeCNwP+SZiRssouiA0g5sAGQkh9FB6jAVNIcAVeSzgoMVfCaQ8DzSTv+s2jGI4lXpQ3rWuqbDYCU3ALMjA5Rkb2An5DOCLwWWLeH19gI+GfS+Ijv0/yj/mX+ANwUHULKwerRAaSMfA34UHSICu0CfBH4HGnQ24+B60iT4MwCFg3/d0PAdNL1/V1JD/XZl3ouJUQ7LzqAlAsbAGm5rwIfoH1nxsYBTx+uki0Fzo0OIeWibT90Uj/uAH4RHUK1uYLmPftBqo0NgPREX4kOoNp8MTqAlBMbAOmJvgU8EB1ClXuANG2xpGE2ANITPUp60I7a5bM0d7ZHqRY2ANLKzsCdRZssJM1hIGkFNgDSyu6hmY+41cj+C7grOoSUGxsAaWSnAo9Fh1DfFgKnRIeQcmQDII3sZhw13gZfJE16JOlJbACk0Z0EzI0OoZ49BHw4OoSUKxsAaXT3AB+NDqGevReYEx1CypUNgDS2TwKzo0Ooa78j3fonaRQ2ANLY5pGeiqfmWAK8CXg8OoiUMxsAadV+SHpSoJrhS8CV0SGk3NkASJ05kTQmQHm7C/jX6BBSE9gASJ25j3RaWfl6HPgH4P7oIFIT2ABInTsfB5bl7APAZdEhpKawAZC681bgt9EhtJJLccY/qSs2AFJ3FgJH42nmnMwBXoGj/qWu2ABI3ZsFvBKfFZCDBcBL8GE/UtdsAKTe/AjnB4i2hNSIXR4dRGoiGwCpd18iDTxTjBNJAzMl9cAGQOrPScDZ0SEKdBJwRnQIqclsAKT+/TPwlegQBfkcnnmR+mYDIPXvceDVwFnRQQpwBk7IJFXCBkCqxlLgzcDp0UFaainpqP8E0uA/SX1aPTqA1CJLSRMF/RV4PzAUG6c1HgNeD3w5OojUJp4BkKq17Ej1GNKjhNWfhcBLcecvVc4GQKrH+cCzgNnRQRpsNvBs4DvRQaQ2sgGQ6vN74BmkeerVnZ8ATwWuig4itZUNgFSvPwMHkSatWRScpQkeI11CeS4+b0GqlQ2AVL+lpLsDng3cGpwlZzcA+5Am+fHBPlLNbACkwfkNsAvpCHdhcJaczCMtk6cC/xucRSqGDYA0WPNJR7i7ARfHRsnCD4CdScvEpkgaIBsAKcZNwCHAq4DbY6OEuAU4Ang+ZX5+KZwNgBRnKfBVYHvgeOAvsXEG4h7gPaRLIT8MziIVzQZAircY+AKwHfB24I7YOLW4lTRV8hbAR4EFsXEk2QBI+ZgHnAZsAxwN/Dw2TiV+SZrJb3vgTNzxS9mwAZDy8zhp9rv9gT2AT9GsywNzgE+SBvftC5yHt/VJ2bEBkPJ2DekBQ5sDB5AuFdwbmmhkc0jZDgY2Bd4G/DE0kaQx+TRAqRmWAJcN1xuA3Uk724OB/YDJA87zCGleg0uAi4DfkQY1SmoIGwCpeZaQdri/Az4OTAR2JU2ks8dw7QpMrej9HiIdzV87XFeRnnPwWEWvLymADYDUfAuB3w7XitYFNgOmky4hbACsAawJTACmkS4DziXtzOcB95Hm4L+b9DS+23FOfqmVbACk9npguK6NDiIpPw4ClCSpQDYAkiQVyAZAkqQC2QBIklQgGwBJkgpkAyBJUoFsACRJKpANgCRJBbIBkCSpQLnOBLgm8HRgB9JzxNcE1gYeJU1XejtwE2lO8rtiIg5ckx6n+nbgZdEhpBbZNDpAF5r0W9WvTYC9SPuqLVg+1faDpAdm3QzMJO2rHg3KOKqcGoD1gJcDxLWgrAAADllJREFUxwD7AOM7/Hs3AN8Dvjr857Z6JDpAF54ZHUBSmLnRAWq2M/BK4ChgRod/ZxHwa+A84Jv4fI2/2RL4LLCA9DjRfuqnwP6DDD9A+9H/8rEsy6q79qOdDgQupv/lMx84i3TGoFiTgZNIC6PqDfACUmPRJnsQ/8W2LMtaVe1Bu2wKnEP1y2kh8BFg0uA+Sh5mANdQ70b4MOmSQltsTfwX27Isa1W1Ne1xNPBX6l1efwR2GdQHinYE6Xr2oDbGjwFDA/lk9ZoALCb+y21ZljVaLabz8Vs5GwJOZXDLbS5w+EA+WaCXkwZDDHqj/DLtuOXxJuK/4JZlWaPVTJpvNeArDH7ZLWLAd08Ncqd4BOk6SkR3eBxwZsD7Vu3G6ACSNIY2/EadBrwq4H3Hk/aRAzsTMKgGYCfgXGJvO3zDcDVZG7prSe11U3SAPp0AvCXw/ceTbhXs9PbCvgyiAZhM+kBrDuC9VuU0mj1C9eroAJI0ht9EB+jDnsDHo0MAU0j7zNrvDhhEA/BvpIkTcjAJOBsYFx2kR5eSrhVJUm6WApdFh+jROOCLpMHWOdgVeHfdb1J3A7AV8M6a36NbewKvjg7Ro3uB66JDSNIIrgHuiw7Ro9cDT40O8STvoebJgupuAN4DTKz5PXrxPvLp9Lp1SXQASRrBxdEBejSeARxt92AS8K4636DOBmAD4NgaX78f04EXR4fo0f9EB5CkEXw/OkCPXkq+0/L+E+k5ObWoswF4OXke/S8TcZtHFS4DbosOIUkruAO4PDpEj46LDjCGSaQGpRZ1NgDH1PjaVTgYWD86RA+WAl+PDiFJK1g2V37TbAgcEB1iFRrXAEwB9q7ptasyjuY+OfCr0QEkaQX/HR2gRweQ/yyx+1DTbfR1ffCn04z5oPeNDtCjG4EfR4eQJOBHNHcCoGdFB+jABGo6oK6rAdipptet2kBmW6rJB6IDSBJwSnSAPuwYHaBDteSsqwHYpqbXrdq20QH6cCXwi+gQkop2KXBFdIg+FL2vqqsBmFbT61Zt7egAffpgdABJRftQdIA+NWUfUMs+tc5BgE0wNTpAny4GvhsdQlKRziedAWiyHJ5R04la9lV1NQC5j6pcpqnPBFjRW4BHokNIKso84B3RISrQlH1ALTmbsqPW6GYDJ0eHkFSUk0iT/6jBbADa4VR8VLCkwbgK+FR0CPXPBqAdFpOebfBAdBBJrfYg8DLSb44azgagPWaR5rRu4nSckvK3lPRwGp9F0hI2AO1yAfDJ6BCSWulUvOuoVWwA2ucdwFeiQ0hqlW8A744OoWrZALTPUuB1wEXRQSS1wiXAq4El0UFULRuAdloMvAT4ZXQQSY32S+AoYGF0EFXPBqC9HgEOAr4THURSI/0AeA5ONNZaNgDtthA4Bjg7OoikRjkHeBFpxj+1lA1A+z0OvB547/CfJWk0jwH/Trql2Hv9W84GoAxLSdMFHwj8JTiLpDzNAQ4HTsH5RIpgA1CWXwBPBX4YHURSVi4EdgV+Fh1Eg2MDUJ57gCOAI0mzB0oq11+AY4HnAfcGZ9GA2QCU6wJgF+A0YFFwFkmDtQj4BLADacCfCmQDULa5wNuB7YBP44hfqe0WAl8AtgXeibf4Fc0GQJAuBbwF2Br4GOkygaT2uIf03d4COB6YHRtHObAB0IrmkOb73gQ4BPgq8GhoIkm9WkiazOcYYDPSd3tOaCJlZfXoAMrS46TRwD8D3gTsT7qF8EDSSOGhsGSSRrMU+ANp7v5LgMtIl/mkEdkAaFXmkgYMXjD8v9cHdgO2Jw0gmgFsBEwbrinAxMHHlFpvIema/UPDNQeYCdw4XH8A7gtLp8axAVC37mP5EYYkqaEcAyBJUoFsACRJKpANgCRJBbIBkCSpQDYAkiQVyAZAkqQC2QBIklQgGwBJkgpkAyBJUoFsACRJKpANgCRJBbIBkCSpQDYAkiQVyAZAkqQC2QBIklQgGwBJkgpkAyBJUoFsACRJKpANgCRJBbIBkCSpQDYAkiQVyAZAkqQC2QBIklQgGwBJkgpkAyBJUoFsACRJKpANgCRJBbIBkCSpQDYAkiQVyAZAkqQC2QBIklQgGwBJkgpkAyBJUoFsACRJKpANgCRJBbIBkCSpQDYAkiQVyAZAkqQC2QBIklQgGwBJkgpkAyBJUoFKbwCGogNIksIUvQ+oqwFYXNPrVm01YEJ0CEnSwE2mOQfBi+p40bo+fC1ha7JWdABJ0sBNjQ7QhYV1vKgNAGwWHUCSNHDTowN0YUEdL1pXA/BwTa9bhxnRASRJA9ek3/5a9ql1NQD31/S6dXhadABJ0sDtFR2gC7XsU+tqAO6r6XXrcGB0AEnSwB0UHaALtexT62oA7q7pdeuwB7BldAhJ0sBsC+wUHaILc+p40boagNtret06DAGvjA4hSRqYV9KsOQBuiw7QjbWApQ2q2cDEWpaEJCknE4E7id/vdFNT6lgQdd4F0KRxAJsBx0aHkCTV7jXAptEhunA38Eh0iG5dQnzX1E3dDaxdy5KQJOVgHdL19Oj9TTf1k1qWBPVOg3htja9dh42Ak6NDSJJq8xFgw+gQXfpDdIBeHEd859RtLQGOqmFZSJJiHU38PqaXelUdC6NuM4hfcL3UA8DONSwPSVKMXYEHid+/9FLb1bA8ajcE3Ev8wuulZgNbVL9IJEkDthXNG/W/rGqdU6fOMQBLgV/V+Pp12gy4As8ESFKT7Ur6LW/SqP8VXVHni9f9LOTaRi8OwLIm4AXRQSRJXTsauBzYJDpIH34aHaAfWxN/CqXfWgJ8Bm8RlKQmWAf4PPH7jipqi4qXzcDNJH4hVlF3A2/AGQMlKUeTgDfSvPv8R6vrq108MU4mfkFWWXcC/490dkOSFGtb4CTgz8TvH6qsD1a4jEY0iIch7AZcM4D3GbSlpAkaLgGuAm4C7gDmAgsDc0lSG00CppJOi+8A7E16nPsukaFqtAs1nwUY1NOQ/gjsOKD3UrzFpLmr7yc9xeoG0oDKy0i3hkoa2YbA/sC+pN/MrUnXtKcCq8fF0oBdR7qDoRXeQfzpFCu+HiPdGfIKYDySACYA/wj8DHic+O+pFV9vo0U2IJ0Wj16oVj51O/B6YBxSmcaRBhbfQfz30cqnFgDr0zLfJH7BWvnVb4E9kMqyJ/B/xH//rPzq67TQ04lfsFaetQB4E1IZTsAzotbotRct9QviF66Vb51J/bNTSlGGgNOI/55Z+dYltNjziF/AVt71ZQZ3d4o0KEPAV4j/fll512G02BDwG+IXspV3fRSpXU4l/ntl5V1NfXheVw4jfkFb+dc/ILXDMcR/n6z86yAGLOpU60+Bg4PeW83wMGkmrNnRQaQ+bAlcS5rIRxrNRcDhg37TqAFXb8TpcjW2tYBPRYeQ+nQ67vw1toXAiRFvHNUA3Ax8Iui91RwvAp4dHULq0YHAkdEhlL2PAjdGvHHkaOvJpPmOfaqexvIT4NDoEFIPLiY1AdJobiFd6lwQ8eaR91zPJ+i0hxrlOcCM6BBSl3bGnb9W7QSCdv4QP+nKBcB3gjMof6+MDiB1yW1Wq3Ie8MPIADlMuLIOcA2weXQQZet62vvMb7XTTNIz66WR3AH8HfBAZIjoMwAAfwVeQ7oPUhrJTsDG0SGkDj0Fd/4a3WLgZQTv/CGPBgDSvAAnR4dQtoZo8QMy1Dp7RwdQ1t4B/Do6BOTTAAC8n+DrIcra9tEBpA559K/RXACcER1imZwagCWkgTMzo4MoS1tEB5A65HgmjeQG4FVkdLk7pwYA0jWRQ4BZ0UGUHWdTU1O4rerJ/kya6vfB6CAryq0BALgTOII0OFBaZlJ0AKlDE6MDKCsPkCYzuyM6yJPl2ABAmiHwcODR6CDKxtzoAFKH/N3SMvOBo0i3Mmcn1wYA4DfAy4HHooMoCw9FB5A65LYqSPuuY4ArooOMJucGANKIyRcC86KDKNyfogNIHbolOoDCLQReCvwgOshYcm8AIC3A5+CYgNJ5d4ia4oboAAr1AOk5ENlPc5/DVMCd2gm4CG+xKdEi0pTRnglSE6xB2gk4GLA8dwGHAddGB+lEE84ALPNHYD88EizRL3Hnr+aYRxrDpLLcADydhuz8oVkNAKTbKJ4JfC86iAbqvOgAUpfOjQ6ggfoOad80OzpICYaAE0kDLZZara55wLpIzbIe6Raw6O+PVW8tAE6gWZfTW2NP0ujw6I3Aqq8+jdRMnyH++2PVV3cA+6BQawPnE78xWNXXPBz0qebaAs8CtLXOBaahbDyfdP0lesOwqqt/R2q2k4j/HlnV1S2kqeqVoXVIp90eI35Dsfqr3+NtVGq+SaRR4dHfJ6u/mg98AJiMsrcbcDHxG43VWz0MbL/SWpWaaQbpWRbR3yurt/oRsO1Ka1XZ2xf4OfEbkNV5LSJNpCG1ycF411LT6krSpWU13BHYCDShFpHmz5ba6GWkbTz6e2aNXZeSnkarltkb+CZ24jnWw6RnZkttdjheDsixFgDfAJ42+qpTW2wAvB24jvgNz0oD/rzmr1LMwIGBudQfgLcB64+5xtRauwAfAq4nfmMsreYB78PR/irPJOD9OE9ARF0HfBDYeZVrSUXZEjge+DYwh/gNta01HzgTmN7RWpHaawvgLGwE6qy7SZPFvX54eWuY8xePbXvgGaTbCncjnS3YODRRcy0ijao9jzSL1v2xcaSsrEcaJHgMaXrZCbFxGutu0hH+tcA1pN+cm0MTZcwGoHtrAlsN14ak8QTrA1OB8cCUuGhZmTtcN5Ie4XwV8GhoIqkZ1iQ9VnYG6SBk6nAJHgEWk35b7gPuJZ2tvQ24HX9jJEmSJEmSJEmSJEmSJEmSJEmSJEmSJEmSJEmSJEmSJEmSJEmSJEmSJEmSJEmSJEmSJEmSJEmSJEmSJEmSJEkq0/8HXIRu1g0zx2MAAAAASUVORK5CYII=;" parent="1" vertex="1">
          <mxGeometry x="-1010" y="650" width="70" height="70" as="geometry" />
        </mxCell>
        <mxCell id="He7p6NDhDGaTkKvORS2x-3" value="截圖&lt;div&gt;全螢幕畫面&lt;/div&gt;" style="text;html=1;align=center;verticalAlign=middle;whiteSpace=wrap;rounded=0;strokeColor=default;" parent="1" vertex="1">
          <mxGeometry x="-1010" y="740" width="70" height="70" as="geometry" />
        </mxCell>
        <mxCell id="He7p6NDhDGaTkKvORS2x-4" value="截圖&lt;div&gt;指定範圍&lt;/div&gt;" style="text;html=1;align=center;verticalAlign=middle;whiteSpace=wrap;rounded=0;strokeColor=default;" parent="1" vertex="1">
          <mxGeometry x="-930" y="740" width="70" height="70" as="geometry" />
        </mxCell>
        <mxCell id="He7p6NDhDGaTkKvORS2x-5" value="截圖&lt;br&gt;&lt;div&gt;&lt;span style=&quot;background-color: transparent; color: light-dark(rgb(0, 0, 0), rgb(255, 255, 255));&quot;&gt;指定&lt;/span&gt;視窗&lt;/div&gt;" style="text;html=1;align=center;verticalAlign=middle;whiteSpace=wrap;rounded=0;strokeColor=default;" parent="1" vertex="1">
          <mxGeometry x="-850" y="740" width="70" height="70" as="geometry" />
        </mxCell>
        <mxCell id="He7p6NDhDGaTkKvORS2x-6" value="截圖&lt;br&gt;&lt;div&gt;&lt;span style=&quot;background-color: transparent; color: light-dark(rgb(0, 0, 0), rgb(255, 255, 255));&quot;&gt;指定螢幕&lt;/span&gt;&lt;/div&gt;" style="text;html=1;align=center;verticalAlign=middle;whiteSpace=wrap;rounded=0;strokeColor=default;" parent="1" vertex="1">
          <mxGeometry x="-770" y="740" width="70" height="70" as="geometry" />
        </mxCell>
        <mxCell id="He7p6NDhDGaTkKvORS2x-7" value="錄影&lt;div&gt;全螢幕畫面&lt;/div&gt;" style="text;html=1;align=center;verticalAlign=middle;whiteSpace=wrap;rounded=0;strokeColor=default;" parent="1" vertex="1">
          <mxGeometry x="-690" y="740" width="70" height="70" as="geometry" />
        </mxCell>
        <mxCell id="He7p6NDhDGaTkKvORS2x-8" value="" style="shape=image;verticalLabelPosition=bottom;labelBackgroundColor=default;verticalAlign=top;aspect=fixed;imageAspect=0;image=data:image/png,iVBORw0KGgoAAAANSUhEUgAAAgAAAAIACAYAAAD0eNT6AAAACXBIWXMAAA7DAAAOwwHHb6hkAAAAGXRFWHRTb2Z0d2FyZQB3d3cuaW5rc2NhcGUub3Jnm+48GgAAIABJREFUeJzt3XmYnnV97/F3JnsgCWsgYd93BEQRQYQWBRfcF1SqbVW01hZ72orV2qOnPV5o8XjUnha1al2rglhFxKWyyL6rIDuCEBbZkrBkz+T88Z2BYZjJPM8z93N/7+X9uq7PlRAyk+88zz3z+92/+7eAJEmSJEmSJEmSJEmSJEmSJEmSJEmSJEmSJEmSJEmSJEmSJEmSJEmSJEmSJEmSJEmSJEmSJEmSJEmSJEmSJEkNMSW7AEmSampTYD9gF2ABMBtYDawC7gZuA64f+jNJklRjBwOnAtcBg8D6CbIcOBc4CViUUK8kSerRVOAtwDVM3OBvKGuBbwPPLrd8SZLUrSOBXzK5hn90BoGv4YiAJEmVMxM4BVhHsY3/yCwF3lTWFyRJkjZsS+Ay+tfwj87HcVK+JEmpdgRupbzGfzjfIOYaSJKkkm0P3E75jf9wvoIjAZIklWoH4A7yGv/hfLDfX6gkSQpVafzXE0sFX9jfL1eSJGUP+4+VW4FZ/fyiwQkHkqT22gE4H9g5uY7RNgPWABdkFyJJUtNU8c5/ZJYCm/Ttq8cRAElS+1T1zn+kWcAy4KLsQiRJaoLtqPad/8jcgssCJUmatO2B35LfsHeTg/rySgAD/frEkiRVyHbEsbw7ZRfSpRdlFyBJUl1VfcLfhnJ2H14PSZIabzvgNvIb8l5zZ+GviCRJDVfnO//hDBJHE0uSpA7U/c5/ZBYW/NoATgKUJDXPdsQ6/12S6yjK3H58UjsAkqQm2Q44j2pv8tOtVdkFSJJUZU0a9h+ZLYp8kSRJapKmNv7LcTdASZLG1NTGfz1wXYGv09M4B0CSVGfbEs/8mzLhb7TL+vWJ7QBIkupqW5o1238sngYoSdII2wK3kj9E38+swQmAkiQ9qQ2N/3rgnKJeMEmS6q4tjf964NiCXjNJkmqtTY3/tbj8T5KkVjX+64EXFfOySZJUX21r/L9ZzMsmSVJ9bQ3cQH6jXFbuBjYr5JWbwLQy/hFJfTEV2BTYZEQ2BqYP/f/ZwKyh388ANhr6/TQ2fLrYklH/vQJYOfTnK4f+e+nQ75cDy4b+32DvX4o0pm2ITX52yy6kJE8ArwIeKeMfswMgVcdGwPbAIuIH33bEGuDhRn5kY78pfToidBIeAh4e9etDwIPAA8SdzeKhX1cm1aj6aFvjvwY4Hri6rH/QGYZSOaYBOwG7E88zFxGN/UKiod8GmJ9WXfkeIDoDi4HfDf36W+I5763EyILaq62N/5ll/qN2AKRibQHsAexJNPa7A3sRZ5NP38DH6ekW81Rn4FbgFuBm4sCXdYl1qf9s/EtiB0DqzTzgAOAgYH+eavA3zyyqBVYAvwF+Bfx6KL/imfMWVE82/iWyAyBNbFOioR+Z3fD7p0ruJjoDVwOXD+Xh1IrUrUXEwT42/iXxB5j0dLOA5wKH8VRjv3NqRerVLTzVGbicGClYk1qRxrOIuPPfPbuQkqQ3/mAHQJoLPB94AfBC4DnAzNSK1C8riBGCC4jG5lKcbFgFNv5J7ACobeYChwBHA4cTDf6M1IqUZS0xKvDfQ7mY6CSoPFsB5wJ7ZxdSknXACcC3sgsBOwBqvmnEcP5LiJO19sfrXmNbCVwG/JQ4hvVXxM5s6g/v/CUVbgHweuCrxOzw7K09TT3ze+Iaej2x+ZKKsxWxmiP7PS4ra4nGv1K8E1ITTAMOJe7yXwI8C69tFWs1cBExMvBD4KbccmptETHsv0d2ISXxzl8q2AzgpcCXiX2zs3v4pl25Hvgo8UhJnVtEdJ6y37+yshp4TSGvnNRyU4mJe58mtpLN/uY2Zj1wB3FNHo4jTxvisL+krninb+qUO4BTgQPRSAvxzl9SB6YQa/K/hI2+qW+uB04mDn9qMxt/SRPahviBeSv538TGFJV1xATCE6neEc795rC/pHHNBt5MrL1eR/43sDH9zBPA14GjaP58gYXAjeS/5mXFO3+pQ88mJk49RP43rjEZuYUY8dqS5vHOX9LTzCGGQX9N/jesMVXJSmJU4AU0g3f+kp60E/DPOKHPmInyG+AkYD71tDU2/pKIddHfIXbCyv5GNaZOeQz4HLAn9bEVsfIh+7UrKw77S6NsTAzzX0f+N6gxdc864Czi9MoqW4CNv9RaC4D/jYfvGNOvXEmsmJlOtWwN3ED+61NWHPaXhuwAfIZY3pT9jWlMG3I38FfEpNpsNv5SC+1CLONbSf43pTFtzIPAR8g7qthhf6llDiDOSF9L/jekMQYeBU4BNqM8Nv5SizyP2K0v+xvRGDN2HgU+TjTO/bQVDvtLrbA/8H3yvwmNMZ3lCfo3ItC2Hf5s/NVKOxLrkB3qN6aeeYzoCMyjGAto1/Jeh/3VOtsSDb+b9xjTjDxInDkwi97Z+EsNtgD4FLCC/G8+Y0zxuQN4GzCV7jjsLzXUTOD9wDLyv/GMMf3P9cCL6YyNv9RQxwG3kf9NZ4wpPz8D9mF8DvtLDXQQcD7533DGmNysJub8bMHT2fhLDbMQZ/YbY56Zh4ljiKdh498aU7ILUClmAv8D+CBxWp8kjeU3wACwV3YhJVlDNP5nZheSwQ5A8x0B/Buwd3YhklQh64ATgG9lF5JlILsA9c1mxHD/+dj4S9JIrW/8wRGAJpoC/BHwSZ45sUeS2s7Gf4gdgGbZDzgNeH52IZJUQTb+I/gIoBnmEKeAXY2NvySNZQ3wBmz8nzQtuwBN2qHAl4E9sguRpIpaB7yVls72H48jAPU1mzjp60Js/CVpPA77j8M5APV0KPAlYM/sQiSpwmz8N8ARgHqZxVN3/Tb+kjQ+G/8JOAJQHz7rl6TOtHqHv045AlB904CP4LN+SeqEE/465AhAte0AfB04PLsQSaoBh/274AhAdb0OuBYbf0nqhI1/l+wAVM9cYg//04FNk2uRpDqw8e+BjwCq5WDgm8Bu2YVIUk3Y+PfIEYBqmAL8LXAJNv6S1Cm3950EtwLONw/4IvHMX5LUGWf7T5KPAHIdAJwB7JJdiCTViMP+BfARQJ63Ahdj4y9J3bDxL4gdgPLNAr4AfIU4xleS1Bkb/wL5CKBcuxPL+/bPLkSSasbtfQvmCEB5jgEux8ZfkrrlhL8+sANQjhOBHwKbZBciSTXjsH+f+Aigv2YCpwF/nFyHJNWRjX8f2QHon4XA94BDsguRpJq6AHgxsDq7kCbyEUB/HAhcho2/JE3GC4Ef4+PTvrADULw3E1v6bp9diCQ1wFHARcTx6CqQHYBinQR8jVjrL0kqxj7EqOrB2YU0iR2AYkwD/g34v/iaSlI/bA2cDxyXXEdjTM0uoAE2Br4LvCm7EElquBnE6X+PAFck11J7dgAmZxHwM+CI7EIkqSUGgJcCmwE/BdbnllNfdgB6ty9wLrBndiGS1EKHAPsBZwFrk2upJfcB6M3RxJaUc7MLkaSWuwR4JfBQdiF144S17r2O2NbXxl+S8j2f6ATsmFxH7TgC0J13ErP9fXSiulgHPDr0+yVDv64Clo/6ezN56njq+cA8YHrfq5OKsxh4EXBTdiF1YQegcx8APoavmaphJXAncMdQ7gJ+Dzw8lIeG8sgk/o3ZxEjXpsACYtLr1kNZBOw8lEWT+DekIj0AHAtcm11IHdiYTWwK8Angb7ILUSs9Avx6RG4kGvz7MosaZTawC7ArsWHL/sQk2d2JPTKkMi0FXkY8FtAG2AHYsKnAF4A/yS5ErfAo8UPrEuBq4Drg7tSKJmcG0RE4ZET2wJ876r8ngFcB/51dSJX5jTi+GcB/Aq/JLkSNtZg47ewSYq/z3xDP7JtsE2LS1lFDOQDn1Kg/VgFvBL6fXUhV2QEY20zgDODl2YWoUVYDFwPnDOX63HIqYVPixLdjiWHbbXPLUcOsBf4Y+EZyHZVkB+CZZgPfA47JLkSN8AhxPZ1NDEc+lltOpU0hRgReTuz3fjD+jNLkDQJ/DpyWXYiqbQ6xte96YyaRpcBXiUZsBurVdsQJmxcRP8Sz31dT3wwCf4s0jrnAL8i/UE09sxL4FvAK4hGSirUb8A/Ab8l/r019849Io8wnJmJlX5ymfrkZOBnYEpVhADgc+BzwOPnvv6lfTkUaMp84VjL7ojT1yUrg68TkNZ9R59kEeB9wG/nXhKlX/idqvY1w2N90nqXAp4FtUJUMEAd0nYVzBUzn+RBqrTnEGuzsi9BUP7cRs4iH98pXde1DTMBcQ/51Y6qfv0atMwtn+5uJ80vgtXhqZh3tRBzctZL868hUN4PAX6DWmEGsyc6+8Ex1cwPwBny+3wQLgc8Qu8JlX1emmhkE3oUabyrwbfIvOFPN3AmciAfYNNF2xMoBHw2YsTJIfO+roQaIddrZF5qpXh4E/gyYjppuL+BM8q85U72sA05AjfRp8i8wU62sJu4Kt0BtcyQxxyP7GjTVylrgzahR/on8C8tUKz8C9kRtNhV4NzEClH09mupkNfBq1AjvI/+CMtXJncSpc9KwTYHP4x4C5qmsJEaJVGMnEM91si8mk59BYrh/LtLYDiOOaM6+Vk01sow4nVI1dBzO+DWR3wCHIk1sBvBh3D/ARO4BdkC1cjiwnPyLx+RmNfBRPJ1P3dsPuJb8a9jk50Zgc1QLuwIPkH/RmNzcQQzpSr2aRpz0uJr869nk5nLi7BhV2FZ4XriBLwEbIxXjFeRf0yY/Z+EmYZU1B7iU/IvE5GUpruFVsRYA15F/bZtq5Gs0aIvwqdkFFGQq8F3gD7ILUZrLgaOAi7MLUWMsAM4F9s0uRJWxP9HenJddiJ7yWfJ7hiYvXwVmIxXHO3+zofwlqoSTyb8YTE5WAu9AKtYC3A/AbDhrgdegVK/GjX7amruA5yAVy8bfdJoVwHOpsTpPZjgQuBCXZrTRFcTM7N9nF6JGGX7mv092IaqN+4gbkXuyC+nFQHYBPdoa+D42/m30X8RkPxt/FWkB8HNs/NWdhcTywDnZhbTFbOAy8od/TPn5NM1ZuaLqcMKfmWzOoIYj6nX7YToF+ApwbHYhKtU64K+IbX3XJ9eiZhm+83epnyZjb+Ln1C+yC2myj5Df0zPlZjXwBqTiOeHPFJlBXBnQN6/EGf9tyyrgVUjFc9jf9CPLgYOpibo8s9iD2OltfnYhKs1yYpnnT7MLUeM47K9+uotYHlj5icp1WAUwFzgTG/82eRw4Dht/Fc/GX/22PdFmVf4Y8qpPAhwgZld6rGt7PAq8CLgouxA1jnv7qyzbAdsSy9Urq+odgI8C78wuQqVZDrwMuCS7EDWOm/yobAcQo5mXZhdSR68kZlVmT+ow5WQlcAxS8Zztb7KyBjiCiqrqJMAdgGuAzbILUSnWAW8CTs8uRI3jM39l+z2xdf192YWMVsVJgLOA72Hj3xaDwNuw8VfxfOavKtgK+BoVfORexRGAL+ARr23yfuCfs4tooFnEJKQtgM1HZAaxnfasEX93NfAEMQdjFTER8wHgXuDuof9XNz7zV9X8I/AP2UWMVLUOwNuA/8guQqX5HPDu7CJqbAqwM7A/sB+xX8aOwE7EISVFWUacdvY7YvOc64dyA9FhqBobf1XRIDHJ+cfZhQyrUgdgP+KQH09VaocfE2v912YXUiNbAIcSy2KfT8wynptYz1rgVmKTrvOJfdDvSKwHbPxVbQ8BBxEja+mq0gHYGLiKuINR8/0KeAHwWHYhFTeTeJ2OHcreVOd7djx3AxcQjfBZxA+8stj4qw4uBV5IrBAQccJf9nINU07uJ55Na2xzgTcTE2EfJ//9mkzWAucBJxG7o/WTS/1MnfJJBMAJ5L8ZppysIXq+eroZwGuB7xIT8bLfp37lSuC9wCbFvGxPsvE3dcsgcdZJq+1KTDDKfjNMOXkfGmk34BRinXD2e1NmVgLfAY5m8o80PNXP1DWP0uLH3jOJ5/7Zb4IpJ99CEA3eMcRBR+50CTcB7yGWJnbLO39T91xDDQ4N6odPkf/im3JyPTHRs81mAH+Cd6vj5X7gA3R+6qeNv2lKTqVljsG7n7bkcWBP2msa8KfE8rjs96IOWQp8jFjyOB4bf9OkrAOOoiU2AxaT/6KbcvIu2mkKMZv/FvLfgzpmKfC3PHN41MbfNDG/o/jJsZX0n+S/2KacVPos7D46lNgcJ/v1b0J+C7yR6FC1rfEfJDpC2XWYcvJ1Slb2piLHEx0ANd/9xBa1D2YXUqJtgY8TJxtWfcOeurmM2COhLZv8rCe2yb6X2FBJ7XA88O3sIvphEfAw+b0s0/8M73ndFlOAE3FJqykmg8TKiGFfqkBNppwsof+bZpVuCrH3e/aLa8rJv9IeewIXkv+am2ZkkOhMjjQfuKsCtZly8jMaNoL4XvJfVFNO7qUdk1mG7/qfIP81N83I6Dv/kf4QV061KSfRELsQh75kv6CmnLyK5ltAPJfNfq1Nc7Khxn/YaRWo05STlcQJubU2jZi8k/1imnJyOs13DPAA+a+1aU7GGvYfy1xcQt2mXENsINY3U/v5yYG/Jw77UfMtA15Bc4/4nQKcDHwRdzVUcdYTj0hP6+DvriY6AK/va0WqioXAdODn2YX04tnEBZvdizLlpJM7mLqaB/wX+a+xaVY6vfMf7acVqN2Uk7XAc+mTfs00nEEMX7RlzW7b/RI4mNjSsmm2B84G9s0uRI2ynljn//kePnYP4Fe09BCZFvo18fN1TdGfuF+PAD4EvKFPn1vVczyx133T7E8Mv+2aXYgaZT2dD/uP5WHi9MQXFFaRqmwrYlLghdmFdGJPotjsoRNTTs6gmV5GHGSU/fqaZqXXYf/R5gB3VuDrMeVkBbA7FTeAm6K0Kato5t3xG3D+iik+nSz168YJFfiaTHm5gIpvEPRu8l8kU15OoXneRky8yX5tTbNS1J3/SAPE/Jvsr82Ul3dSUYvw5Ko2ZQnN2/HvncRExuzX1jQr/Wj8h72kAl+fKS9LiOWBhRgo6hMB/0LsWa12+D9Eh68pTiAmZRX5PSGtJyb89TLbvxPnUNN14urJJsBns4sY7TXk94xMeXmIWBvfFK8mlthkv66mWSn6mf94noPnBLQtr6Yi5gP3kP+CmPLyAZrjxcRkxuzX1DQr/Rz2H8uZffo6TDVzDxUZcfeAinblQWJP8ibYm3imlv2ammalrDv/kQ7EUYC25d9IdjhOmmpb3k8zLMIz1k3xKfvOf6SfdFijaUYGiTa4Z5NZUzgAXEX0PNUOjxFb49Z98t8cYr+Kg7ILUaOsp/ftfYtwJHBe0r+tHNcS2wQP9vLBk5nx/HZs/Nvmi9S/8Qf4f9j4q1jr6e9s/06cD1yS+O+rfAcCf1L2PzoXuJf8IRBTXtYCO1N/f0n+a2malYxn/uN5Bfmvhyk3v6fHVVm9jgB8iAI3I1AtnAn8NruISToMODW7CDXKemLY/1+zCxlyFnBTdhEq1QLg78r6x3bGw37amOdRb/OJEwuzX0fTnFTpzn+kk8h/bUy56elcll5GAE7Fc6jb5irgsuwiJulfgR2zi1BjrCee+Vflzn+k/wCeyC5CpZoBfKzbD+q2A3AIFdqBSKX59+wCJuktwJuzi1BjrKdaw/6jLQO+mV2ESvd6YlfIjnW7DPAHwHFdfozq7Qlizfyj2YX0aCFwA807uEg5hhv/zNn+nTgQuCa7CJXuv+jiJr2bEYD9gZd3XY7q7tvUt/GHOKTKxl9FGB72r3rjD7E+/NLsIlS6VwL7dfqXu+kAfJDJbRykevpCdgGTcBxxUJU0WVV+5j+eL2UXoNJNoYuzWjpt0HcnhlGn9lKRaus3wL7ZRfRoHrEcyuWqmqy6DPuPtglwHzAruxCVah2wJ3DbRH+x0xGAD2Dj30Z1nkjkXhUqygepX+MPsWvn2dlFqHRTgZM7+YuddAC2B06YVDmqq+9kF9CjXYi10FIR6rxt9NezC1CKtwLbTvSXOukAnAhMn3Q5qpur6WAIqaLcq0JFej2TPHUt0Y+Ah7OLUOlmAO+Y6C9N1AGYRsJBA6qEM7IL6NFhwKuyi1DjfIJ6ToJeDXw3uwileDsTPLqfqANwHLEGXO1zenYBPfrH7ALUSIcSIwF1VNfOvCZnW+AlG/oLE3UA3llcLaqRq4Hbs4vowVFDkfrhFGJotW4uoN57eah3J27of26oA7ADcEyxtagmfphdQI+8+1c/7URsK103q4EfZxehFC9hA5MBN9QBePsE/1/NdU52AT14AfH8X+qnk6nnz8WzsgtQig3O4xtvUssA8Ds6WEagxnkY2IrYTKJOvoeT/1SO11G/iXWbA/cTDYLa5U5gZ2JDq6cZryf7PGz82+pn1K/x3w14RXYRao2Ot1qtkIeBS7KLUIodgYPH+h/jdQA88re96vis8CTqOSyrejoYODq7iB78NLsApRmzTbcDoJHWAz/JLqJLG+FOlSrfe7IL6MH52QUozZiHoo3VAXgWsZWq2ucm4jlhnbwRmJ9dhFrnOOp31sSVwBPZRSjFHsDeo/9wrA6Ad//tVcdnhO5VoQzTiP3W62Q1cGl2EUrzjFGAsToAzqRur7r9cNibmLAqZXg79dse+PzsApTmGTf3ozsAOxCPANROdRsBeGN2AWq13YAXZhfRpfOzC1CaAxm1um90B+DI0kpR1TxMzAGok7ruza7mqNvOgFcBa7KLUIopjOqwju4A1K03q+JcwhgbRVTYs4C9sotQ672Kem2uswr4TXYRSnPEyP8Y3QE4ArXVNdkFdGnMZS1SybYAnp9dRJeuzi5AacYdAdgGl/+12a+zC+jSS7MLkIbUbeVU3Tr7Ks4ewKLh/xjZAXD4v92uyy6gC1sCB2UXIQ15NfVaDWAHoN0OH/7NyA6Aw//ttRz4bXYRXTgWt/5VdewA7J9dRBd+BazNLkJpnrzZH/lD1KNU2+s31OsAoBdlFyCNcmR2AV1YAdyWXYTSPDlnZbgDMIN4NqB2qtvz/xdkFyCNUrcR1FuzC1CavRhauTLcAdgTmJ5WjrLVaf3/IuJ4S6lKjqBe8wBuyS5AaWYCu8NTHYB982pRBdyRXUAXfFSlKtqCMQ5bqTBHANptX3iqA7BPYiHKd2d2AV04NLsAaRx1egxwc3YBSvW0DsB+iYUo353ZBXThgOwCpHE8O7uALjgC0G77gCMAgseIcwDqws6qqqpO1+a9wMrsIpRmP4gOwGycVNVmv8suoAuLiGetUhXtQ332p1gP3J9dhNLsDMwcILYArstFq+LdmV1AF+p0h6X22Yj4wVoX92UXoDRTgUXDHQC11wPZBXRht+wCpAnUaUWVHYB2WzQALMyuQqkeyS6gCztkFyBNoE5LAe/NLkCpFg0A22ZXoVQPZRfQhZ2yC5AmsF12AV1wBKDdtnEEQHUaAdgxuwBpAnV6pFqnx38qnnMAVKsRAK9VVV2drtFHswtQqkUDwNbZVShVnUYANssuQJpAnToAj2UXoFQLB4ilK2qvutwFzCVOrZSqbEvqc53aAWi3jYY3AlJ7rc4uoENuAKQ6GAA2zS6iQ3YA2m32ADAruwqlqksHYJPsAqQO1WVU1Q5Au812BEB16QDMzC5A6tCc7AI69ER2AUplB0B2AKSC1aUDMJhdgFLN8hGA6tIBqMvEKqkuHQC12+wBvLNquzXZBXTIDoDqoi4dgPXZBSjVrAFgXXYVSjUlu4AO1aWjIvkzVXWwdgBYmV2FUk3PLqBDy7MLkDq0KrsAqQMrBvAHa9vZAZCKVZd5NWq3lQPYW227adkFdGhFdgFSh+oyquoKsHZzBEC1mVzndaq6qMv6+rpsWKT+WOEcAM3NLqBD7lqmung4u4AObZxdgFKtGMCh1babn11Ah5ZgZ1XVN0hcq3XgCEC7rRigPr1V9ce87AI6tB64J7sIaQJLqM8yQEcA2u2hAeDe7CqUqk6H7NgBUNU9mF1AF+wAtNt9A/hDte3q8ggAvFZVfb/LLqALHrHdbvc4AqCtsgvogh0AVd0d2QV0YevsApTKDoBYmF1AF27PLkCawJ3ZBXTBDkC73WcHQHXqAFyXXYA0AUcAVBf3OgdAdeoAXI8nmKnafpNdQBfq9L2v4i0eAB4CHs2uRGnq9ENgGXB3dhHSOFYDt2QX0YU6zf9RsZYASwaIO6o69VpVrK2o14Yg12cXII3jBupzbPUM6tX5V7GuBxgY+R9qpSnAztlFdOFX2QVI46jTz9GdgKnZRSjN0zoAjgC02y7ZBXThkuwCpHFckV1AF3bLLkCpntYBcHZ1u9WpA3Ah9dlqVe1yUXYBXdg1uwCl8hGAnlSnu4Fl+BhA1fMY9bqRqlOnX8V7WgfggaGonfbNLqBLv8guQBrlcmBtdhFdcASgve4FHoGnOgAAV+XUogrYl5gMWBcXZBcgjXJedgFd2ie7AKV5sq0f2QHwrqq95gPbZxfRhfOJNddSVfw4u4AubAlsl12E0jzZ1tsB0LD9sgvowlLqd8el5rofuDa7iC4cmF2AUj05gjr6EcAT5deiinhWdgFd+l52AdKQn1CvLartALTXY8Avh/9jZAdgDa6xbrNDsgvo0g+AwewiJOJarBM7AO11MSMmqw6M+p8XlluLKuR52QV06T7gsuwi1HqPAedkF9Glg7ILUJqnTaAe3QE4v7w6VDFbUq8tgQHOyC5ArfcDYEV2EV3YHJcAttnT5vqN7gBcTmy0onaq2yjA13E1gHJ9J7uALh1OvZb8qjhLgCtH/sHoDsBq4OzSylHVHJZdQJceBL6fXYRa60HqtfwP4AXZBSjNDxl1WuXoDgA4u7rNjsouoAf/nl2AWuur1G8E6ojsApTmu6P/YKyhoDlEz3ZO38tRFW0L3JNdRBemALfi3uYq3z7ADdlFdGFjYhh4WnYhKt1yYp7X8pF/ONYIwHLgZ2VUpEqq2yjAeuDL2UWodS6iXo0/wPOx8W+rcxjV+MPYHQDwMUCb/UF2AT04DTexUrk+m11AD47OLkBpxmzTx5sNuglxOuD0vpWjqroP2IZ67WwG8CngfdmtSZciAAAXJ0lEQVRFqBXuAHanXqf/QYxY7JVdhEq3BlhAbKH+NOONACylfptbqBgLqedGIZ+kfhOyVE+fon6N/07Y+LfV9xmj8YfxOwAAn+9PLaqB47IL6MFiYl8AqZ8eAb6UXUQPXpZdgNKMu1JqQx2AHwN3F1+LaqCOHQCAjwPrsotQo51KPeebvDS7AKW4kw1M6t9QB2Ad8MWiq1EtHEgsB6ybW4D/yC5CjfUg9Zz8Nwc4MrsIpfh3NnBo2oY6ABAdAO+o2mcK8LrsInr0IeKAFqlopwCPZxfRg5cDs7OLUOnWMsES6Yk6AItxMmBbvTG7gB79nhimlYq0GPi37CJ6VNfvZU3O2cC9G/oLE3UAwMmAbXUIsGN2ET06lXrtZqjq+wD1OvVv2Dx8/t9WE7bdnXQAzqZ+O15p8qYAb8guokfLgX/KLkKNcSnwzewievQqYFZ2ESrd9XQwet9JB2CQePal9nlLdgE9WgC8N7sINcIgscFU3TbGGnZ8dgFK8TE6uGY7PRd6GnAzsPNkKlItPQe4KruILiwAziUOapEm63PAu7OL6NEWxDNgd3Rtl9uAPelgAn8nIwAQswk/MZmKVFt/ml1AFxYAP8fGX8W4j3j2X1dvw8a/jU6hw9V7nY4AAMwEbif2iVd7LAMWMcZJUhUz3Pjvm12IGuM11PtgNPf+b5+7gV3pcFv0TkcAAFbh8qo2mg+8NruICQwP+9v4qyjfod6N/5HY+LfRP9PFmSjdjAAAbETstraoy49TvV0GHJpdxDh85q+iLQaeRez7X1ffBN6UXYRKtZg4pbLj5ardjABA7IH9oS4/RvX3PGJfgKrxmb+KNkg8O69z47858fhC7fJ3dLlXRbcdAICvUq9Z4SrGX2QXMIrD/uqHTxDXVZ29nZizpfa4AvhGtx/U7SOAYYcCF0/i41U/a4gzxauww54T/tQP5wEvJlY91dV0YrL2dtmFqDTrgSOAi7r9wF5GACB2xjq9x49VPU0H/iy7CLzzV38sJp6Z17nxh9i8y8a/Xb5ND40/TO4OfjvgJuKoSbXDMuJ8gKVJ/753/uqHNcBRxKhmnU0BrsM5MW2ygljt8btePrjXEQCI9YafmsTHq37mk7crmnf+6of1wDupf+MP8BJs/Nvmk/TY+MPkn+HPBn5NbDygdniAmAtQ5sZA3vmrXz4KfCS7iIKcD7wwuwiV5g5gP2J1Xk8mMwIAMfzwbup7UIa6twB4R8n/nnf+6oevER2AJjgcG/82GR656rnxL9KXiYJMO3Iv5cz9WEAca5n99Zrm5UfADJrjfPJfU1NevkSFbAbcT/6LYsrLyfTXAmJCU/bXaZqXi4hdTZvixeS/pqa8PEic9Dhpk30EMOwR4sxstccHiI5fP/jMX/1yBTFZrhJDpwVpymMMdebPgYeK+ERFdQAAvgWcXeDnU7VtAvx1Hz6vz/zVL5cCxwCPZRdSoFcQW3WrHX5IHFRViKJ38tueeGY7t+DPq2p6AtiT2ESlCB7so345F3gl8Hh2IQWaClxLzARX8z1G/Gy8u6hPWOQIAMBdeFhQm2wEfLygz2Xjr345G3gZzWr8IWaB2/i3xwcpsPGH/uzlPwD8AjisD59b1bOeWH504SQ+h8/81S9fIpYqr8kupGCbEkezFzIZTJV3OdGmrivykxY9AgBxnOY7gFV9+NyqninA/6X3a8nGX/2wnpgc93aa1/hDbF5k498Oq4nruNDGH+IZUj88RKyxfWGfPr+qZSExNHVtlx/nhD/1w3Lgj4D/l11In+wFfJH+/fxWtXwUOKMfn7ifx/nOBK7GZ7pt8TCwN7FVcCd85q9+uA14LbFFeVP9hFj7r+a7ghj678splf14BDBsFXACMXyh5tucOJiiE8PD/jb+KtKPgOfS7Mb/zdj4t8Vy4K308Yjqfg8h3U8Uf3Sf/x1Vw/7EWuvbN/B3HPZX0VYTG1P9BXE+SVNtAZxFs3Yx1Pj+Cjgnu4jJmkqsCsjePtGUk9sZ/weUe/ubonMjcCDt8A3yX29TTn5Cfx/Rl2onYBn5L6opJ2NNvrLxN0VmHfBZyjmUqgpeTv5rbsrJI8A2NMwfk//CmnIySOy3PsyDfUyRuQU4ivaYR2yylv26m3JyPA11Bvkvrikni4nNStp25z9YgRqamhXA/6RZx/h24j/If+1NOfkWDbYFcZZ89otsysn3aF/jfyLwB8A1FainSfkOsCPt8ybyX3tTTu6hfyesVsaxeJdkmpfhxn/YAPA2YoOk7NrqnKtp74ZiOwFLyX8PTP8zSJxU2Qr/Qv4LbkxRGd34jzQH+Hv8Qd5trgNeQ4NmQndpGnAx+e+DKSdN3bVyTHOI5TvZL7oxk82GGv+R5gEnE3tjZNdc5VxHDHv3c5OyOvhf5L8XppzcRAv3djiY2MAj+8U3ptd02viPNAv4M+C3Fai/Svk5sXKkrXf8I72I2EAt+z0x/c8K4ABa6q/IfwOM6SW9NP4jTQNeTZxV39Yf9o8CXwAOmsTr2DQ7EYepZb83ppz8OS02Bfgu+W+CMd1kso3/aNsRy9vurMDXVkYuJY4M37iA165J5gC/JP/9MeXkTMR84Fby3wxjOknRjf9IA8QSwn8h9lHI/lqLzDXEfv07F/ZqNc9/kv8+mXLyO2KfFBF7ea8g/00xZkPpZ+M/2hTgEODjwM19/Jr6lRXEfubvA3Yr+LVpor8h/z0z5WQNccSvRjiR/DfGmPFSZuM/lm2AtwCfo5oraFYAFwKnEJP52rJHfxGOo73zQNqYD1ARVZtx+1Xgj7KLkEZZD7wb+Hx2ISNsRYwQ7Escw7wvsDswvYR/+3Fih8dfE8v2riE27FlVwr/dNM8FzsMOU1ucBbyS+JmSrmodgI2AK4C9swuRhlSx8R/PDGBPYAdixGARMcFwIdFhmEcsQ5w99PupIz52DdGwrwYeHpGHiN0M7wTuGMo9VOQHWM3tQkyI3DK7EJXiDuDZwJLsQoZVrQMA0fhfjjOEla9OjX8vBoayNruQFtqS2OnP+RHtsIp47n91diEjVXG3rRuIH7pSpqY3/hDzGmz8yzcH+AE2/m3yPirW+FfdaeRP1jDtzCDwHqTizQR+RP41bsrLN1HXZhE9puw3z7Qr2bP91VwzgXPIv8ZNefklLdznvyiLeGrCkTH9jnf+6pfpwPfJv8ZNeXmYmOipSTgUWEn+m2maHRt/9ctU4FvkX+OmvKwFjkWFeBv5b6hpbhz2V7/MAM4g/xo35eZvUKE+Qf6bapoX7/zVLxvhM/825huocAPE0pnsN9c0Jzb+6pdNiXX+2de4KTe/xF0d+2YesQVp9pts6h+H/dUvi4gtkrOvcVNu7id24VQf7UxsT5r9Zpv6xsZf/bIr8Fvyr3FTblYAz0eleAGxtWL2m27qF4f91S+HAb8n/xo35f9M8RC7kv0p+W+8qVds/NUvb8ebkrbmn1CKz5L/5pt6xMZf/TAVOIX869vk5EyqeaZOK0zDZTZm4vjMX/0wDzib/Ovb5OQa3OY33cbAleRfDKaasfFXP+wP3Ez+9W1ychewDaqELYCbyL8oTLXisL/64a3AE+Rf3yYny4gOoCpkZ+A+8i8OU43Y+Ktos4EvkH9tm7ysBo5GlXQQ8Cj5F4nJz7uQirMPcAP517XJyyDwFhqkabMXrwFeSSzHUbu9Dtg2uwjV3hRiDsnlwF7JtSjX3+E+/7VwPLCO/B6jyc1SnACo3u0InEv+dWzy8zlUK39N/kVjqpHTgS2ROjN81+/jRLMe+C6x34Nq5pPkXzymGnmE+KE+BWl8uwL/Tf71aqqRc4FZqJamAF8h/yIy1ckFwJ5ITzcdOBlYSf41aqqRK4C5qNZmAD8l/2Iy1ckK4B+IZV3Si4Ebyb8uTXVyI7G/jBpgDk7mMc/MYmJTFx8LtNNuwHfIvw5NtXI3sANqlI2Bi8m/uEz1cgFwIGqLTYBT8fQ+88w8gI8IG2sesZ43+yIz1cs64JvEJDA10xzg/cDD5F9vpnpZQmwmpwabj4cHmfGzGvgqsQZczTCdWAFyD/nXl6lmlgGHoFbYHPgV+RedqW6WA58BtkN1NZPYEvp28q8nU908DhyOWmVL4HryLz5T7QyPCPhcsD42Bk4iJnNlXz+m2lkO/AFqpa3xGGHTWdYSM8YPQ1W1DfC/8Rm/6SwriSWgarFtgNvIvxhNfXIN8UzZfQSq4dnEKM1q8q8NU4+sBo5DArYH7iD/ojT1yv3AKcDuqGzzgXcDV5F/HZh6ZRVxaqz0pJ2AO8m/OE39Mgj8AngbsBHqlynAkcTd/nLy33dTv6wAXooAd0AbbSHwM2Cf7EJUWyuAnxON1A+Iuw1Nzj7A64G34D4N6t0K4FXE1vDCDsBYtgJ+AjwruxDV3hLge8RxoucSk440sSnEzoyvBt6Aj1g0eU8Qz/zPyy6kSuwAjG0T4Gzg+dmFqDFWEFtR/xA4g9iURk+ZTaywOA54DbBtbjlqEBv/cdgBGN/GwPdxjaiKtx64jhgVOJeYP7AstaLyTQeeS3x/HQUciueuq3jLgJcAl2YXUkV2ADZsFrH22+Ui6qd1wNXED6nLgcuIVSlNsjmx1epzgecRd/sbp1akpnuQaPyvzi6kquwATGw6MaHr+OxC1CoPEGdW/Hoo1wE3ExsSVd2OwL5DeRaxTn+3zILUOncRm/zcnF1IldkB6MwAcBrwzuxC1GqriR9ot4/KXcScgsdKqmMmsYvmDsAuwM5D2YXYMnl+SXVIY7mRaPwXZxdSdXYAOjeFOEP8f2QXIo3jCaIj8PuhLAMeHfHrE0N/71HiscNo84nO7izi6Ox5Q3+2CTGEvzWxVHazvn0F0uRcAbwMeCi7kDqwA9C9k4nd3yRJ1XEesc7/0exC6mJqdgE1dDHxfPZY4m5JkpTrDOC1xA6R6pAjAL17MXA6MUwqScrxeeDPqccE2UrxDrZ3PwVegBNNJCnDeuCjwLuw8e+JIwCTtw2xu9sB2YVIUkusIg7f+nZ2IXVmB6AYc4kNg47NLkSSGu5hYrLfRdmF1J2TAIuxmuiJbk1seiJJKt7txPbR12YX0gR2AIozSBwgNAU4AkdXJKlIFwFH47yrwtgBKN75wJ3AS/H1laQifBN4Pa7xL5SrAPrjK8QhFEuzC5GkGlsHfAB4C3GktgpkB6B/riKeV0mSureEGEn9eHYhTTUtu4CGmgf8BCcESlIvbgVeAdyUXUiTOQJQvOHG/3nZhUhSDf0YeC42/n1nB6BY84iL18ZfkrqznhjufznOnyqFS9WK452/JPXmUeDtxKE+KokdgGLY+EtSb35JLPG7LbuQtvERwOTZ+EtSb74GHIaNfwo7AJNj4y9J3VsJvA94K7A8uZbW8hFA72z8Jal7dxFD/ldkF9J2jgD0xtn+ktS9bwHPwsa/EuwAdG/4zv/Q7EIkqSYeA94FvAmX+FWGjwC647C/JHXnSmIv/1uzC9HTOQLQORt/SerceuAzwOHY+FeSIwCdsfGXpM7dTczwPz+5Dm2AIwATc8KfJHXuO8AB2PhXniMAG+advyR15kHgPbidb204AjA+G39J6szpwD7Y+NeKHYCx2fhL0sSWEMv73kCMAKhGfATwTDb+kjSxHxKN/73Zhag3jgA8nRP+JGnDHgSOB47Dxr/W7AA8xR3+JGl864nT+/YBvp1ciwrgI4DgsL8kje8W4M+Ac7MLUXEcAbDxl6TxrAA+CuyHjX/jtH0EwMZfksZ2NvBe4M7kOtQnbR4BaOOEv8HsAiRV3mLgtcDLsfFvtLZ2ANo44e/DwL5Ep0eSRlsOfBzYGzgzuRapL+YBlxIzWtuSvx/1GhwH3FaBuowx+Rkk9u/fEanBbPyfMh04CVhagRqNMTm5AjgMqeFs/Me2OfBpYG0F6jXGlJPFxHG9bZ8IrhaYB1xC/jddmflgl6/Rs4AfVaBuY0z/soyYDzQHqQW88+/OocB5FfgajDHFZRXwOWArpJaw8e/d0cDVFfh6jDG9ZzXR8C9CahEb/8mbArye2AY0+2szxnSedcTM/l2RWsZn/sWaDrwTuL0CX6cxZvwMAqcDeyG1kI1//0wjZg7fWMLXZIzpPGuBbwEHILWUw/7lGCA2E7qyh3qNMcVlFfBVYE+kFrPxz3E07XvdjcnO48T+HdsitZzD/vn+kDg9bJD818aYpuYh4CPEBl5S69n4V8uewGnEwSLZr5MxTcltwPuAjZEEOOxfZfOJswbuJv81M6auuYhYijsVSU/yzr8eZhArB64i//Uzpg55FPgssAeSnsE7/3p6NrEr2WPkv57GVC23AicDmyJpTN7519884D3AL8l/bY3JzCpi455j8GQ+aYNs/JvnecCXcdKgaVeuBf4S2AJJE3LYv9nmEXMFziJ2Nct+7Y0pOkuIR2CHI6ljNv7tsi2xgsBHBKbuWQf8jOjczkFSVxz2b7fnAJ8BHiD/fTGmk6wDLgDeCyxEUk+889ewqcTQ6aeBe8h/n4wZmXXEmv2TgEVImhQbf41ngOgMnELskJb9vpl2xkZf6gOH/dWpKcRKgk/gMcWm/3kc+AHwbmBrJBXKO39Nxk7AicB3cMMhU0xuJ2bvHwfMQlJf2PirSLOJ44pPAW4i/7029chyYub+ycBeSA1VpZ2n5gE/Bg7NLqREHwI+ll1Ei+wOHAUcORSHcAWwBrgSuBA4n5jBvyKzIKkMVekAzAN+QjzLbYsPA/+UXUTL7UyMEBxOdAy2zS1HJVlO7MR3EXAx0eA/mlqRlKAKHQDv/FUFU4C9iU7oocAhQ/89kFmUCrGEmFR84VCuJO76pVbL7gB4568q2xg4gDjF8DDgCGCr1Io0kWXA9cDVI3IjMJhZlFRFmR0AG3/V0SJiZGAfomPwbOLc9qmZRbXUEuAGnt7Y30BM5JM0gawOgMP+apI5RIfgAGA/okOwO7A9PkKYrDXAHcQqjpuBW4ZyE7E9tKQeZXQAbPzVFjOB3YjOwPCvuxOTD7fGzsGwlcT2zouBW4kG/maikb8Dn9dLfVF2B8DGXwrTgW2IlQfbD/26LbDD0K9bAZtT/41nHgPuJhr4e4G7hn5/z9Cf3ws8mFad1GJldgDmAOcQE6nawsZfk7UxsAWwYOjX4WxOdKhnD/260Yjfbzz0+7mjPtd8xh91WEUsjwNYDTwx9Ps1xPa3EHvfP0pMtFsCLB3x69Jx/mxl11+xpEYZAM4if4evMuPe/pKk1vsw+Q1ymXF7X0lS6x0MrCW/UfbOX5KkkkwFriK/UbbxlySpRG8hv1EuKw77S5JErDC4nvyG2Tt/SZJK9ELyG2bv/CVJKtm/k984e+cvSVKJphA7fGU30N75S5JUor3Jb6C985ckqWQnkN9Ie+cvSdI4pvXp8+7Zp8+bzb39JUmN0K/jSBf26fNm+jA2/pIkbdAZ5A/V+8xfkqRx9GsEoMxjhvvNO39JUuP0aw5AU84A95m/JKmR+jUC8Ps+fd4yeecvSVKX/oL85/Y+85ckqWRHkN+I9xrX+UuS1KPZwGryG3Pv/CVJKtlPyG/QvfOXJKlk7yC/UffOX5Kkks0FlpLfuHvnL0lSyU4lv4H3zl+SpJJtBjxMfkPvnb8kSSV7H/mNvXf+kiSVbAD4OfmNvnf+kiSVbFvgXvIbf+/8JUkq2UHAY3jnL0lS6xxO+UsDB4H3l/HFSZKk8R0I3EU5jf9K4M3lfFmSJGkiWwBn09/G/0bisYMkSaqYN1H85MAngP8FzCnx65AkSV2aA5wE/I7JNfzLgP9DrDiQJEk1MQD8IXAacBudNfoPAGcQIwlzyy9ZkqR6mpJdwAZsBewD7ARsCswGVhNLCe8EbiE6CpIkSZIkSZIkSZIkSZIkSZIkSZIkSZIkSZIkSZIkSZIkSZIkSZIkSZIkSZIkSZIkSZIkSZIkSZIkSZIkSZIkSZKktvr//TVBZQaWCcgAAAAASUVORK5CYII=;" parent="1" vertex="1">
          <mxGeometry x="-520" y="680" width="40" height="40" as="geometry" />
        </mxCell>
        <mxCell id="He7p6NDhDGaTkKvORS2x-9" value="關閉" style="text;html=1;align=center;verticalAlign=middle;whiteSpace=wrap;rounded=0;strokeColor=default;aspect=fixed;" parent="1" vertex="1">
          <mxGeometry x="-470" y="740" width="40" height="40" as="geometry" />
        </mxCell>
        <mxCell id="He7p6NDhDGaTkKvORS2x-10" value="隱藏" style="text;html=1;align=center;verticalAlign=middle;whiteSpace=wrap;rounded=0;strokeColor=default;aspect=fixed;" parent="1" vertex="1">
          <mxGeometry x="-520" y="740" width="40" height="40" as="geometry" />
        </mxCell>
        <mxCell id="He7p6NDhDGaTkKvORS2x-11" value="縮小" style="text;html=1;align=center;verticalAlign=middle;whiteSpace=wrap;rounded=0;strokeColor=default;aspect=fixed;" parent="1" vertex="1">
          <mxGeometry x="-570" y="740" width="40" height="40" as="geometry" />
        </mxCell>
        <mxCell id="He7p6NDhDGaTkKvORS2x-12" value="" style="shape=image;verticalLabelPosition=bottom;labelBackgroundColor=default;verticalAlign=top;aspect=fixed;imageAspect=0;image=data:image/png,iVBORw0KGgoAAAANSUhEUgAAAgAAAAIACAYAAAD0eNT6AAAACXBIWXMAAA7DAAAOwwHHb6hkAAAAGXRFWHRTb2Z0d2FyZQB3d3cuaW5rc2NhcGUub3Jnm+48GgAACKZJREFUeJzt3c2vXVUdx+HPPYSq4b2BOjGRiBShEEXDAAjVgThg4ks0ERLFgECi8eVvcGR8Q2VkVARjauIEE3QijCA6UIkitKEkVJ1pA6VYEkUidbDb9HC5be899559yr3PMzrZZ++1v7P1O2uts1YBAAAAAAAAAAAAAAAAAAAAAAAAAAAAAAAAAAAAAAAAAAAAAAAAAAAAAAAAAAAAAAAAAAAAAAAAAAAAAAAAAAAAAAAAAAAAAAAAAAAAAAAAAAAAAAAAAAAAAAAAAAAAAAAAAAAAAAAAAAAAAAAAAAAAAAAAAAAAAAAAAAAAAAAAAAAAAAAAAAAAAAAAAAAAAAAAAAAAAAAAAAAAAAAAAAAAAAAAAAAAAAAAAAAAAAAAAAAAAAAAAAAAAAAAAAAAAAAAAAAAAAAAAAAAAAAAAAAAAAAAAAAAAAAAAAAAAAAAAAAAAAAAAAAAAAAAAAAAAAAAAAAAAAAAAAAAAAAAAAAAAAAAAAAAAAAAAAAAAAAAAAAAAAAAAAAAAAAAAAAAAAAAAAAAAAAAAAAAAAAAAAAAAAAAAAAAAAAAAAAAAAAAAAAAAAAAAAAAAAAAAAAAAAAAAAAAAAAAAAAAAAAAAAAAAAAAAAAAAAAAAAAAAAAAAAAAAAAAAAAAAAAAAAAAAAAAAAAAAAAAAAAAAAAAAAAAAAAAAAAAAAAAAAAAAAAAAAAAAAAAAAAAAAAAAAAAAAAAAAAAAAAAAAAAAADA1rU0wjt2VLurXdV7qp3VRdWF1bnV2SNkAIAzzavVy9Xh6sVqf/VMtbd6vDo4z5fPqwC4rrq1urmh4x+j0ACAzeJoQyHwm+rn1R83+gUb2TGfX91d3VFduYHtAsBWt6/6SfWD6shGNLgRBcD26ivVlxqG9gGA+Xix+n71vWOfZ7aeAmCp+kz1reqS9YQAANbkUPW16r7qtVkamLUAeHf1YHXDjM8DAOv32+r26rm1PjiZ4WUfr/6Qzh8AFu3G6k/Vp9f64FlruHdSfae6t3rrWl8EAMzFW6pPNizGf7ThHwSntdoCYFv10+qumaIBAPN2fXV59XCrWBewmjUA26qHqlvWlwsAGMGvG6brXz3VTacbAViq7m8YWgAAznw7GxbrP9QppgNOVwDcW92zgaEAgPm7pjqneuRkN5yqAPhU9e2NTgQAjOKG6tnq6ZW+PNkagMuqJ6oL5hQKAJi/l6r3VweWf7HSPgBLDSv+df4A8OZ2QfVAK/zgX6kAuDOb/ADAZnFT9dnlF5dXBNsbziO+eIxEAMAoDlZXVIePX1g+AvDVdP4AsNnsqL48fWF6BOD86m850hcANqND1aXVkXr9CMDd6fwBYLPa3tSW/tMjAE9VV48eBwAYy75qV50YAbgunT8AbHZXVdfWiQLg1sVlAQBGdFudKAA+ssAgAMB4PlzDGoAd1T9a3dHAAMCb29Fqx6Tanc4fALaKpWr3JIv/AGCr2TVp2BoQANg6rphUly86BQAwqp2T7P0PAFvNxZPqvEWnAABGdd5S9Uq1bdFJAIDRvLL8OGAAYAuYVC8vOgQAMKojk46dCwwAbBlHJtXzi04BAIzq+Un17KJTAACj2j+p9i86BQAwqv2T6ulFpwAARrXXccAAsLW8Vr19Uh2s9i44DAAwjic7tgiw6pFFJgEARvNoDRsBVe1ZYBAAYDx76vXz/k9VVy8mCwAwgn3VrjoxAlD14GKyAAAj+fHxD9MjAOdVf68uGj0OADBvh6pLO3YEwPQIwJHqvgUEAgDm77tNnf+z/L//FzXsDHjJmIkAgLn6Z3VF9dLxC2ctu+E/1QvVR0cMBQDM1xeq309fWGn3v6Xq8erGMRIBAHP1WPWh6uj0xZNt/3tZ9UR1wXwzAQBzdLj6QHVg+ReTN95b1XPV5+eZCACYuztbofOvN64BmLavOr+6fh6JAIC5+kan+HffqQqAGs4IeGf1vo1MBADM1Z7qiy2b95+2miOAz65+Wd2yQaEAgPn5VfWJ6tVT3XS6EYAazg3+RfWO6tr15wIA5uRn1W2dpvOv1RUANRQBD1fnVDfMngsAmIOj1Tcbhv3/t5oHVjMFsNzHqvtzZgAAnAn+Vd3VMFq/arMUAFXvqh6obprxeQBg/R6rPlf9da0PnmwfgNM5UH2wur06OGMbAMBsDlX3NOzwt+bOv1a/BuBknqx+VP27em/1tnW2BwCc3AvV1xsW+v1uPQ3NOgWwknOru6s7ql0b2C4AbHVPN6y/+2H18kY0uJEFwLRrG6qTm6trmn2qAQC2oteqvzRsyLen+vNGv2BeBcC0i6vd1VXVldXOant1YcOowbYRMgDAmea/Db/mDzfM6e+vnqn2NpzK+/ziogEAAAAAAAAAAAAAAAAAAAAAAAAAAAAAAAAAAAAAAAAAAAAAAAAAAAAAAAAAAAAAAAAAAAAAAAAAAAAAAAAAAAAAAAAAAAAAAAAAAAAAAAAAAAAAAAAAAAAAAAAAAAAAAAAAAAAAAAAAAAAAAAAAAAAAAAAAAAAAAAAAAAAAAAAAAAAAAAAAAAAAAAAAAAAAAAAAAAAAAAAAAAAAAAAAAAAAAAAAAAAAAAAAAAAAAAAAAAAAAAAAAAAAAAAAAAAAAAAAAAAAAAAAAAAAAAAAAAAAAAAAAAAAAAAAAAAAAAAAAAAAAAAAAAAAAAAAAAAAAAAAAAAAAAAAAAAAAAAAAAAAAAAAAAAAAAAAAAAAAAAAAAAAAAAAAAAAAAAAAAAAAAAAAAAAAAAAAAAAAAAAAAAAAAAAAAAAAAAAAAAAAAAAAAAAAAAAAAAAAAAAAAAAAAAAAAAAAAAAAAAAAAAAAAAAAAAAAAAAAAAAAAAAAAAAAAAAAAAAAAAAAAAAAAAAAAAAAAAAAAAAAAAAAAAAAAAAAAAAAAAAAAAAAAAAAAAAAAAAAAAAAAAAAAAAAAAAAAAAAAAAAAAAAAAAAMDm9n8X6KbhOwZsUwAAAABJRU5ErkJggg==;" parent="1" vertex="1">
          <mxGeometry x="-570" y="680" width="40" height="40" as="geometry" />
        </mxCell>
        <mxCell id="He7p6NDhDGaTkKvORS2x-13" value="" style="shape=image;verticalLabelPosition=bottom;labelBackgroundColor=default;verticalAlign=top;aspect=fixed;imageAspect=0;image=data:image/png,iVBORw0KGgoAAAANSUhEUgAAAgAAAAIACAYAAAD0eNT6AAAACXBIWXMAAA7DAAAOwwHHb6hkAAAAGXRFWHRTb2Z0d2FyZQB3d3cuaW5rc2NhcGUub3Jnm+48GgAAHWNJREFUeJzt3c2vredZHvDrbMixj2zHDjjOqIgkNkPyRUeFjEBiQAVpoEpAoqW0nZLAXwAEJBIgTDqoWoRa1DABBZIUfGImUZ00w4TYMakzppjYTtIYJanU4w7WXj77nLM/1sf73u/zPO/vJ12iSSv6rrWe977uvdZZe1/L/N6Y5EeTvD3JE0keP/3vHk7y4On/m1eSfDPJi0meP80Xkjyd5GsF1wgAU3sst/vv8Ww68NGc339fy73992Lx9U7inUl+N8kzSW4lefXA3Ery7On/rneWPgIA2N+PJPm9bLrr2P57JsmHk7yj9BEc4MEkH0zyXA5/wFflb5P8apKHih4TAFzloSS/luQrma//nkvygdx+56AJjyT5UJKXM98Dvzsvn/7/+UjB4wOA87whyW8n+Xrq+u+lJL+RzccIi7mW5BeT/H3qHvh5T8SvJPmemR8rAGxt+++FLNd/L2bTfyczP9Z7vDnJZ4+48KnzuSRvmfURA0Dy1iSfz/K9t83TSX5wzgd81r9I7dv9u+b/JPmFGR83AOv2s6l9u3/XfDPJ+2d83LmWzb/GX/qBXpXfzwJviQAwrJMkf5Dl++2qfDibrp7U9yb5wwYe3K750yT3T/0kALA615N8LMv32q754ySvm+rBvy7Jpxp4UPvmZpIbUz0JAKzOjWy6ZOk+2zefygRLwLUkf9TAgzk0n0nywLFPAgCrcyPJU1m+xw7Nx3Lkx+E9fOZ/VZ6KdwIA2F3v5b/NRw59An62gYufKt4JAGAXo5T/Nnt/O+AH0uZX/SwBAMxltPJ/Nck3svndPTs5SVu/5GfK+DgAgPOMWP7bfDY7/nuAf9PAxc4Z7wQAcNbI5b/Nv77qSXh9kr9r4EItAQBUWEP5v5rN3y249A/ofaiBi6yKjwMA1m0t5b/Nb170RDyQzV8XWvoCK+OdAIB1Wlv5v5rNP+5/6Lwn44MNXNwS8U4AwLqssfy3+eB5T8iXG7iwpeKdAIB1WHP5v5rkubufkHc1cFFLxxIAMLa1l/8270xufy/wfQc/neN4d5I/j48DAEZ0I8knkvz40hfSgDt+O+CzWX4jaSXeCQAYi5/878yXtk/Mo0luNXBBLcUSADAG5X9vbiV57CTJj2XzZ3+5zccBAP3ztv/5riX5ZydJ3r70lTTqx5M8Ge8EAPRI+V/ubSdJnlj6Khr27iR/GUsAQE+U/9UeP0ny+NJX0bh3J/l4fBwA0IMbSf4iyv8qT5wkedPSV9GBn4iPAwBat/3J/yeWvpAOvOkkyYNLX0UnfBwA0C5v++/nwST5bpb/SkJP8RVBgLb4qt/++c5JfAVwX94JAGiHn/wPc+0kyStLX0WHLAEAy1P+h/vWSZJvLX0VnbIEACxH+R/nlZMkLyx9FR3zFUGAer7qd7x/OEny1aWvonO+IghQx1f9pvG/TpI8v/RVDMDHAQDz87b/dL56kuSLS1/FIHwcADAfb/tP628Sfw546vg9AQDT8j3/aXMryWPbJ/fZBi5opFgCAKah/KfPl5Lk5PQJ/qvdXgd25OMAgON5238eT579D+/K8hvJiPFOAMBh/OQ/X95x95P95QYuasRYAgD2o/zny3PbJ3n7EUCS/OfLXg0O5uMAgN15239e/+m8//KBJC9m+e1k1HgnAOByfvKfNy8neWj7ZJ99B+Afk/zHC18WjuWdAICL+cl/fv8hl/z9n9cn+d9ZfksZOd4JALiTn/znzwtJHrnqhfjlBi509FgCADaUf01+aZcX4yTJ5xq42NHz6fg4AFi3G9nMwqXn8ej5XO78yP9Sb0nyjQYuevR4JwBYKz/51+RbSX5ox9fkNT/XwIWvId4JANbmviSfyvLzdw35+R1fk3t8tIGLX0MsAcBaeNu/Lr+342tyrmtJ/ksDD2INsQQAo/OTf13+JHt87n+R60luNvBg1hBLADAqP/nX5WY23T0J/1ijLpYAYDR+8q/LLP+43BJQF0sAMArlX5dZv1lmCaiLJQDonfKvS8nXyi0BdbEEAL1S/nUp/Z0yloC6WAKA3ij/uizyC+UsAXWxBAC9UP51WfS3yVoC6mIJAFqn/OvSxK+StwTUxRIAtEr516WJ8t/ywtfFEgC0RgesvAMcgJUfAGCVzH6zP4mD4CAAa2Lmm/l3cCAcCGB8Zr1Zfy4Hw8EAxmXGm/GXckAcEGA8ZrvZvhMHxUEBxmGmm+l7cWAcGKB/ZrlZfhAHx8EB+mWGm+FHcYAcIKA/ZrfZPQkHyUEC+mFmm9mTcqAcKKB9ZrVZPQsHy8EC2mVGm9GzcsAcMKA9ZrPZXMJBc9CAdpjJZnIpB86BA5ZnFpvFi3DwHDxgOWawGbwoB9ABBOqZvWZvExxEBxGoY+aauU1xIB1IYH5mrVnbJAfTwQTmY8aasU1zQB1QYHpmq9naBQfVQQWmY6aaqV1xYB1Y4HhmqVnaJQfXwQUOZ4aaoV1zgB1gYH9mp9k5BAfZQQZ2Z2aamUNxoB1o4GpmpVk5JAfbwQYuZkaakUNzwB1w4F5mo9m4Cg66gw7cZiaaiaviwDvwgFloFq6Ug+/gw5qZgWbgqrkB3ACwRmaf2UfcCG4EWBczz8zjDDeEGwLWwKwz6ziHG8ONASMz48w4LuEGcYPAiMw2s40duFHcKDASM81MYw9uGDcMjMAsM8s4gBvHjQM9M8PMMI7gBnIDQY/MLrOLCbiR3EjQEzPLzGJCbig3FPTArDKrmIEby40FLTOjzChm5AZzg0GLzCaziQJuNDcatMRMMpMo5IZzw0ELzCKziAW48dx4sCQzyAxiQW5ANyAswewxe2iAG9GNCJXMHDOHhrgh3ZBQwawxa2iQG9ONCXMyY8wYGuYGdYPCHMwWs4UOuFHdqDAlM8VMoSNuWDcsTMEsMUvokBvXjQvHMEPMEDrmBnYDwyHMDrODAbiR3ciwDzPDzGAgbmg3NOzCrDArGJAb240NlzEjzAgG5gZ3g8N5zAazgRVwo7vR4SwzwUxgRdzwbnhIzAKzgFVy49flZtz4tOe+JJ/M8vfHGqL8aY4loC6WAFqi/Oui/GmWJaAulgBaoPzrovxpniWgLpYAlqT866L86YYloC6WAJag/Oui/OmOJaAulgAqKf+6KH+6ZQmoiyWACsq/Lsqf7lkC6mIJYE7Kvy7Kn2FYAupiCWAOyr8uyp/hWALqYglgSsq/LsqfYVkC6mIJYArKvy7Kn+EZKHWxBHAM96p7FSZnsBgstM096h6F2RgwBgxtcm+6N2F2Bo1BQ1vck+5JKGPgGDi0wb3oXoRyBo/Bw7Lcg+5BWIwBZACxDPeeew8WZxAZRNRyz7nnoBkGkoFEDfeaew2aYzAZTMzLPeYeg2YZUAYU83BvubegeQaVQcW03FPuKeiGgWVgMQ33knsJumNwGVwcxz3kHoJuGWAGGIdx77h3oHsGmUHGftwz7hkYhoFmoLEb94p7BYZjsBlsXM494h6BYRlwBhznc2+4N2B4Bp1Bx53cE+4JWA0Dz8Bjw73gXoDVMfgMvrVzD7gHYLUMQANwra7H2Xf2YeUsAQbh2ih/Zx44ZQkwENdC+TvrwF0sAQbj6JS/Mw5cwBJgQI5K+TvbwBUsAQblaJS/Mw3syBJgYI5C+TvLwJ4sAQZn75S/MwwcyBJggPZK+Tu7wJEsAQZpb5S/MwtMxBJgoPZC+TurwMQsAQZr65S/MwrMxBJgwLZK+TubwMwMWoO2Nc6kMwkUMXAN3FY4i84iUMzgNXiX5gw6g8BCDGADeCnOnrMHLMwgNoirOXPOHNAIA9lAruKsOWtAYwxmg3luzpgzBjTKgDag5+JsOVtA4wxqg3pqzpQzBXTCwDawp+IsOUtAZwxug/tYzpAzBHTKADfAD+XsODtA5wxyg3xfzowzAwzCQDfQd+WsOCvAYAx2g/0qzogzAgzKgDfgL+JsOBvA4Ax6g/5uzoQzAayEgW/gbzkLzgKwMga/we8MOAPASimA9RaA1369rz1AEkVQXQT37/ayzMprXvuaK3+gWQqhthCWXAK81rWvtfIHmqcYaothiSXAa1z7Git/oBsKorYgKpcAr23ta6v8ge4oitqiqFgCvKa1r6nyB7qlMGoLY84lwGtZ+1oqf6B7iqO2OOZYAryGta+h8geGoUBqC2TKJcBrV/vaKX9gOIqktkimWAK8ZrWvmfIHhqVQagvlmCXAa1X7Wil/YHiKpbZYDlkCvEa1r5HyB1ZDwdQWzD5LgNem9rVR/sDqKJraotllCfCa1L4myh9YLYVTWziXLQFei3ZeC4BVUDzLF4/XYPnXAGCVFNByBeS5X+65ByCKaIki8pzXP+fQhGtLXwDc5f4kH0/yk0tfyAo8efo/PdfzezLJe5J8Z+kLgS0LAC26nuTPkvzU0hcCE/h0kp+O8qcxFgBaZQlgBMqfZlkAaJklgJ4pf5pmAaB1lgB6pPxpngWAHlgC6InypwsWAHphCaAHyp9uWADoiSWAlil/umIBoDeWAFqk/OmOBYAeWQJoifIHKORX2EoL8et9ARZgCZAlo/wBFmQJkCWi/AEaYAmQyih/gIZYAqQiyh+gQZYAmTPKH6BhlgCZI8ofoAOWAJkyyh+gI5YAmSLKH6BDlgA5JsofoGOWADkkyh9gAJYA2SfKH2AglgDZJcofYECWALksyh9gYJYAOS/KH2AFLAFyNsofYEUsAaL8AVbKErDuKH+AFbMErDPKH4BcT/KJLF9KUpMno/wBOGUJWEeUPwD3sASMHeUPwIUsAWNG+QNwJUvAWFH+AOzMEjBGlD8Ae7ME9B3lD8DBLAF9RvkDcDRLQF9R/gBMxhLQR5Q/AJOzBLQd5Q/AbCwBbUb5AzA7S0BbUf4AlLEEtBHlD0A5S4DyB2ClLAHKH4CVsgQof+jOydIXAIO4tvQFrIjnGoDFXU/yySz/U/HacjPeBQBgIcrfEgDAyij/NmIJAKCM8m8rlgAAZqf824wlAIDZKP+2YwkAYHLKv49YAgCYjPLvK5YAAI6m/PuMJQCAgyn/vmMJAGBvyn+MWAIA2JnyHyuWAACupPzHjCUAgAsp/7FjCQDgHsp/HbEEAPAa5b+u3ExyIwCsmvJfZywBACum/NcdSwDACil/sQQArIzyl7OxBACsgPKX82IJABiY8pfLYgkAGJDyl11iCQAYiPKXfWIJABiA8pdDYgkA6Jjyl2NiCQDokPKXKWIJAOiI8pcpYwkA6IDylzliCQBomPKXOWMJAGiQ8peKWAIAGqL8pTKWAIAGKH9ZIpYAgAUpf1kylgCABSh/aSGWALp1bekLgANcT/JnSX5q6QuBJJ9O8jNJvr30hcA+LAD0RvnTIksA3bEA0BPlT8ssAXTFAkAvlD89sATQDQsAPVD+9MQSQBcsALRO+dMjSwDNswDQMuVPzywBNM0CQKuUPyOwBNAsCwAtUv6MxBJAkywAtOb+JB9P8pNLX8gKPHn6Pz3X83syyXuSfGfpCwFokV/vW5cns1m2rif5RAPXs4b4tcEA51D+ddmW/9nn3hJQE0sAwBnKvy53l//Z18ASUBNLAECUf2UuKv+zr4UloCaWAGDV7ovyr8pV5b9lCaiLJQBYJeVfl13Lf8sSUBdLALAqyr8u+5b/liWgLpYAYBWUf10OLf8tS0BdLAHA0JR/XY4t/y1LQF0sAcCQlH9dpir/LUtAXSwBwFCUf12mLv8tS0BdLAHAEJR/XeYq/y1LQF0sAUDXlH9d5i7/LUtAXSwBQJeUf12qyn/LElAXSwDQFeVfl+ry37IE1MUSAHRB+ddlqfLfsgTUxRIANE351xbCkuW/5Y851b7mlgCgOcq/tghaKP8tS0Dta28JAJqh/GsLoKXy37IE1J4BSwCwOOVfO/hbLP8tS0DtWbAEAItR/rUDv+Xy37IE1J4JSwBQTvnXDvoeyn/LElB7NiwBQBnlXzvgeyr/LUtA7RmxBACzU/61g73H8t+yBNSeFUsAMBvlXzvQey7/LUtA7ZmxBACTU/61g3yE8t+yBNSeHUsAMBnlXzvARyr/LUtA7RmyBABHU/61g3vE8t+yBNSeJUsAcDDlXzuwRy7/LUtA7ZmyBAB7U/61g3oN5b9lCag9W5YAYGfKv3ZAr6n8tywBtWfMEgBcSfnXDuY1lv+WJaD2rFkCgAsp/9qBvOby37IE1J45SwBwD+VfO4iV/22WgNqzZwkAXqP8awew8r+XJaD2DFoCAOVfGOV/OUtA7Vm0BMCKKf/agav8r2YJqD2TlgBYIeVfO2iV/+4sAbVn0xIAK3Jfkk9l+eGzhij/w1gC6vLpWAJgFZR/XZT/cSwBdbEEwOCUf12U/zQsAXWxBMCglH9dlP+0LAF1sQTAYJR/XZT/PCwBdbEEwCCUf12U/7wsAXWxBEDnlH9dlH8NS0BdLAHQKeVfF+VfyxJQF0sAdEb510X5L8MSUBdLAHRC+ddF+S/LElAXSwA0TvnXRfm3wRJQF0sANEr510X5t8USUBdLADRG+dfFH09pkyWgLpYAaITyr4vyb5sloC6WAFiY8q+L8u+DJaAulgBYiPKvi/LviyWgLpYAKKb866L8+2QJqIslAIoo/7oo/75ZAupiCYCZKf+6KP8xWALqYgmAmSj/uij/sVgC6mIJgIkp/7oo/zFZAupiCYCJKP+6KP+xWQLqYgmAIyn/uij/dbAE1MUSAAdS/nVR/utiCaiLJQD2pPzrovzXyRJQF0sA7Ej510X5r5sloC6WALiC8q+L8iexBFTGEgAXUP51Uf6cZQmoiyUA7qL866L8OY8loC6WADil/Oui/LmMJaAulgBWT/nXRfmzC0tAXSwBrJbyr4vyZx+WgLpYAlgd5V8X5c8hLAF1sQSwGsq/LsqfY1gC6mIJYHjKvy7KnylYAupiCWBYyr8uyp8pWQLqYglgOMq/LsqfOVgC6mIJYBjKvy7KnzlZAupiCaB7yr8uyp8KloC6WALolvKvi/KnkiWgLpYAuqP866L8WYIloC6WALqh/Oui/FmSJaAulgCap/zrovxpgSWgLpYAmqX866L8aYkloC6WAJqj/Oui/GmRJaAulgCaofzrovxpmSWgLpYAFqf866L86cF9sQRUxRLAYpR/XZQ/PbEE1MUSQDnlXxflT48sAXWxBFBG+ddF+dMzS0BdLAHMTvnXRfkzAktAXSwBzEb510X5MxJLQF0sAUxO+ddF+TMiS0BdLAFMRvnXRfkzMktAXSwBHE3510X5swaWgLpYAjiY8q+L8mdNLAF1sQSwN+VfF+XPGlkC6mIJYGfKvy7KnzWzBNTFEsCVlH9dlD9YAipjCeBCyr8uyh9uswTUxRLAPZR/XZQ/3MsSUBdLAK9R/nVR/nAxS0BdLAEo/8Iof7iaJaAuloAVU/51Uf6wO0tAXSwBK6T866L8YX+WgLpYAlZE+ddF+cPhLAF1sQSsgPKvi/KH41kC6mIJGJjyr4vyh+lYAupiCRiQ8q+L8ofpWQLqYgkYiPKvi/KH+VgC6mIJGIDyr4vyh/lZAupiCeiY8q+L8oc6loC6WAI6pPzrovyhniWgLpaAjij/uih/WI4loC6WgA4o/7oof1ieJaAuloCGKf+6KH9ohyWgLpaABt1I8lSWPxxriPKH9lgC6vKZJA/s9rIwN+VfF+UP7bIE1MUS0ADlXxdvfUH7fBRaF0vAgpR/XZQ/9MMSUBdLwAKUf12UP/THElAXS0Ah5V8X5Q/9sgTUxRJQQPnXRflD/ywBdbEEzEj510X5wzgsAXWxBMxA+ddF+cN4LAF1sQRMSPnXRfnDuCwBdbEETED510X5w/gsAXWxBBxB+ddF+cN6WALqYgk4gPKvi/KH9bEE1MUSsAflXxflD+tlCaiLJWAHyr8uyh+wBNTFEnAJ5V8X5Q9sWQLqYgk4h/Kvi/IH7mYJqIsl4AzlXxflD1zEElAXS0CUf2WUP3AVS0BdVr0EKP+6KH9gV5aAuqxyCVD+dVH+wL4sAXVZ1RKg/Oui/IFDWQLqsoolQPnXRfkDx7IE1GXoJUD510X5A1OxBNRlyCVA+ddF+QNTswTUZaglQPnXRfkDc7EE1GWIJUD510X5A3OzBNSl6yVA+ddF+QNVLAF16XIJUP51Uf5ANUtAXbpaApR/XZQ/sBRLQF26WAKUf12UP7A0S0Bdml4ClH9dlD/QCktAXZpcApR/XZQ/0BpLQF2aWgKUf12UP9AqS0BdmlgClH9dlD/QOktAXRZdApR/XZQ/0AtLQF0WWQKUf12UP9AbS0BdSpcA5V8X5Q/0yhJQl5IlQPnXRfkDvbME1GXWJUD510X5A6OwBNRlliVA+ddF+QOjsQTUZdIl4HqSmw08qDVE+QOjupHNjFt6zq4hN7Pp7qNcS/JfG3gwa4jyB0bnnYC6/EmSk91elvP9QQMPYg1R/sBaeCegLh/d8TW5x79s4OLXEOUPrI13AuryCzu+Jq95a5JvNnDho0f5A2tlCajJt5L80I6vSU6SfL6Bix49yh9YOx8H1OTz2fHfA/y7Bi529Ch/gA3vBNTkl696Id6Q5B8auNCRo/wB7mQJmD8vJvn+y16E327gIkeO8gc4n48D5s9vXfTkP5Tk6w1c4KhR/gCX807AvPlGkoe3T/bZfxTw75M8cuHLwjGeSvLTSb699IUANOy7SX4um5nJ9B5O8m/P+7/4SpbfTkaMn/wB9uOdgPny/N1P9j9t4KJGjPIHOIwlYL68K7n9EcD7dnk12Iu3/QEO5+OA+bz/7H/4cpbfSEaKn/wBpuGdgOnzzPbJfWOSWw1c0ChR/gDTsgRMm1tJHjtJ8u5s/uwvx/O2P8D0fBwwrWtJfvQkyQ8vfSWDUP4A8/l2kn+e5L8vfSGD+OGT7PFXgriQ8geY33eTvDeWgCk8cZLk8aWvonPKH6COjwOm8cRJkjctfRUdU/4A9XwccLzHTpI8uPRVdEr5AyzHxwHHeTBJ/m+W/0pCb/FVP4A2+IrgYfnuyen/gd35yR+gHd4JOMyrJ0leWfoqOqL8AdpjCdjfKxaA3Sl/gHZZAvbzykmSF5a+ig4of4D2+Yrg7l44yTl/G5g7KH+AfviK4G6etwBcTvkD9MfHAVd7/iTJF5a+ikb9dZQ/QK+2Hwf89dIX0qgvJsn3Jfl/Wf47iS3F9/wBxuD3BNybW0ke3T5BzzRwQa1E+QOMxRJwZ/4mSU5On5y/PPBJHY23/QHG4+OAO/3V2f/wjiy/kSwdP/kDjM07AZu87e4n5tkGLkr5AzCntS8Bz533pHyggQtT/gDMbc1LwK+c94Q8kORrDVyc8gdgbmtcAl7K6Z8BPs9vNHCBVXkqyh9gzW5k0wVL91FVfv2yJ+P1Sf6ugYucO5/J5h0PANZtLUvA3yd5+Kon45cauFDlD0CVNSwB/2qXJ+JakqcbuNg54m1/AM4z8hLwdDbdvpN/ks0/Flj6oqeMn/wBuMyIS8DXk7x53yfivQ1cuPIHoNJoS8D7D30iPtzAxR8bb/sDsI9RloDfOeZJuJbkjxp4EIfGT/4AHKL3JeC/ZY/P/S/yuiSfbODB7Jub8ZM/AIe7kU2XLN1n++aT2XT3JL43yR828KB2zZ8muX+qBw/Aal1P8rEs32u75o8zYflvXUvykQYe3FX5/dz+M8cAcKyTJB/N8v12VX4nE7ztf5n3JHm5gQd6d76Z5OdnfNwArNt7s/la3dJ9d17/vW/Gx32HNyf57MwPaJ/8zyRvmfURA0Dy1iSfz/K9t83TSX5wzgd8nmtJfjGb3y+81AN/KZs/bfg9Mz9WANja9t8LWa7/Xsym/xb9yPvhJL+Z2t8c+HKSDyV5pODxAcB53pDkt1L7scBL2fxVvyv/sE+lB5N8MMlzme+B/22SX03yUNFjAoCrPJTk15J8JfP135eTfCCbrm3aO7L5xsAzSW7l8Ad86/R/x0eSvLP0EQDA/t6V5HeTPJvj++9L2fzL/rfPcaGzfl3g1KNJfizJ25I8cZpHs3n7frvJvJLkG9l8pvH8ab6Y5H+c/ncA0Js35s7+ezx39t+rSf4xm/77WpKvZtN/X8im/16a8+L+P84yoqnxfy43AAAAAElFTkSuQmCC;" parent="1" vertex="1">
          <mxGeometry x="-470" y="680" width="40" height="40" as="geometry" />
        </mxCell>
        <mxCell id="He7p6NDhDGaTkKvORS2x-14" value="" style="shape=image;verticalLabelPosition=bottom;labelBackgroundColor=default;verticalAlign=top;aspect=fixed;imageAspect=0;image=data:image/png,iVBORw0KGgoAAAANSUhEUgAAAgAAAAIACAYAAAD0eNT6AAAABHNCSVQICAgIfAhkiAAAAAlwSFlzAAAN1wAADdcBQiibeAAAABl0RVh0U29mdHdhcmUAd3d3Lmlua3NjYXBlLm9yZ5vuPBoAACAASURBVHic7d1/7F31fd/x59s4jRVihBltiUsb01A19IfUFIViBNUIrWBei1GkpmXa6LpO2jq0oqorpUhV202jKZs0pRurIo2uYVu7rlqAdbVglULbIGAglkjrRqK6wW2ow1KCLTuO7MTkvT++F/eLsb+/7r3n/Tnn83xIVxjB956Xr9/nc18+59xzIzPRxkTEduAKYPeqB8DhVY8XM/N0TUJJkjYmLABri4idwC3AfmAfsGudHzkCHAAeBR7LzOPLTShJ0uZZAM4jIi4B7gXuBHZs8WlOAg8A92Xmq4vKJknSvCwAZ4mIHcBdwD3AxQt62qPAB4EPZebJBT2nJElbZgFYJSIuBx4Brl7SJp4HbsvMl5b0/JIkbci26gCtiIi9wHMs782f2XM/N9uWJEllLABAROwDngAuG2BzlwFPzLYpSVKJ7k8BRMRVwDPARQNv+hhwbWa+MPB2JUnquwBExC7gWeDKoggHgWsy80jR9iVJner9FMCD1L35M9v2g4XblyR1qtsjABFxPfDx6hwzN2Tmk9UhJEn96PkIwP3VAVZpKYskqQNdFoCI2A+09FG8vbNMkiQNossCANxRHeAcWswkSZqo7q4BmN3q9xXgwuosZzkBXOqtgiVJQ+jxCMBNtPfmDyuZbqoOIUnqQ48F4ObqAGtoOZskaUJ6LAB7qgOsYU91AElSH3osALurA6yh5WySpAmxALSl5WySpAnp8VMAp4ELqnOcx2uZub06hCRp+no8AtDqmz+0nU2SNCE9FgBJkrpnAZAkqUMWAEmSOmQBkCSpQxYASZI6ZAGQJKlDFgBJkjpkAZAkqUMWAEmSOmQBkCSpQxYASZI6ZAGQJKlDFgBJkjpkAZAkqUMWAEmSOmQBkCSpQxYASZI6ZAGQJKlDFgBJkjpkAZAkqUMWAEmSOmQBkCSpQxYASZI6ZAGQJKlDFgBJkjpkAZAkqUMWAEmSOmQBkCSpQxYASZI6ZAGQJKlDFgBJkjpkAZAkqUMWAEmSOmQBkCSpQxYASZI6ZAGQJKlDFgBJkjpkAZAkqUPb5/nhiNgOXAHsXvXYuYBc3YqIX6zOsADHgcOrHi9m5unaSO3qZD9yJjZoznk4xcpr/cXZP4+f9e9/mZknFp1Z4xSZubkfiNgJ3ALsB/YBu5aQS9NyBDgAPAo8lpnHi/OUcz9yJlYbcB4S+AvgU8CnZ4/Xf/3Z3OwbgkZtwwUgIi4B7gXuBHYsM5Qm7STwAHBfZr5aHWZo7kfn1O1MNDYPXwI+CXxs9ng6M0/WRtIyrVsAImIHcBdwD3DxEKHUhaPAB4EP9bDIuB9tSDczMZJ5OAk8BTzBSiF41tM207JmAYiIy4FHgKsHS6TePA/clpkvVQdZFvejTZv0TIx4Ho6zkvsh4GOZ+dXiPJrTeQtAROwFPgpcNmgi9ehl4P2Z+XR1kEVzP9qySc7EhObhL4DfBB7KzD+uDqOtOWcBiIh9rAzpWwdPpF6dYmXBP1AdZFHcj+Y2qZmY8Dx8EvgPrJSBV6rDaOPeVAAi4irgGeCikkTq2THg2sx8oTrIvNyPFmYSM9HJPJwAPgz8y8z8XHUYre8NBSAidgHPAleWJVLvDgLXZOaR6iBb5X60cKOeiQ7n4RTwIPArmfnn1WF0fmffCfBB+hlStelKVuZwzNyPFmvsM9HbPLwV+EfAwYh4MCJ6+r2PypkjABFxPfDx2jjSGTdk5pPVITbL/WipRjcTzgMArwH/Dvi5sR7FmarVBeApYG9tHOmMpzPzuuoQm+V+tFSjmwnn4Q3+EviZzPxIdRCt2AYQEftxSNWWvbO5HA33o6Ub1Uw4D2/ytcBvRMQfRsS3V4fRX10DcEdpCuncxjaXY8s7RmN6jceUdUjfC3wiIn4lIi6sDtOzYOX+068A/kGoNSeAS8dwW9jZrV3dj5ZvFDPhPGzYnwG3T+2GT2OxDbgJh1RtupCV+RwD96NhjGUmnIeNeSfwRxHxMxER1WF6sw24uTqEtIaxzOdYck7BGF7rMWRsxXbgfuC/R8Rfqw7Tk23AnuoQ0hr2VAfYoD3VATqypzrABuypDjBC+4BPzj46qQFsA3ZXh5DWMJb5HEvOKRjDaz2GjC26HPiDiPi56iA9sACodWOZz7HknIIxvNZjyNiqC4D7ZncRvKA6zJQFK/dt/prqINJ5fDkzm//2tIhwPxpO8zPhPCzMfwN+uPVPfYzVNuAL1SGkNYxlPseScwrG8FqPIeMY3Ar8j4i4uDrIFG0DDleHkNYwlvkcS84pGMNrPYaMY3EDKx8VfEd1kKmxAKh1Y5nPseScgjG81mPIOCbfCTwVEd9SHWRKtgGHqkNIazhUHWCDDlUH6Mih6gAbcKg6wATtAZ6IiHdWB5mKbcDj1SGkNYxlPseScwrG8FqPIeMYfQPweERcWh1kCvwuALVsFPd9B+/9PqBRzITzsHTPAe/LzC9WBxmzbbMdybaqFj3e+kL/OvejwYxiJpyHpXsv8NGI8KOWc3j964AfKk0hndvY5nJsecdoTK/xmLKO0fcDH4mIbev+nzqnyMyVX0Q8BeytjSOd8XRmXlcdYrPcj5ZqdDPhPAziVzPzruoQY7S6Od1dlkJ6s7HO41hzj8EYX9sxZh6bn4yI26tDjNGZApCZTwIPF2aRXvfwbB5Hx/1oaUY5E87DYD7sPQI278wpAICI2AU8C1xZlki9Owhck5lHqoNslfvRwo16JpyHwXwSuDYzT1UHGYs3XDwx28FuBY7VxFHnjgG3jnWhf5370UKNfiach8F8F/CvqkOMyZuunszMF4DbWfmWQGkop4DbZ/M3eu5HCzGZmXAeBvMTEfFD1SHG4g2nAN7wHyL2Ah8FLhs0kXr0MvD+zHy6OsiiuR9t2SRnwnkYxDHgPZn5meogrTvv5ydnO957geeHi6MOPQ+8d2oL/evcj7ZksjPhPAziIuDD1SHGYM0bKGTmS8D1wD3A0UESqRdHWZmr62dzNlnuRxvWxUw4D4P4voj4keoQrTvvKYA3/Y8RlwD3Aney8v0B0lacBB4A7svMV6vDDM396Jy6nQnnYak+B7w7M7348jw2XADO/EDETuAWYD+wD9i1hFyaliPAAeBR4LHMPF6cp5z7kTOxmvOwNN4lcA2bLgBv+OGI7cAVwO5Vj52LibY0v1AdYB2/VB1gAY4Dh1c9XszM07WR2jXS/WiznIkNmnMe3n7Wz+2m728kfI2V60k+UR2kRXMVgDGKiKZ/w5kZ1RkkTcfs6MLrZeC7gduA61jnGrAJ+Z/A3uztzW4DLACNsQBIWraI+FrgB1kpA9/P9K8/+LHM/I3qEK2xADTGAiBpSBFxISvXH/zQ7DHFIwN/CnxrZr5WHaQlU/yDliRtUGaeyMz/mpk/wsrtdA9UZ1qCdwF+LPAsHgFojEcAJFWLiBuBX2HlpkVT8X+B7/BagL/iEQBJ0htk5hPA97Dyt+Y/LY6zKN8GvL86REs8AtAYjwBIaklEvIWVuxb+IuP/S+MnMvO7q0O0wgLQGAuApBZFxA8C/4nx36PiBzLz96pDtGDsbU6SNIDM/F3gWsZ/SuDu6gCt8AhAYzwCIKlls+8v+B3gfdVZtiiBd2Xmi9VBqnkEQJK0YbMvbLoZ+DfVWbYogL9THaIFFgBJ0qZk5unM/MesXBg4Rn+7OkALPAXQGE8BSBqTiPht4APVObZgb2Y+Ux2ikkcAJEnz+DFgjN+2d0d1gGoeAWiMRwAkjU1EfCPwHPD11Vk24VXgHZn55eogVTwCIEmaS2Z+lpW77I3pzfQS4G9Uh6hkAZAkzS0znwJ+ojrHJu2rDlDJAiBJWojM/HXgv1Tn2ISx3stgIbwGoDFeAyBpzCLim4FPAW+pzrJB3zQ7hdEdjwBIkhYmMz8D/Fp1jk24sTpAFQuAJGnR/hlwrDrEBnV7GsACIElaqMx8Bbi/OscGdVsAvAagMV4DIGkKIuJtwJ8Au6uzbMC3ZObB6hBD8wiAJGnhMvNLjOe7Am6oDlDBAiBJWpaHgC9Wh9iAq6oDVLAASJKWIjNPAY9V59iAd1cHqGABkCQt0yPVATbgW6sDVPAiwMZ4EaCkKYmIi4HP0/aNgU4Db8vMr1QHGZJHACRJS5OZR4E/rM6xju3Au6pDDM0CIElaNk8DNMgCIElatkeBpk+/YgGQJGmxMvMl4P9U51jHN1cHGJoFQJI0hD+rDrCOi6oDDM0CIEkawuHqAOvYWR1gaBYASdIQLACNsQBIkobwueoA63h7dYChWQAkSUPwCEBjLACSpCFYABpjAZAkDcEC0Bi/C6AxfheApCmKiAtYued+qzIzu/pLcVe/WUlSjcx8rTrDOrr7y5cFQJKkDlkAJEnqkAVAkqQOWQAkSeqQBUCSpA5ZACRJ6pAFQJKkDlkAJEnqUI8FoOWbUbScTZLm1fIa13K2peixAHy+OsAaWs4mSfNqeY1rOdtS9FgAWv5CipazSdK8Wl7jWs62FBaAtrScTZLm1fIa13K2peixAByqDrCGQ9UBJGmJDlUHWMOh6gBD67EAPF4dYA0tZ5OkebW8xrWcbSkiM6szDCoidgCvABdWZznLCeDSzDxZHUSSlsH1ty3dHQGY/QG32PQe7234JPXF9bct3RWAmYeqA5xDi5kkadFaXOtazLR03Z0CeF1EPAXsrc4x83RmXlcdQpKG4Prbhl6PAADcXR1glZaySNKytbTmtZRlUN0WgMx8Eni4Ogfw8CyLJHXB9bcN3Z4CAIiIXcCzwJVFEQ4C12TmkaLtS1IJ19963R4BAJj9wd8KHCvY/DHg1p6HT1K/XH/rdV0AADLzBeB24NSAmz0F3D7btiR1yfW3VvcFACAzDwA3Ai8PsLmXgRtn25Skrrn+1un6GoCzRcTlwCPA1UvaxPPAbZn50pKeX5JGyfV3eB4BWGU2GNcD9wBHF/jUR2fPeb3DJ0lv5vo7PI8AnEdEXALcC9wJ7Nji05wEHgDuy8xXF5VNkqbM9XcYFoB1RMRO4BZgP7AP2LXOjxwBDgCPAo9l5vHlJpSkaXL9XS4LwCZExHbgCmD3qgfA4VWPFzPzdE1CSZom19/FswBIktQhLwKUJKlDFgBJkjpkAZAkqUMWAEmSOmQBkCSpQxYASZI6ZAGQJKlDFgBJkjpkAZAkqUMWAEmSOmQBkCSpQxYASZI6ZAGQJKlDFgBJkjpkAZAkqUMWAEmSOmQBkCSpQxYASZI6ZAGQJKlDFgBJkjpkAZAkqUMWAEmSOmQBkCSpQxYASZI6ZAGQJKlDFgBJkjpkAZAkqUMWAEmSOmQBkCSpQxYASZI6ZAGQJKlDFgBJkjpkAZAkqUMWAEmSOmQBkCSpQxYASZI6ZAGQJKlDFgBJkjq0vTrAmETEduAKYPeqB8DhVY8XM/N0TUJJmibX38WLzKzO0LSI2AncAuwH9gG71vmRI8AB4FHgscw8vtyEkjRNrr/LZQE4j4i4BLgXuBPYscWnOQk8ANyXma8uKpskTZnr7zAsAGeJiB3AXcA9wMULetqjwAeBD2XmyQU9pyRNiuvvsCwAq0TE5cAjwNVL2sTzwG2Z+dKSnl+SRsn1d3h+CmAmIvYCz7G84WP23M/NtiVJwvW3igUAiIh9wBPAZQNs7jLgidk2Jalrrr91uj8FEBFXAc8AFw286WPAtZn5wsDblaQmuP7W6roARMQu4FngyqIIB4FrMvNI0fYlqYTrb73eTwE8SN3wMdv2g4Xbl6Qqrr/Fuj0CEBHXAx+vzjFzQ2Y+WR1Ckobg+tuGno8A3F8dYJWWskjSsrW05rWUZVBdFoCI2A+09FGQvbNMkjRprr/t6LIAAHdUBziHFjNJ0qK1uNa1mGnpursGYHaryVeAC6uznOUEcKm3qpQ0Va6/benxCMBNtDd8sJLppuoQkrRErr8N6bEA3FwdYA0tZ5OkebW8xrWcbSl6LAB7qgOsYU91AElaoj3VAdawpzrA0HosALurA6yh5WySNK+W17iWsy2FBaAtLWeTpHm1vMa1nG0pevwUwGngguoc5/FaZm6vDiFJy+D625YejwC0OnzQdjZJmlfLa1zL2ZaixwIgSVL3LACSJHXIAiBJUocsAJIkdcgCIElShywAkiR1yAIgSVKHLACSJHXIAiBJUocsAJIkdcgCIElShywAkiR1yAIgSVKHLACSJHXIAiBJUocsAJIkdcgCIElShywAkiR1yAIgSVKHLACSJHXIAiBJUocsAJIkdcgCIElShywAkiR1yAIgSVKHLACSJHXIAiBJUocsAJIkdcgCIElShywAkiR1yAIgSVKHLACSJHXIAiBJUocsAJIkdcgCIElShywAkiR1yAIgSVKHLACSJHXIAiBJUocsAJIkdcgCIElShywAkiR1yAIgSVKHLACSJHXIAiBJUocsAJIkdcgCIElShywAkiR1yAIgSVKHLACSJHWoxwLwWnWANbScTZLm1fIa13K2peixAHy+OsAaWs4mSfNqeY1rOdtS9FgADlcHWEPL2SRpXi2vcS1nWwoLQFtaziZJ82p5jWs521L0WAAOVQdYw6HqAJK0RIeqA6zhUHWAofVYAB6vDrCGlrNJ0rxaXuNazrYUkZnVGQYVETuAV4ALq7Oc5QRwaWaerA4iScvg+tuW7o4AzP6AW2x6j/c2fJL64vrblu4KwMxD1QHOocVMkrRoLa51LWZauu5OAbwuIp4C9lbnmHk6M6+rDiFJQ3D9bUOvRwAA7q4OsEpLWSRp2Vpa81rKMqhuC0BmPgk8XJ0DeHiWRZK64Prbhm5PAQBExC7gWeDKoggHgWsy80jR9iWphOtvvW6PAADM/uBvBY4VbP4YcGvPwyepX66/9bouAACZ+QJwO3BqwM2eAm6fbVuSuuT6W6v7AgCQmQeAG4GXB9jcy8CNs21KUtdcf+t0fQ3A2SLicuAR4OolbeJ54LbMfGlJzy9Jo+T6OzyPAKwyG4zrgXuAowt86qOz57ze4ZOkN3P9HZ5HAM4jIi4B7gXuBHZs8WlOAg8A92Xmq4vKJklT5vo7DAvAOiJiJ3ALsB/YB+xa50eOAAeAR4HHMvP4chNK0jS5/i6XBWATImI7cAWwe9UD4PCqx4uZebomoSRNk+vv4lkAJEnqkBcBSpLUIQuAJEkdsgBIktQhC4AkSR2yAEiS1CELgCRJHbIASJLUIQuAJEkdsgBIktQhC4AkSR2yAEiS1CELgCRJHbIASJLUIQuAJEkdsgBIktQhC4AkSR2yAEiS1CELgCRJHbIASJLUIQuAJEkdsgBIktQhC4AkSR2yAEiS1CELgCRJHbIASJLUIQuAJEkdsgBIktQhC4AkSR2yAEiS1CELgCRJHbIASJLUIQuAJEkdsgBIktQhC4AkSR2yAEiS1CELgCRJHbIASJLUIQuAJEkd2l4dYEwiYjtwBbB71QPg8KrHi5l5uiahJE2T6+/iRWZWZ2haROwEbgH2A/uAXev8yBHgAPAo8FhmHl9uQkmaJtff5bIAnEdEXALcC9wJ7Nji05wEHgDuy8xXF5VNkqbM9XcYFoCzRMQO4C7gHuDiBT3tUeCDwIcy8+SCnlOSJsX1d1gWgFUi4nLgEeDqJW3ieeC2zHxpSc8vSaPk+js8PwUwExF7gedY3vAxe+7nZtuSJOH6W8UCAETEPuAJ4LIBNncZ8MRsm5LUNdffOt2fAoiIq4BngIsG3vQx4NrMfGHg7UpSE1x/a3VdACJiF/AscGVRhIPANZl5pGj7klTC9bde76cAHqRu+Jht+8HC7UtSFdffYt0eAYiI64GPV+eYuSEzn6wOIUlDcP1tQ89HAO6vDrBKS1kkadlaWvNayjKoLgtAROwHWvooyN5ZJkmaNNffdnRZAIA7qgOcQ4uZJGnRWlzrWsy0dN1dAzC71eQrwIXVWc5yArjUW1VKmirX37b0eATgJtobPljJdFN1CElaItffhvRYAG6uDrCGlrNJ0rxaXuNazrYUPRaAPdUB1rCnOoAkLdGe6gBr2FMdYGg9FoDd1QHW0HI2SZpXy2tcy9mWwgLQlpazSdK8Wl7jWs62FD1+CuA0cEF1jvN4LTO3V4eQpGVw/W1Lj0cAWh0+aDubJM2r5TWu5WxL0WMBkCSpexYASZI6ZAGQJKlDFgBJkjpkAZAkqUMWAEmSOmQBkCSpQz0WgKbvfBQR3X0WVZI0vB4LwInqAOv4uuoAkqTp67EAHK8OsI7u7kctSRqeBaA9FgBJ0tJZANpjAZAkLV2PBeCL1QHW8Y7qAJKk6euxAHgEQJLUPQtAeywAkqSl67EAHKsOsI53VgeQJE1fjwXgM9UB1vHtEXF5dQhJ0rT1WAA+XR1gHQHsrw4hSZo2C0CbbqsOIEmatshs+tb4CxcRbwG+BGyvzrKGrwBfl5lHq4NI0qJERNNvOJkZ1RmG1N0RgMz8Cu1fB/AW4G9Wh5AkTVd3BWDG0wCSpK71WgA+VR1gA26JiLdWh5AkTVOvBeCF6gAb8HbgjuoQkqRp6u4iQICIuBL4k+ocG3AY+JbM/FJ1EEmalxcBtqXLIwCZeRD4bHWODdgN/FR1CEnS9HRZAGY+Vh1gg+6OiEurQ0iSpsUC0L6LgJ+vDiFJmpYurwEAiIhvBP68OscGfQV4d2a2fv8CSTovrwFoS7dHADLzs8DB6hwb9Bbgl6tDSJKmo9sCMDOW0wAAH4iIv1cdQpI0Db0XgAPVATbp1yLiuuoQkqTx6/YaAICI+Brgc8Al1Vk24f8B752dwpCk0fAagLZ0fQQgM78M/HZ1jk36euDRiHhbdRBJ0nh1XQBmHqoOsAXvAf59dQhJ0nh1XwAy8xnGcVvgs30gIn6hOoQkaZy6LwAz/7E6wBb9YkT864jYXh1EkjQuXV8E+LqIuAL4U2CsF4B8DPihzHy1OogknY8XAbbFIwBAZr4IfLw6xxzeBzwbEd9WHUSSNA4WgL9yf3WAOb0LeCYifrA6iCSpfRaAmcz8PeAT1TnmtBN4JCJ+PiLeUh1GktQuC8Ab/fPqAAuwDfinwAsR8cMR0dU5LUnSxngR4CqzN8s/BqZ0Lv054O7M/IPqIJL65kWAbfEIwCq50obuq86xYO8FnoiI34uI76wOI0lqg0cAzhIRFwCfZuWiuqn5KvA7s8djmXmiOI+kjngEoC0WgHOIiL/L9G+1exL4feAR4Hcz8y+L80iaOAtAWywA5zC7FuBp4Huqswzkq8BTrJSB/wUcBg5n5vHSVJImxQLQFgvAeUTEe1i5gO6C6iyFTjArA6seX9zgzx4/6+dezMzTywg5drNbOV8B7F712FkaavGchw2a+Dy0/v0lv1QdYB0L3Y8sAGuIiA8BP1mdYyKOAAeAR1m5/qDrowsRsRO4BdgP7AN21SYanPOwivOgLZprP7IArCEiLgI+BbyjOsvEnAQeAO7r7fsLIuIS4F7gTmBHcZxWOA/Og+a36f3IArCOiPgR4Leqc0zUUeCDwIcy82R1mGWKiB3AXcA9wMXFcVrlPEjz2/B+ZAHYgIj4feD7qnNM2PPAbZn5UnWQZYiIy1m5wPLq6iwj4TxI81t3P7IAbEBEfDMr3xNwUXWWCXsZeH9mPl0dZJEiYi/wUeCy6iwj4zxI81tzP/JOgBuQmZ8B/n51jom7jJU7Fu6rDrIos9/LE7jYb4XzIM1vzf3IIwCbEBH/FviJ6hwTdwy4NjNfqA4yj4i4CngGjxrNy3mQ5nfO/cgCsAkR8VZWduLvqs4ycQeBazLzSHWQrYiIXcCzwJXVWSbCeZDm96b9yFMAm5CZp4APsHIzBi3PlcCD1SHm8CAu9ovkPEjze9N+5BGALYiI24HfrM7RgRsy88nqEJsREdcDH6/OMVHOgzS/M/uRRwC2IDN/C/jV6hwduL86wBaMMfNYjPG1HWNmTduZmbQAbN1PAf+5OsTE7Y2I/dUhNmqWdW91jglzHqT5ndmPLABblJlfBX6Ula/U1fLcUR1gE8aUdazG9BqPKav6cgd4DcDcIuLtwMeA91ZnmagTwKWt3xp2dmvXV4ALq7NMnPMgze8EcKlHAOaUmV9k5du7Pl2dZaIuBG6qDrEBN+FiPwTnQZrfhcBNFoAFyMxXgJuBv6jOMlE3VwfYgDFknIoxvNZjyKi+3WwBWJDM/DPgRuBQcZQp2lMdYAP2VAfoyJ7qABuwpzqAtI49FoAFysw/Aa4D/nd1lonZXR1gA8aQcSrG8FqPIaP6ttsCsGCZ+Tnge/HmH4s0hsV0DBmnYgyv9Rgyqm+7/RTAksyuAv5t4NbqLBPw5cx8a3WItUTEKeBrqnN0wnmQ5vdljwAsyexjSu8Hfr06ywR8oTrABowh41SM4bUeQ0b17QsWgCXKzNcy88eBe4HXqvOM2OHqABswhoxTMYbXegwZ1bfDFoABZOYvA38deKk4yliNYTEdQ8apGMNrPYaM6psFYCizb1/6LuBAdZYROlQdYAMOVQfoyKHqABtwqDqAtI5DFoABZeYXgB8A7gZOF8cZk8erA2zAGDJOxRhe6zFkVN8e91MARSJiL/BbwDurszTOe79rNedBmp/fBVApM58Gvp2V72b+SnGclj3e+mIPZz714d/6ls95kOb3eGaetAAUyswTmfmzwHuAP6rO06iHqgNswpiyjtWYXuMxZVVfHgK/DrgpEfGjwL8AvrY6SyOezszrqkNsRkQ8BeytzjFRzoM0vzP7kUcAGpKZHwG+Ffgw3jcAVi6WHJsxZh6LMb62Y8ysaTszkxaAxmTmkcz8h8C7WbmLYK/XBzw8++jkqMwyP1ydY4KcB2l+b9iPPAXQuIj4JuBngR8Hmr7/+QIdBK7JzCPVQbYiInYBzwJXVmeZCOdBmt+b9iMLwEhExDuAfwL8A6b90aJjwLWZ+UJ1kHlExFXAM8BF1VlGznmQ5nfO/chTACORmZ/LzJ8G9gA/DXyyNtFSnAJuH/tiDzD7PdzOyu9JW+M8SPM7QEeUlwAAA8JJREFU737kEYARi4jvAO4A/hbwDcVx5vUy8P7Z/REmY3bDp48Cl1VnGRnnQZrfmvuRBWACImIb8D5WysBtwM7aRJv2PHBbZk7yy5Ii4nLgEeDq6iwj4TxI81t3P7IATExEbAeuYaUQ3AhcB+woDXV+R4EPAh8aw93d5jG7NexdwD3AxcVxWuU8SPPb8H5kAZi42UKzl5VC8D5WvpHwbaWh4CTwAHBfZr5anGVQEXEJcC9wJ+0Ws6E5D86D5rfp/cgC0JmICOAbWbnh0Ltn/3z9198AxJI2fYSVr0J+FHgsM48vaTujEBE7gVuA/cA+YFdtosE5D6s4D9qiufYjC4DOiIgLWbkN8U7g7bN/7jzr3zd6L4LjwOFVjxcz069APofZaZsrgN2rHmO7jmM9zsMGTXwefqE6wDp+qTrAOha6H1kAJEmDiIim33Ayc1lHQJvkfQAkSeqQBUCSpA5ZACRJ6pAFQJKkDlkAJEnqkAVAkqQOWQAkSeqQBUCSpA5ZACRJ6pAFQJKkDlkAJEnqkAVAkqQOWQAkSeqQBUCSpA5ZACRJ6pAFQJKkDlkAJEnqkAVAkqQOWQAkSeqQBUCSpA5ZACRJ6pAFQJKkDlkAJEnqkAVAkqQOWQAkSeqQBUCSpA5ZACRJ6pAFQJKkDlkAJEnqkAVAkqQOWQAkSeqQBUCSpA5ZACRJ6pAFQJKkDlkAJEnqkAVAkqQOWQAkSeqQBUCSpA5ZACRJQ3mtOsAaWs62FBYASdJQPl8dYA0tZ1sKC4AkaSiHqwOsoeVsS2EBkCQNpeU32ZazLYUFQJI0lEPVAdZwqDrA0CwAkqShPF4dYA0tZ1uKyMzqDJKkDkTEDuAV4MLqLGc5AVyamSergwzJIwCSpEHM3mBb/Jv24729+YMFQJI0rIeqA5xDi5mWzlMAkqRBRcRTwN7qHDNPZ+Z11SEqeARAkjS0u6sDrNJSlkFZACRJg8rMJ4GHq3MAD8+ydMlTAJKkwUXELuBZ4MqiCAeBazLzSNH2y3kEQJI0uNkb763AsYLNHwNu7fnNHywAkqQimfkCcDtwasDNngJun227axYASVKZzDwA3Ai8PMDmXgZunG2ze14DIEkqFxGXA48AVy9pE88Dt2XmS0t6/tHxCIAkqdzsjfl64B7g6AKf+ujsOa/3zf+NPAIgSWpKRFwC3AvcCezY4tOcBB4A7svMVxeVbUosAJKkJkXETuAWYD+wD9i1zo8cAQ4AjwKPZebx5SYcNwuAJKl5EbEduALYveoBcHjV48XMPF2TcHz+P7eziki5y5O4AAAAAElFTkSuQmCC;" parent="1" vertex="1">
          <mxGeometry x="-930" y="650" width="70" height="70" as="geometry" />
        </mxCell>
        <mxCell id="He7p6NDhDGaTkKvORS2x-15" value="" style="shape=image;verticalLabelPosition=bottom;labelBackgroundColor=default;verticalAlign=top;aspect=fixed;imageAspect=0;image=data:image/png,iVBORw0KGgoAAAANSUhEUgAAAgAAAAIACAYAAAD0eNT6AAAABHNCSVQICAgIfAhkiAAAAAlwSFlzAAAOxAAADsQBlSsOGwAAABl0RVh0U29mdHdhcmUAd3d3Lmlua3NjYXBlLm9yZ5vuPBoAAAzvSURBVHic7d3tq991Hcfx1/m5uWWLGnOYttI1NTUsEiwwITJBpSuINgmyCO3iTtGtKKh7QX9BIGQRgUSWREGXSFdkdSMIizJLFCkzSMlIqqHbuvF1a66zncvf93vOeT0e8LvhOb+LNxv4ee7z+14kAAAAAAAAAAAAAAAAAAAAAAAAAAAAAAAAAAAAAAAAAAAAAAAAAAAAAAAAAAAAAAAAAAAAAAAAAAAAAAAAAAAAAAAAAAAAAAAAAAAAAAAAAAAAAABsLAtTDzCSs5LsOemxM8n2JLumHAqAyT2V5Okk/0nyxEmPI1MONYatFgD7klyZ5FVJrkiyP8lFSS7IEAEAsJQjSR5N8kiSh5Lcn+S+JL959udbwmYPgFcneWOS1ye5JsNCDwDz8pck9z77+GGSX087zupttgDYkeSGJG9LclMs+ABM69Ek303yjSTfT3J42nGWbzMEwEKSNyW5Jcnbk7xw2nEAYFFPZgiBL2XYHTg27ThntpEDYG+S25LcmuTAxLMAwEo8mOTzSe5I8vjEsyxqIwbAgSQfybD4nzPxLACwFoeT3JXkMxkOJtwwNlIA7E/y8Qz/4nfEPgBbydEkdyf5ZJI/TDxLko0RABck+XSS98TCD8DW9kySLyb5VJK/TjnIlAvuziQfS/KVJK9LMptwFgAYwyzJVUk+mGFX4JeZ6KJDU+0AXJvkc0kum+jzAWAjeDDJBzKcNTCqsf/VvSvJ7Ul+Eos/AFyc5J4kn03y/DE/eMwdgKuT3JnkkhE/EwA2i4eTvDvJz8b4sDGOAVjIcHT/nRnO7QcA/t/uDAfE/zvJz+f9YfPeAXhBki8keeecPwcAtpJvZoiBf8zrA+YZABcm+U6Sy+f4GQCwVf02w31v/jSPN59XAFyR4eYIL53T+wNAg8eS3Jg53HVwHmcBvDbJj2PxB4C1Oj/JjzLc9n5drXcAvCXDuYznrvP7AkCr3RluNfzm9XzT9TwL4OYMNzzYsY7vCQAk25McSvJAhmMD1my9jgG4Lsm3Y/EHgHl6Oslbk3xvrW+0HgFwdZIfZLjKHwAwX/9Kcn3WeK2AtQbAxUl+muS8Nb4PALB8j2e4r84Dq32DtQTAS5Lcm+F8fwBgXA9nODvgsdW8eLVnAexM8vVY/AFgKvszrMVnr+bFqz0L4PYMp/wBANPZl+EA/HtW+sLVfAVwa5I7VvE6AGD9HctwZsC3VvKilQbAgSS/ynCTHwBgY/h7ktckeWS5L1jJMQDbk3w5Fn8A2Gh2J7kzybblvmAlxwB8IsktK50IABjFy5I8meQXy3nycr8CuDTJfRmO/gcANqZ/Jrk8yaNLPXE5OwALSe7OcNEfAGDj2pHhOj1fW+qJyzkG4FCSN6x1IgBgFDcnuXGpJy31FcDzkvwuyUXrMBAAMI4/JrkyyeHTPWGpHYAPx+IPAJvNJUk+dKYnnGkHYFeSh5LsXc+JAIBR/DnD8XuL7gKcaQfgo7H4A8BmtS/Je0/3y9PtAJyT4WpC585jIgBgFA8leUWSZ079xel2AN4Xiz8AbHYvT/KuxX6x2A7ALMnvMxxAAABsbvcneWWGmwadsNgOwPWx+APAVnF5kutO/eFiAfD++c8CAIzotlN/cOpXAHsznDZw9ijjAABjOJzhEsFPHP/BqTsAB2PxB4CtZkeSd5z8g1MD4NB4swAAI3rOGn/yVwAvzrD9v5w7BAIAm8uRJOcn+Vvy3B2Am2LxB4Ct6qwkNxz/j5MDYMlbBwIAm9qJtf74VwBnZdgS2D3JOADAGB5Pcl6So8d3AK6MxR8AtrpzM1wY6MRXANdMNwsAMKJrEwEAAG2uSf4XAFdNOAgAMJ6rkuEgwB1JnkqybdJxAIAxPJ1k1yzDLQIt/gDQYXuSy2ZJLp16EgBgVJfMkuyfegoAYFT7Z0kunHoKAGBU+2cZ7g8MAPTYN8twVSAAoMeeWZI9U08BAIxqzyzJi6aeAgAY1e5Zkp1TTwEAjGrnLMnZU08BAIxqx0KSoxkuCdzqq1MPAMAkDk49wISOLiQ5NvUUE2uOH4Bm1evfbOmnAABbjQAAgEICAAAKCQAAKCQAAKCQAACAQgIAAAoJAAAoJAAAoJAAAIBCAgAACgkAACgkAACgkAAAgEICAAAKCQAAKCQAAKCQAACAQgIAAAoJAAAoJAAAoJAAAIBCAgAACgkAACgkAACgkAAAgEICAAAKCQAAKCQAAKCQAACAQgIAAAoJAAAoJAAAoJAAAIBCAgAACgkAACgkAACgkAAAgEICAAAKCQAAKCQAAKCQAACAQgIAAAoJAAAoJAAAoJAAAIBCAgAACgkAACgkAACgkAAAgEICAAAKCQAAKCQAAKCQAACAQgIAAAoJAAAoJAAAoJAAAIBCAgAACgkAACgkAACgkAAAgEICAAAKCQAAKCQAAKCQAACAQgIAAAoJAAAoJAAAoJAAAIBCAgAACgkAACgkAACgkAAAgEICAAAKCQAAKCQAAKCQAACAQgIAAAoJAAAoJAAAoJAAAIBCAgAACgkAACgkAACgkAAAgEICAAAKCQAAKCQAAKCQAACAQgIAAAoJAAAoJAAAoJAAAIBCAgAACgkAACgkAACgkAAAgEICAAAKCQAAKCQAAKCQAACAQgIAAAoJAAAoJAAAoJAAAIBCAgAACgkAACgkAACgkAAAgEICAAAKCQAAKCQAAKCQAACAQgIAAAoJAAAoJAAAoJAAAIBCAgAACgkAACgkAACgkAAAgEICAAAKCQAAKCQAAKCQAACAQgIAAAoJAAAoJAAAoJAAAIBCAgAACgkAACgkAACgkAAAgEICAAAKCQAAKCQAAKCQAACAQgIAAAoJAAAoJAAAoJAAAIBCAgAACgkAACgkAACgkAAAgEICAAAKCQAAKCQAAKCQAACAQgIAAAoJAAAoJAAAoJAAAIBCAgAACgkAACgkAACgkAAAgEICAAAKCQAAKCQAAKCQAACAQgIAAAoJAAAoJAAAoJAAAIBCAgAACgkAACgkAACgkAAAgEICAAAKCQAAKCQAAKCQAACAQgIAAAoJAAAoJAAAoJAAAIBCAgAACgkAACgkAACgkAAAgEICAAAKCQAAKCQAAKCQAACAQgIAAAoJAAAoJAAAoJAAAIBCAgAACgkAACgkAACgkAAAgEICAAAKCQAAKCQAAKCQAACAQgIAAAoJAAAoJAAAoJAAAIBCAgAACgkAACgkAACgkAAAgEICAAAKCQAAKCQAAKCQAACAQgIAAAoJAAAoJAAAoJAAAIBCAgAACgkAACgkAACgkAAAgEICAAAKCQAAKCQAAKCQAACAQgIAAAoJAAAoJAAAoJAAAIBCAgAACgkAACgkAACgkAAAgEICAAAKCQAAKCQAAKDQtqkH2ADumnoAABjbQpJjUw8BAIzLVwAAUEgAAEAhAQAAhQQAABQSAABQSAAAQCEBAACFBAAAFBIAAFBIAABAIQEAAIUEAAAUEgAAUEgAAEAhAQAAhQQAABQSAABQSAAAQCEBAACFBAAAFBIAAFBIAABAIQEAAIUEAAAUEgAAUEgAAEAhAQAAhQQAABQSAABQSAAAQCEBAACFBAAAFBIAAFBIAABAIQEAAIUEAAAUEgAAUEgAAEAhAQAAhQQAABQSAABQSAAAQCEBAACFBAAAFBIAAFBIAABAIQEAAIUEAAAUEgAAUEgAAEAhAQAAhQQAABQSAABQSAAAQCEBAACFBAAAFBIAAFBIAABAIQEAAIUEAAAUEgAAUEgAAEChhSQHpx4Cit019QATOzT1ANBqYeoBoNyxqQeYmP8HwUR8BQAAhQQAABQSAABQSAAAQCEBAACFBAAAFBIAAFBIAABAIQEAAIUEAAAUEgAAUEgAAEAhAQAAhQQAABQSAABQSAAAQCEBAACFBAAAFBIAAFBIAABAIQEAAIUEAAAUEgAAUEgAAEAhAQAAhQQAABQSAABQSAAAQCEBAACFBAAAFBIAAFBIAABAIQEAAIUEAAAUEgAAUEgAAEAhAQAAhQQAABQSAABQSAAAQCEBAACFBADLdTDJMY91f7Sb+s9/Kz4OruhvgFoCAAAKCQAAKCQAAKCQAACAQgIAAAoJAAAoJAAAoJAAAIBCAgAACgkAACgkAACgkAAAgEICAAAKCQAAKCQAAKCQAACAQgIAAAoJAAAoJAAAoJAAAIBCAgAACgkAACgkAACgkAAAgEICAAAKCQAAKCQAAKCQAACAQgIAAAoJAAAoJAAAoJAAAIBCAgAACgkAACgkAACgkAAAgEICAAAKCQAAKCQAAKCQAACAQgIAAAoJAAAoJAAAoJAAAIBCAgAACgkAACgkAACgkAAAgEICAAAKCQAAKCQAAKCQAACAQgIAAAoJAAAoJAAAoJAAAIBCAgAACgkAACgkAACgkAAAgEICAAAKCQAAKCQAAKDQfwHHv0eDfoIo1gAAAABJRU5ErkJggg==;" parent="1" vertex="1">
          <mxGeometry x="-770" y="650" width="70" height="70" as="geometry" />
        </mxCell>
        <mxCell id="He7p6NDhDGaTkKvORS2x-16" value="" style="shape=image;verticalLabelPosition=bottom;labelBackgroundColor=default;verticalAlign=top;aspect=fixed;imageAspect=0;image=data:image/png,iVBORw0KGgoAAAANSUhEUgAAAgAAAAIACAYAAAD0eNT6AAAACXBIWXMAAA7DAAAOwwHHb6hkAAAAGXRFWHRTb2Z0d2FyZQB3d3cuaW5rc2NhcGUub3Jnm+48GgAAIABJREFUeJzt3Xe8nVWd7/HPOWkEQk2oEiCAGCkBRBABG8WOigKWq9jBOjiWq3PRi3V0eOk41lFsXHV0gMugg4oNEYcmIFKGIKAGaVICgZBA6sn8sU4khOScXZ71/J5nr8/79fq9Qnvt/VuLs8/67qesByRJkiRJkiRJkiRJkiRJkiRJkiRJkiRJkiRJkiRJkiRJkiRJkiRJkiRJkiRJkiRJkiRJkiRJkiRJkiRJkiRJGhBD0Q0UbmtgK2A6MAPYcvSvpwFTgQ1G/7uNgYkRDUpSD1YAD47+9RLgYWARMB+4B7h3tO4C7o5oUAaAOmwH7AXsCcwCdhr9cxZpkZekkj0E3AzMW+PPa0frr2FdFcAAUK0dgEOA/YE5wN6kb/SSpO7NB64mhYHLgAuBW0M7GiAGgP7sCRwKHAQcDGwf244kDbxbgYuAi4FfAdfFttNeBoDubEha7I8EXkL6xi9JinMX8HPgnNE/H4htpz0MAOPbHDgKOJb0bX9SbDuSpPVYRjoqcAbwA2BBbDvNZgBYt41Ji/7LgcOBybHtSJK6tIx0ROAM4GzSXQhagwHg0fYDjgdeRboVT5LUfg8DPwJOBX4Z3EtjGADSt/3jgDeTrtqXJA2uq4CvAd/hkb0KilRyANgGeAvwTmCL4F4kSfVaCJwGfJpCby0sMQDsDbwHeAVe0CdJpVsGfB/4DGm/gWKUFAB2Bz4MHE1Z45YkjW8V8GPgQ6TTBAOvhIVwFvAB4I3AhOBeJEnNNgKcRQoCNwT3ktUgB4CtgY8Dr8eFX5LUnRXAN4EPkh5gNHAGcWGcRLqw7yzSrn3Dse1IklpomHRr+FuBKcAlwMrQjio2aEcAXkS6kGPX6EYkSQPlRuDdpOsEBsKgBIBtgFOA10Q3IkkaaD8i3UJ+e3Qj/Wr7KYAh0iY+PwQODO5FkjT4dgPeQHrOwJXBvfSlzUcAdiJdoPGs4D4kSWU6j3SH2V+iG+lFWy+QO4aUvFz8JUlRDgOuAV4d3Ugv2nYEYBPgi3iuX5LULGcCJ9CiRxC3KQA8lbRd447RjUiStA7zSNvMXxbdSCfachHg8aRnOk+PbkSSpPXYnHRh+oPAb4N7GVfTjwBsAHyJdMWlJElt8R3S7YIPRTeyPk0OADsCZwP7RjciSVIPrgBeSkMfN9zUALA/8J+kDX4kSWqrvwJHAr+LbmRtTbwN8CXAr3HxlyS137bABaQQ0ChNuwjwROAbpAcvSJI0CCYDxwL30aA7BJoUAP4R+ATNPCohSVI/hoHnk9bd84N7AZoRAIaAzwLvi25EkqTMngFsCZwb3Uh0ABgGvga8LbgPSZLqcgCwHenRwquimogMABNI90m+NrAHSZIi7AfsQrrjLSQERAWAIeArwOuC3l+SpGhzSHvehISAqADwGeAdQe8tSVJT7EPa5r72awIiAsCn8II/SZJWOwDYFPhZnW9adwD4B+Dkmt9TkqSmeyqwGLi4rjesMwAcC/wrzd1+WJKkSEcANwHX1vFmdS3GhwC/ID3dT5IkrdsS4DBqOBJQRwDYBbiEtPGBJEka272kUwI35XyT3AFgU+By4PGZ30eSpEHyB9LFgQ/meoOc++4PAd/ExV+SpG7NJm2Wl+2Les6LAD+EW/xKktSr2cDDwEU5XjxXsjiCtKlB9LMGJElqsxHSUwQr3yMgRwB4HHA1aWcjjW0ZMBe4Ebh5tG4jXQByLzCf9D9/8eh/K0ltMBnYiPQlcPoatT2wEzAL2A3YHZgU02Kr3EPaNvjOKl+06gAwDPycdAuDHm0VcD3pUM5FwO9H/355ZFOSFGgS8ETgScDBwEGjf+9+MY/1M+B5BD49cDzvJTVnpboX+B7warwNUpI6sRVwHPB90u/Q6N/jTaoT+5jXrPYFlhI/QdG1APgW8Fw8tCVJ/ZhEOv99GnA/8b/fo+th0qmARpkCXEf85ETWRcBrgal9zqUk6bE2BF5P2iEv+vd9ZF1DusaiMT5K/KRE1DLSfZr79D+FkqQOPRk4m3SRdPQ6EFH/t/8prMZelHfofwnwedIVrZKkGHuSrrNaQfy6UPca9MQK5q8vE4BLiZ+MumoFcCows4rJkyRV4vGknWdLCgIXknc333GduI6mBrUuJd2qIklqpjnAr4hfL+qqsN12t6KMqzLvBU4gOGlJkjp2DHAH8etHHetTyKZ7X+2h2TbVCOl2Pu/fl6T22Qz4OoN/oeAXq5qwTu3NYJ9ruR94WWWzJUmKciSDvaHQCtLF+LU5P8MgmlKXkfapliQNhpmki+ai15dcdV51UzW2I2saUN01AvwTMLG6qZIkNcQk4NMM7imB51Y3Ves2RHqITfRAq64FwAsqnCdJUjO9kMG8gP0yMj9E6egGDLLq+ivu5CdJJdmT9Oj16PWn6npRlZO0pmHg6gYMsMr6E7BrlZMkSWqFnYAbiF+HqqxryHTL+isbMLgq6wrSXgaSpDJtDfyO+PWoyjq60hkinVe4qgEDq6rOAzaudIYkSW20CYO1e+AV1U4PPLsBg6qqfgtMq3Z6JEkttiHpke7R61NV9awqJ+dnDRhQFXUjHvaXJD3WdGAu8etUFfWjTgbcyS0De5Eu/st6e0ENbgUOHv1TarshYAdgt9GaSTqttSGwEek2p8XAg6SLXf9ACsALIpptkc2BJwCzgZ1Jc7oRaVvZxaO1iPR75MbRuoX0S1frNoX0tL4nkH5WNxut1UdiF5F+XheQ5vMG4I+kx8zXbUfSkYDHBbx3lVaR7nSY2+8LfYP4NNNvzQd273cipGA7A+8AziL9TPfyWZgLfIl0oZCnwtICfyzwZeB6epvTe4AzgbfjLqKQrkJ/GvAR4DekhbzbOV0CXAB8GDiEeh/GtgdwXw89N62+1u9EbEpKvNED6aeWkb75S220CXA8aRvTqncwWwR8BziC9h/h68YQ6bqm71L977cR0qL3ZtL/u5LsBnwC+AvV/x6/GfgY6UhCHZ4OLM8wjjrrQfr8GXxbAwbRb723nwmQgswgffup65vItcBxDPZW2MOkrczruu1rIfA5YJs6BhdoDvBt6nlA3ErgHGD/Gsb1DzWMJ3cd388EXNmAAfRT51DWNxu13xTgJNK384jPzPWkIwKD5jnEbfryIGkxmZx9lPXagXQ6KmJOR0inXWZmHN8w8JOg8VVVl/c6+Cc3oPl+6hbSVZ1SWxxGc3YmOx3YNu9wa7EdaaGIns9VpHBV6e1ZQSYCHyAupK5Zi4D3ke/I1QzSBZ/R4+ynetrq/ksNaLzXWgYc1MugpQATgU/RvKeU3UX65txWzyddoBc9j2vWStJ58raeatke+C/i53HtuoB8V+4/jXZfD/C5bgc8kfThj2681zq52wFLQbal2RuQrAQ+TrtOpQ0Dn6R5gWrN+g1pG9o2eQ69331SR90NHJ5p7B9twPh6rTuACd0M9ogGNN1r3QRs0M1gpSCzSD+v0Z+ZTuq7pOepN91k4HvEz1cn9Wfqu6q9X/+LdGQ1es7Gq+XA6zOMfwrNOT3XSz2zm8Ge2oCGe61ndzNQKcg+wJ3Ef166qXOBqTkmoyJTad+upX8lXUXfZCfS7KMpa9dK4J0Z5uF5DRhbr/WvnQ5yEs0+zDNWnd7pIKVAu5B+8Ud/Xnqpc2jm+esJwH8QPz+91N2ke+ib6DjatfivrhHgjRnmI+quh37rHjr83B7egGZ7qYW0f/tGDb5tSVvzRn9e+qmv06xrAoaA04ifl37qJpp3TcCLqefe/ly1HHhhxXMyk3RbZ/TYeqmO7kD5TAMa7aXc8EdNN5FmX/DXTZ1Y8dz04z3Ez0cVdQHNObqyO824za/fWkh6BkGV3t+AcfVSp3QyuF73w46sO2j2uUkJ4J+I/6xUVcuAp1Y7PT05gN72mm9qfbza6enJBsBVxM9FVXUt1a4PGwC3NWBc3dY14w1spwY02Uu9dbyBScEOo53nUseqP5GePhhlGjBvHX21uVbS5RXbGXyZ+Hmour5Q6Qylh3JFj6mX2n6sQb2lAQ12W7cyeFtsarC0/RaiseqTFc5Tt04Zo68211zifqc9hRRCoueg6lpJ2t22KlOA2xswrm7rzWMNqo1X0b5vrAFJDXAS8Z+TXLUUeGJ1U9WxPWjHfem91geqm6qOTaC+ByVF1OVU+1jhNl4LcMb6BjNE+3b/e4D0yGKpqWYwGBdTjVVnVzZbnfvPPvptQy0Etqhstjrzmop6b3K9qrLZgs1I/5+ix9RN3bG+wTy+Ac11W59f32CkhvgY8Z+T3DUC7FnVhHVgDoN3PcW66iNVTVgHhkmnHqLHnLv+m2qPAnyhAWPqtnZe10Be14DGuq06f+lI3doEWED856SO+reK5qwT3884jibVfcDGFc3ZeF5W05iaUEdVNGeQwmj0eLqt16xufs0kdHA181Gbi0lpTmqqV5IOE5bgGNLpjty2JC1WJdgcOLam93pLTe/TBCdU+FrXAL+t8PXq8Le1fs0AcGBAI/34dnQD0jheM/5/MjAmAS+v4X1eSTseSlSV42p4j+2BQ2t4n6Y4nLQjZ1XathY9Zv+ODWjX846XU8+3DalXu1DGeeo165JKZm5slweOL6JGgB0rmbn1+98NGGfd9Z5KZi7ZmnZtmbyMdBvj344A7EFztqDsxHmkBxZJTfU8mrVffh2eQt5gvhWwX8bXb6Ih0s9STi/I/PpNVOWc3gX8usLXy20SMBseCQB7xfXSkx9ENyCNo6MHbwyYIfLuYvcsygtVkPdnaQPSdsqlOZhqtwdu25o0B9obAH4a3YA0hiHg6dFNBMm5WD0z42s3Wc7gczApBJRmA9IRq6qcW+Fr1WEvaGcAuB64OboJaQwzKfcalX1b+tpNtiX5HnW+T6bXbYMqf57+RHqkc1s8KgDsGthIt34V3YA0jqofP9omOcfuvLbnddug6rGfV/Hr5bQrpAAwkfSNpS0ujG5AGsfs6AYCbUGeox9bU86eCuuSa6Eu+We16jm9qOLXy2lHYMIw6R7QNt0BcHF0A9I4totuINiYjxztUelzmusUQMnzWvWctunL6SRgu2Fgp+BGunEncEt0E9I4pkU3ECzH9rV1bYnbVLnGX/LPatVzejPplsC2mDUMzIruogtXRzcgdaD0xSrHolL6nOYaf8nzmmPs12Z4zVx2GqZdh4DaNLkq15ToBoLluK1scobXbJNct+qV/LOaY+zXZHjNXB43TLtuV7ouugGpA4ujGwi2KMNrOqftet02yPEzNTfDa+Yyo20B4M/RDUgdKPmXKsCDGV6z9DldmOl1Sw5WOeZ0XobXzGX6MDA9uosu/CW6AakDD0Q3ECzH+Euf01wB4P5Mr9sGOX6m2hQAZrQpAKwEbotuQupAyUeqRsizU+c80pPMSpXrZ6rkn9UcY7+V9Blog+nDpI072uA+UgiQmu6G6AYC3QI8nOF1HyL9ci1Vrp+pkn9Wc4x9BbAgw+vmsMUw7XkQxL3RDUgd8pdq+167yVZhAMgh19jbslZNHaY9t9e0ZVKlBaSHVpUo506dl2R87SabS75rIEqdU8g39rasVZOHac99oA9FNyB14dfRDQTJ+bCu8zO+dpPlnNPraNfudVW5i3whvS1r1eQ2HQFYFt2A1IUSn1q5GLgs4+tfSp7rC5ouZ/BZBVyQ8fWb6jzyXVS6NNPrVm1KmwJAWyZVAjiX8u5dP4e8QX0J8OOMr99Ei4FfZH6P/8j8+k10VsbXbstaNWUYmBDdRYe8A0Btshj4QXQTNfvOgLxHk/x/8gfJH1LWfgALyBskV2R87SpNGI7uQBpg345uoEZ3AT+v4X3OBe6u4X2aoo7AswQ4s4b3aYrTac+39KwMAFI+v6ScB1h9nnq++SwHvlTD+zTB1dR3Lclnac8GNv0YAb4Y3URTGACkfFYBn4xuogYLgS/X+H6fo4ytgT9BfbsfXk86FTDozsKHyv2NAUDK6wzgD9FNZPYv1HsO+QEG/1vcXPJeqLYuH2ewjwKMkEKVRhkApLxWAu+MbiKjW4FTAt73Hxnsh4O9k/oX4yuBb9T8nnX6Kum0itawqiV1Rq4JkGpwOvGfoRz1kionqUtHj9FXm+vfqpykLm1Busgyeg6qrvnU9+C7M2oaUxUV3kCnZQBQm21LulI++nM0aJ/Js4ifhyrrTmCbSmeoe68gfh6qrmMqnaGxGQAyVBN+2Uj9OJR0SiD6s1RF/RHYtNrp6clmpMe6Rs9HFbUSOKLa6enZ14ifj6qq7rtGDAAZygCgQfBx4j9L/dZDwH5VT0wfDiBtERw9L/3WyVVPTB+mAlcRPyf91hXU/8RbA0CGMgBoEAwB3yL+89RrrQBeWvms9O9FpD0Couen1/ou6WejSbYD5hE/N73Wn0mn3upmAMhQBgANiknAT4j/THVbI8CbMsxHVY4nfo56qR8DEzPMRxV2JV2XED1H3dY9wBMyzEcnDAAZygCgQTKFtP1q9Oeq01oBnJBlJqr1Otp1JOAHpMPtTbY7cAvxc9Vp3Q7MyTITnTEAZCgDgAbNBNK9ydGfrfFqCemWu7Z4Mek6heh5G6++RXO/+a9tO+Aa4udsvLoOmJlpDjplAMhQBgANquNJDyeJ/oytq24GDsw28nz2I92pED1/66olwIk075z/eDah2ftZnA1snm30nTMAZCgDgAbZ/sCfiP+crf2Za8Ktfr3ajObtE3ATzbqDoltDwN+RQkz0XK6uh4G35xx0lwwAGcoAoEE3Ffgw8b9cbwOOyzvUWh1JOpIROafLSA8xmpZ3qLXZlfRo5uh14VfAEzOPtVsGgAxlAFApZpMOZ45Q72fsfuAjwEb5h1i7jYCPkR4kVOecriQdhYi6Ij23Y0gPLqp7Pfhv4GU1jK8XBoAMZQBQafYk7Quf+/qAO4GTaPfh/k5tBnyQ/NsyLyXd279HPcMKNUxajC8n/zpwGWkfiiY/yM4AkKEMACrVdNI5zkuobivhRcD3gRfQnivRqzQReCHporbFVDOnK4GLgbdR34NnmmYv0tMhq7xt8C/Ap2hPmGpNABga/Ys2OBM4NroJKdgM4JmjtR+wG+kJbmMZIf1CvoEUIs4jfZNalqvJlplMutPhWcBBpDndgfG/Zd4L3Eh6jO75wK9H/5mS2aTnXzydtJfAbqT9L8aylDSn1wG/IZ3jvyFjjzmcQb0PH+qZAUBqvxmke5+njdZGpPP5D5K+6f+JdGGhOjcV2IU0lxuTTh0sJs3nIuBW0iNm1blhYEdSYN2MRy6IXET6eb2XFFRHQrqrTmsCQImH/qRBMx8Xo6o9TLrQTNUZIT1bYF50I0qafCGFJEnKxAAgSVKBDACSJBXIACBJUoEMAJIkFcgAIElSgQwAkiQVyAAgSVKBDACSJBXIACBJUoEMAJIkFcgAIElSgQwAkiQVyAAgSVKBDACSJBXIACBJUoEMAJIkFcgAIElSgQwAkiQVaGJ0A12YCRwT3YQkSWOYGd1Ap4aAVdFNSJKkenkKQJKkAhkAJEkqkAFAkqQCGQAkSSqQAUCSpAIZACRJKpABQJKkAhkAJEkqkAFAkqQCGQAkSSqQAUCSpAIZACRJKpABQJKkAhkAJEkqkAFAkqQCGQAkSSqQAUCSpAIZACRJKpABQJKkAhkAJEkqkAFAkqQCGQAkSSqQAUCSpAIZACRJKpABQJKkAhkAJEkqkAFAkqQCGQAkSSqQAUCSpAIZACRJKpABQJKkAhkAJEkqkAFAkqQCGQAkSSqQAUCSpAIZACRJKpABQJKkAhkAJEkqkAFAkqQCGQAkSSqQAUCSpAJNjG6gC5cC/xzdhCRJY3g3cGB0E51oUwC4FTgzuglJksZwDC0JAJ4CkCSpQAYASZIKZACQJKlABgBJkgpkAJAkqUAGAEmSCmQAkCSpQAYASZIKZACQJKlABgBJkgpkAJAkqUAGAEmSCmQAkCSpQAYASZIKZACQJKlABgBJkgpkAJAkqUAGAEmSCmQAkCSpQAYASZIKZACQJKlABgBJkgpkAJAkqUAGAEmSCmQAkCSpQAYASZIKZACQJKlABgBJkgpkAJAkqUAGAEmSCmQAkCSpQAYASZIKZACQJKlABgBJkgpkAJAkqUAGAEmSCmQAkCSpQAYASZIKZACQJKlABgBJkgpkAJAkqUAGAEmSCmQAkCSpQAYASZIKZACQJKlABgBJkgpkAJAkqUAGAEmSCmQAkCSpQAYASZIKZACQJKlABgBJkgpkAJAkqUAGAEmSCmQAkCSpQAYASZIKZACQJKlABgBJkgpkAJAkqUAGAEmSCmQAkCSpQAYASZIKZACQJKlABgBJkgpkAJAkqUAGAEmSCmQAkCSpQAYASZIKZACQJKlABgBJkgpkAJAkqUAGAEmSCmQAkCSpQAYASZIKZACQJKlABgBJkgpkAJAkqUAGAEmSCmQAkCSpQAYASZIKZACQJKlABgBJkgpkAJAkqUAGAEmSCmQAkCSpQAYASZIKZACQJKlABgBJkgpkAJAkqUAGAEmSCmQAkCSpQAYASZIKZACQJKlABgBJkgpkAJAkqUAGAEmSCmQAkCSpQAYASZIKZACQJKlABgBJkgpkAJAkqUAGAEmSCmQAkCSpQAYASZIKZACQJKlABgBJkgpkAJAkqUAGAEmSCmQAkCSpQAYASZIKZACQJKlABgBJkgpkAJAkqUAGAEmSCmQAkCSpQAYASZIKZACQJKlABgBJkgpkAJAkqUAGAEmSCmQAkCSpQAYASZIKZACQJKlABgBJkgpkAJAkqUAGAEmSCmQAkCSpQAYASZIKZACQJKlABgBJkgpkAJAkqUAGAEmSCmQAkCSpQAYASZIKZACQJKlABgBJkgpkAJAkqUAGAEmSCmQAkCSpQAYASZIKZACQJKlABgBJkgpkAJAkqUAGAEmSCmQAkCSpQAYASZIKZACQJKlABgBJkgpkAJAkqUAGAEmSCmQAkCSpQAYASZIKZACQJKlABgBJkgpkAJAkqUAGAEmSCmQAkCSpQAYASZIKZACQJKlABgBJkgpkAJAkqUAGAEmSCmQAkCSpQAYASZIKZACQJKlABgBJkgpkAJAkqUAGAEmSCmQAkCSpQMPAyugmOjQhugFJksYxMbqBDq0cBpZFd9GhydENSJI0jg2iG+jQ0jYFgCnRDUiSNI62rFVLh4Gl0V10aMPoBiRJGsfU6AY6tGwYWB7dRYemRzcgSdI4ZkQ30KGlw8DD0V10yAAgSWq6LaIb6NCSYeC+6C46tAXeCSBJaq6JwObRTXTovmHg3uguOjQBeFx0E5IkrcdM2rO/zvxhYH50F12YFd2AJEnr0aY1an6bjgAA7BzdgCRJ69GmNeq+th0B2D26AUmS1qNNa9T8YeCO6C66sHd0A5Ikrcec6Aa6cNswMC+6iy60aXIlSWXZK7qBLtw8DNwc3UUXtgZ2jG5CkqS17AxsFd1EF+YNA7fRnt0AAQ6ObkCSpLUcEt1AF5YBdwwDK0ghoC0MAJKkpjkouoEu3AKMrN6w4I+RnXTp0OgGJElay2HRDXThj/DIjkXXBDbSrdnALtFNSJI06vHArtFNdOFqeCQAXBvYSC+eE92AJEmjnhfdQJeuhXYeAQA4KroBSZJGtW1NugZgaPRvpgAPApPC2unOStKDge6KbkSSVLRtSBfSt+VptcuBacCy1UcAlgI3xPXTtQnAS6ObkCQV72jas/gDXE+6DfBRjy28JKaXnh0X3YAkqXivjW6gSxet/ovhdf3DljgQ2Ce6CUlSseYAT45uoksDEQAA3hTdgCSpWCdEN9CDi9f3L/4KrGpRLQK27HMyJEnq1uaki+ej18Fu6vY1B7DmEQAYIxk01EbA30U3IUkqzltIV9O3yYVj/csTiE8o3dYCYNPe50OSpK5sANxB/PrXbb1xrEHNbECDvdRJYw1KkqQKvYv4da+XmjnewK5rQJPd1nzadyhGktQ+U0nn0qPXvW7r6rUHsvY1AADn9jQlsaYDb4tuQpI08N4FbBfdRA9+2sl/dBjxSaWXuh/YquspkSSpM9sCC4lf73qpZ3YywImkPfajm+2lTu1kgJIk9eA04te5Xupu0treka80oOFeaiXwlE4HKUlShw4mrTHR61wv9aVuBnpoAxruta4nPd1QkqQqTKadF8ivrqd1M9gJwJ0NaLrXOrmbwUqSNIaPEr+u9Vq3s+4L/sf0xQY03mstBw7pdsCSJK3lGcAK4te1Xutfehn03g1ovJ+6FZjRy8AlSSI9a+Y24tezfqrnp+b+rgHN91M/oYdDH5Kk4g2T7p2PXsf6qd/2MwFvacAA+q339zMBkqQifZD49avfenM/E7AJ6ZG70YPop5YDT+9nEiRJRXkWae2IXr/6qQeBjfudiK83YCD91n3AHv1OhCRp4M0hPWU2et3qt75axWTMpr2bH6xZtwM7VTEhkqSBNBO4hfj1qt8aAXavalJ+0oABVVE3AVtXNSmSpIExg7SRXPQ6VUX9sMqJaesDgtZVl+GjgyVJj9gQuJj49amqqvy6tysbMKiq6nzSBY6SpLJtCvya+HWpqrqs0tkZdWwDBlZlXQlsU+kMSZLaZBvg98SvR1XWUZXO0Kgh4KoGDK7K+jPw+ConSZLUCrOAG4lfh6qs35HW6iyOasAAq647gSdVOUmSpEbbD7iL+PWn6npBlZO0tiHgigYMsup6AHhxhfMkSWqmo4CFxK87VdelVU7S+jw/aHC5awT4Z9JznyVJg2Uy6cl4I8SvNznqiOqmamw/q2lAEXU5sHN1UyVJCrYDg3Wb39r1i+qmany70/59kseqB4BjKpstSVKUF5G2g49eV3LVcgK2uv9yBY03vc4Btq9qwiRJtdmMtB/+oB7yX12frWrCujGDwU5Vq2sB8HZgQjXTJknKaAh4FYN5lf/aNR/YvJpp6947OmhwUOoKYP9qpk2SlMGTgN8Qv17UVcdXM229GQYuWkdTg1orgW/iUwUlqUlmAafkcfRHAAAF0ElEQVQxGE+u7bQuIOOmP53aHVhC/GTUWUtJ10DsWMH8SZJ6M4t0nn8Z8etCnfUw8IQK5q8SJxM/IRG1HPge7iQoSXXaD/h3BvtutLHqpP6nsDqTgWuJn5TIugR4A7BRn3MpSXqsacCbSDveRf++j6yrgEl9zmXl5lDeqYB11QPAt4EX4q6CktSPKaT7+L/LYG7f2209RMA9/536e+InqEm1ADgdeD2wbR/zKkml2I50NPVM4H7if483qd7Rx7w+RtVXEA4BPwWeXfHrDoobSNtRXghcCcwlXbwiSSWaTPpGuy/wNOAgYLfQjprrx8CRpCBQiRy3EGwLXA1smeG1B81yUii4AbgZmAfcCty7Rq0gXfG5JKZFSeraBsBUYCIwnbRx3HTSzqqzRms30pXsjTuf3UB3kU6z313li+a6h/BQ4Oe4e54kSf1YARxOuu+/UrkW6HmkQ9uHZ3p9SZJK8F7SLY+Vy7mL0BBwBnB0xveQJGlQnQ28jArP+68p9zaCmwC/BWZnfh9JkgbJdcCBwKJcbzCc64VHLQSeT8UXLkiSNMDmAy8h4+IP+QMApOsBXkjawECSJK3fw6TNj/6Y+43qCAAAlwOvBUZqej9JktpmBHg1aWv57Oq8TW8uKdkcUeN7SpLUFu8GvlXXm9V9n/7FpL2dn1bz+0qS1GQfBT5V5xtGbNRzHrAxactHSZJK9wXg/XW/adROfb8gbRm8X9D7S5LUBKcBb41448ites8l7Qe9d2APkiRF+TbpyYdZNvoZT2QAWAX8ANgCeEpgH5Ik1e2rwPEE3h3XhIf1/BSYhtcESJLKcArw9wR981+tCQEAHnly4DOiG5EkKaOTgQ9FNwHNCQAA5wO3k7YOrmuDIkmS6rASeCfw6ehGVsv9MKBePBs4k/QgIUmS2m4R8Argx9GNrKmJAQBgL9JEzYxuRJKkPtxBeh7O76MbWVtTD7VfCxxMeoaAJEltdClwAA1c/KFZ1wCsbSHpHslN8DZBSVK7nAocC9wf3cj6NPUUwNqOA74CTI1uRJKkMSwhXez39ehGxtOWAACwP/DvwM7RjUiStA43kS72uzK6kU40+RTA2u4gPSZxOj5DQJLULN8BXgT8JbqRTrXpCMCaXkY6v7JFdCOSpKI9QHqYz/ejG+lWWwMAwA6kcyxHRDciSSrSz4A3A7dGN9KLpt4G2IlbSJsGHQvMD+5FklSOBcAJwPNo6eIP7boGYH3mAv8P2AYfLSxJyutM0sL/X9GN9KvNpwDW5bnAZ4HZ0Y1IkgbKXOBdwC+iG6lKm08BrMtPSdsIn4CnBSRJ/VsAfADYlwFa/GEwTgGsbQT4HemWwY2BfRjMcUqS8llO2oDupaSFf2VsO9UbtFMA67Ij8H+ANwATg3uRJDXbCHAWcBJpY5+BVUIAWG02KQi8Co8ISJIebfXC/yHghuBealFSAFhtD+A9pCAwJbgXSVKspcB3gc8A1wf3UqsSA8BqWwFvIz20wR0FJaksC4HTgFOA22NbiVFyAFhtGvAa0m5O+wb3IknK60rga6S9+xcH9xLKAPBoe/BIGPCogCQNhoWkp8meSrpLTBgA1mcj4MXAy4Hn4LUCktQ2S0h79Z8O/BB4KLad5jEAjG9T4CWkZw4chmFAkppqKfBL4AzSov9AbDvNZgDozobAQcDhpCMEbjksSbHmkTbq+SXpG//C2HbawwDQn9nAoaRQcAhp0yFJUj43AxcCFwPnATeGdtNiBoBqPY4UBA4A5ozWVqEdSVJ73QVcC1wNXAZcRKG37OVgAMhva9IDivYEZq1RO5FuQZSkki0iHca/efTPPwPXAdcAd8e1NfgMALG2JB0hmA7MWKM2ASbxSECYNvr3ktQGy0kLO6N/Liedm7+H9KTWe0frLnxyqyRJkiRJkiRJkiRJkiRJkiRJkiRJkiRJkiRJkiRJkiRJkiRJkiRJkiRJkiRJkiRJkiRJkiRJkiRJkiRJkiRJ6tf/AFAKzkT76omuAAAAAElFTkSuQmCC;" parent="1" vertex="1">
          <mxGeometry x="-850" y="650" width="70" height="70" as="geometry" />
        </mxCell>
        <mxCell id="He7p6NDhDGaTkKvORS2x-17" value="" style="shape=image;verticalLabelPosition=bottom;labelBackgroundColor=default;verticalAlign=top;aspect=fixed;imageAspect=0;image=data:image/png,iVBORw0KGgoAAAANSUhEUgAAAgAAAAIACAYAAAD0eNT6AAAACXBIWXMAAA7DAAAOwwHHb6hkAAAAGXRFWHRTb2Z0d2FyZQB3d3cuaW5rc2NhcGUub3Jnm+48GgAAHjZJREFUeJzt3XvQbXld3/l3X6ChG/DSIsjN9hbCVUQuCg1BFBRFREEGzdimEofMTCXRydQMU5VURiqZGi8ZZzSpZLzMOMNEQbyijohgWdHYIhGQS3AoQUBQSXMRaKCBpun5Y50jJ02f7nPOs9f+rb1/r1fVr1rb02t9Pc9nr/151tp7rYtihEur+1ZXnbHuVV15xvqM6opTf/6K6o6n/ue/PPXPG6sPVO89Y727etup9dZT//zwWv9PwAWSf9iAi0YPMIG7VY+uHlY95NR6YJ86oK3trdXrqtef+ucrq7fvad8g/7BRCsDu3aP6muox1dXVg6pLhk706f6s+t1T67daDo6wC/IPTOPiloPdP6v+oLqpuvnA1juqH6+eUd11t389HDn5B6bzoOr7Wn6bGH0A2+W6ofqV6pocDDk7+Qemcr/qedWfNv5AtY/14er51eN28ZfHwZN/YCoXV0+vfq3DPL25q/XG6h9Wn3myv04OjPzLP0znspbTgH/U+IPPltb11Y9Wf+3C/2o5APIv/zCdz2w5zfnexh9strw+Ub2w5Vowx0P+5R+mc0X13Op9jT+4HNK6qXpRdf/z/ytnQ+Rf/mE6l1Z/v+UuYqMPJoe8bmz5KtU9z++vn8HkX/5hSl/dcnew0QePY1ofqr63utO5/xgYRP7lH6Zzv5bv+o4+WBzzenP1tef6A2Gv5F/+YToXVc+pPtj4A8Qs60XV3c/lh8Pq5F/+YUr3r65t/AFhxnVd9azb/xGxIvmXf5jSNS3f3x19IJh9vSg3UhlB/rex5B/26O7VLzX+hW99ar2l+orb+qGxM/K/vSX/sAcPr97W+Be89enrxpbvnLMe+d/ukn9Y0TXVRxr/Qrdue72g5QY07Jb8H8aSf9ihO7TcjGP0C9s69/Xa6qpb+Vly/uT/8Jb8ww7ctXpJ41/Q1vmvd1eP/fQfKedB/g93yT+cwL2rP2z8C9m68HVD9Z/d8gfLOZH/w1/yDxfgQdWfN/4FbJ18faLlRjWcO/k/niX/7NUlowc4oS+rXl7dY/Qg7MTF1VNb7qf+e4NnOQTyf1zkn7065ALwyOo3qs8ZPQg7dVH15OrOLW9u3Dr5P07yz94cagF4dMuLw121jtfVLc9a/+3Rg2yQ/B8/+Wd1h1gAHlq9LAe/GTyx5fvs144eZEPkfx7yz6oOrQA8oPqtnPacyddUf1G9avQgGyD/85F/qD6venvjP6lr7X/dVH1zc5P/eZf8M7XLq99v/AvRGrc+0rwPUZF/a+b8M7FL8kQza1nXVV/cXOTfOr1mzD+T+8HGv/Cs7azXNdcDVOTfOnPNln8m9vTqk41/0VnbWi9oDvJv3dqaJf+sbMvfArh/9WvVnUYPwuY8uHp/y3XxYyX/nM0M+WcPLho9wFlc3vK1l78+ehA268bq8dUrRg+yAvnn9hxz/tmTi0cPcBY/lIMft+0O1U9Vdxs9yArkn9tzzPlnT7Z4CeApLQfArZ6dYDs+q+X78S8ePcgOyT/n6hjzzx5trQDcs+U2pz7lyrl6WPXGU+vQyT/n65jyz55t7beMn62eOXoIDs57qgdW7x49yAnJPxfiWPLPnm3pMwBPzcGPC/M51Q+MHuKE5J8LdQz5Z4CtnAG4W/UfqvuMHoSD9rXVb4we4gLIP7twqPlnkK2cAfinOfhxcv+yuuPoIS6A/LMLh5p/BtnChwAfUP0fbWMWDtuV1Qc7rOenyz+7coj5Z6AtXAJ4SfV1o4fgaFxf/bXqXaMHOUfyzy4dWv4ZaPQlgK/LwY/dumv1vNFDnCP5Z9cOKf8MNvIMwEUt97J+5MAZOE43VQ+q3jR6kNsg/6zlEPLPBow8A/AtOfixjkuqfzR6iNsh/6zlEPLPBow6A3Bx9ZrqoYP2z/G7qXpI9UejB7kV8s/atpx/NmLUGYBn5uDHui6p/vHoIc5C/lnblvPPRow6A/CK6tGD9s08bmr5RPSfjB7kFuSffdhq/tmIEWcAHp+DH/txSfX3Rg9xC/LPvmwx/2zIiDMAL66eNmC/zOn66n7V+0cPcor8s09byz8bsu8zAFe1PPQE9uWu1d8aPcQpVyX/7NeW8s/G7LsAfNeAfcLfbRt3vZR/RthK/tmYfYbi0upt1b33uE847bGNvUe6/DPS6PyzQfv8beQbcvBjnO8avH/5Z6TR+WeD9lkArtnjvuCWnlVdMXD/8s9Io/PPBu2rANylesqe9gW35orGPXhH/hltZP7ZqH0VgKdVd97TvuBsnjVov/LPFozKPxu1rwLwrXvaD9yWpzbmNKj8swWj8s9G7aMA3Kl68h72A7fn8upr9rxP+WcrRuSfDdtHAXhCS/BgC/Z9HfQJyT/b4XMA/JV9FACBY0u+Yc/7k3+2ZN/5Z8MUAGZz3+oBe9yf/LMl+84/G7Z2AbhXdf+V9wHn64l72o/8s0X7yj8bt3YBuHrl7cOFeOye9iP/bNG+8s/GrV0AHrPy9uFCPH5P+5F/tmhf+Wfj1i4AmiZbdO+Wa6Frk3+2aF/5Z+PWLAB3rL50xe3DSTxq5e3LP1u2dv45AGsWgAdWd1hx+3ASD115+/LPlq2dfw7AmgVAwNiyh6y8fflny9bOPwdgzQIgYGzZ2m/Q8s+WKaisfgkAtuoLW/cJffLPlq2dfw7AmgXgC1bcNpzURdXnr7h9+WfL1s4/B2CtAiBcHIK13qTln0OgpE5urQJwjzwBje27aqXtyj+H4KrRAzDWWgXAbz8cgqtW2q78cwiuGj0AY61VAD53pe3CLq2VU/nnEMjp5NYqAFeutF3YpbVyKv8cAjmd3FoF4HNW2i7s0loHQPnnECgAk1urAHz2StuFXVrrjVr+OQSK6uTWKgB3WWm7sEtr5VT+OQRyOrm1CsBlK20XdmmtnMo/h0BOJ7dWAbjjStuFXVorp/LPIZDTySkAzGyt34Dkn0PgDMDk1ioAl660XdiltXIq/xwCOZ3cWgXg4yttF3ZprZzKP4dATienADCzj620XfnnEKyVfw7EWgVAsDgEa+VU/jkEcjo5BYCZKQDMTE4nt1YB+MBK24Vd+suVtiv/HIK18s+BWKsAvGel7cIuvXel7co/h2Ct/HMg1ioAgsUhWOuNWv45BIrq5JwBYGbOADAzRXVyaxWAv1hpu7BL71ppu/LPIVgr/xyItQrA21faLuzSW1farvxzCNbKPwdirQJwfU4vsX1vW2m78s8heNvoARhrrQJQ2iXbt2ZG5Z+tk9HJrVkA3rzituGkPlr9+Yrbl3+2bO38cwDWLABvWHHbcFJvqG5aefuwVWvnnwOwZgF43YrbhpN6/crbl3+2bO38cwAUAGalADAzBYBVC8Cf5l7TbNdrV96+/LNla+efA7BmAbi5esWK24cL9Ynq36+8D/lnq/aRfw7AmgWg6ndX3j5ciNe2fFd/bfLPFu0r/2ycAsCM9pVL+WeL5JJq/QLwyurjK+8Dzte+DoDyzxYpAFTrF4CPVNeuvA84HzdVv7mnfck/W7PP/LNxaxeAql/fwz7gXL2y/d6nX/7Zkn3nnw3bRwF4yR72Aedq32/I8s+WKKT8lX0UgNdX79zDfuBc7PsAKP9siQLAX9lHAbi5+oU97Aduzzva//ef5Z+tGJF/NmwfBaDqRXvaD9yWF7a8Ie+b/LMFo/LPRl20x/28tfr8Pe0Pbs0jqz8YsF/5ZwtG5Z+N2tcZgJurn9/TvuDWvKV61aB9yz+jjcw/G7WvAlD1E3vcF9zSTzb29Kf8M9Lo/LNB+7oEcNq11VfueZ/wieqq6s8GzyH/jLCV/LMx+zwDUPXje94f1PJd/C0c/OSfEbaSfzZm3wXgZ/KMdPbvx0YPcIr8M8JW8s/G7LsAfCRhZL/eVP3a6CFOkX/2bUv5Z2P2XQCqfiRPSGN//pfqk6OHOIP8s09byz8bcsmAfV5ffUn1pQP2zVyuq/52y4egtkL+2Zct5p8NGXEGoOoH00pZ3w9XN4we4lbIP/uw1fyzESPOANTSTB9YPXjQ/jl+76n+Zts83S7/rG3L+WcjRp0BqPonOTXFer6/5XT7Vsk/a9p6/tmAUWcAqt5bfXGuhbJ776q+o7px9CC3Qf5ZyyHknw0YeQag6h+3fDUKdul/7DByJf+s4VDyz2AjzwBUfbC6c/X4wXNwPF5b/Zcdxn3P5Z9dO6T8M9i+nwVway6v/qi63+hBOApPql4+eojzIP/s0qHln4FGXwKo5VTVPxo9BEfh5zq8g5/8syuHmH8G2sIZgNNeWj159BAcrA+2fLXuUB96Iv+cxKHnnwG2cAbgtOdUHxo9BAfrv++wD37yz0kcev4ZYPSHAM/0gepj1deOHoSD89vV3x89xAnJPxfqGPLPAFu6BFBLIfmt6nGjB+FgXF89vHrz6EF2QP45X8eUf/ZsS5cAqm6qvr163+hBOBj/oOM5+Mk/5+uY8g9VPbPle6yWdVvr5zpO8m+dyzrW/LMnW/oMwJneWH1+9WWjB2Gz3lo9tfro6EFWIP/cnmPOP3uytc8AnOlO1e9Ujxg9CJvz0erq6lWjB1mR/HM2M+SfPdjaZwDO9NHqGS2PtYQz/dcd/8FP/jmbGfIP1XJzlBsbf73N2sb6l81F/q0z12z5h76r8S88a/x6SXVp85F/6+bmzT8r2eqHAG/p1dVdqseMHoRh3lB9fXXD6EEGkH9mzj8rOZQCUPWb1YNa7nfNXN5RfVX17tGDDCT/85J/qO5Y/WrjT8VZ+1vXVQ+Ikv8Zl/zDGe7ccrvU0S9Ma/31/pbbnPIp8j/Pkn+4FXetfq/xL1Br3YPfo+PWyP/xL/mH23BF9bLGv1Ct3a/35eB3e+T/eJf8wzm4rHpx41+w1u7Wu6qHxrmQ/+Nb8g/n4Y7Vixr/wrVOvt5SfUmcD/k/niX/7NUhfQ3wbG7qU0/FesLAOTiZ36+eVP3p6EEOjPwfB/mHE/o71ccb3+St81u/UF1+Kz9Pzo/8H+aSf9iRJ7c8QGX0i9q6/fXJ6p+27YdSHRr5P5wl/7CC+7acUhv9ArfOvj5QfcvZfoCciPxvf8k/rOjO1f/Z+Be69enrtfmw09rkf7tL/mFPnlm9t/Evems55fmjud65T/K/nSX/MMB9c/vU0es/Vk+9vR8Uq5D/8Uv+YaCLq++urm/8wWC29W+qu9/+j4gVyb/8w/TuVf1i4w8KM6x3Vk8/tx8LeyL/8g/T+7aWm26MPkgc4/po9X0t96tnm+Rf/mFql1fPzWnRXa5fqb7ofH4IDCP/8g/Tu2/1k9WNjT+AHOp6RfXV5/sXzybIv/zD9K5q+ZrOJxp/QDmU9brqW6uLzv+vm425KvmXf5jcA1tuovKxxh9gtrp+p3paDnzHSP7lH6b3edX/XL2v8QecLazTT577ipP8pXIw5F/+YXp3ajnN97KWu3mNPhDte72z5VPNX3DSv0gOkvzLP1A9oPr+6m2NPzCtua6vfrp6Sp5WxqfIPzC9i1pOBf5Q9fbGH7B2ddB7UfWMlofJwNnIP8ApX1g9p+V7wB9t/MHsXNdbWj75/Y3VZTv/W2EW8g8HxidY13Hn6hHV1dVjq6+sPnvoRIuPV6+urm35FPO11XVDJ+IYyT8cAAVgf+5XPbh66Kn1hS0fKvrcFfb14eqt1Z9Ub2z5rvLrqze13OwF9k3+YWMUgPEubzkQ3rPliWFXnlp3qT7j1J+5orpjyynL95/6dze0XLN87xnrupbrse/e0+xwUvIPAAAAAAAAAAAAAAAAAAAAAAAAAAAAAAAAAAAAAAAAAAAAAAAAAAAAAAAAAAAAAAAAAAAAAAAAAAAAAAAAAAAAAAAAAAAAAAAAAAAAAAAAAAAAAABQ1UWjB1jZPaurqvtVd6+uPLXuVF1WXT5sMuCY3Vh9qPpk9d4z1jurt1XvOPVnYJhjKQCXVY+oHlk99NR6YHXnkUMBnMVN1Vur11avr15d/V71npFDMZdDLQCXVI+unlI9sfrylhIAcKhurt5U/Xb169XLq+uHTsRRO6QCcIfqSdWzqm+sPnvsOACrurH6t9XPVj/fcgkBduYQCsCXVv9F9W150wfm9InqpdVPVL966n+HE9lqAbhDy2/6/6B61OBZALbkL6ofq/5Vdd3gWThgWysAV1T/VfXd1X0GzwKwZR+tnl/9QPWWwbNwgLZSAO5Y/a3qeS1f3QPg3NxYvbDl+KkIcM62UACeUf2v1X1HDwJwwD5W/fPqf6puGDwLB2BkAfii6keqrx84A8CxeWf131Q/N3oQtu3iAfu8Q/Xc6g158wfYtfu0fHXwV1ruhAq3at9nAB5R/XT1JXveL8CMPlL9dy3fGID/xD4LwHNaTvm7Yx/Afv1S9bervxw9CNuxjwJwt+rHW77XD8AYb6+eXb1i9CBswyUrb/+R1W9WV6+8HwBu22dW31F9oHrl4FnYgDULwNOq/7flMbwAjHdpy0PUrmo5Pn9y6DQMtVYB+M7qp3K9H2CLHtbynJUX57kC01rja4DPrX6ypWkCsE3fVL2k+ozRgzDGLj8EeFH1g9V/u8NtArCuN1RfV/3Z6EHYr10WgB9t+aofAIflTdXjqnePHoT92dUlgH+WN3+AQ3X/6tequ4wehP3ZxRmAv1f9ix1sB4CxXtryDa6Pjx6E1V160m8BPLvlJj9beKogACfzxS23av/F6ubBs7Ce+1a/epIC8MSWp035tD/A8XhwddfqN0YPwiqeVv16df8LLQD3qF6Wr48AHKOvrP64ev3oQdiZS6t/0vJgqMvrwk7dX9zSDL96d3MBsDEfanmC65tGD8KJ3a96QfWYM//lhXwL4Hl58wc4dnepXlTdefQgnMg3VX/YLd786/xvBfxV1Y+1zh0EAdiWe7Rc6n3J6EE4b5dVP3Rq3WqJO59LAJ9bva4lEADM41tavhnAYfji6oXVl9/WHzqf3+R/IG/+ADP6V9VnjR6Cc/LN1b/vdt7869wLwNXVNSeZCICDdc/qn48egtt0p+qHq1+oPvNc/oNzuQRwh+rVLd8NBWBON1d/o/qd0YPwae5f/UzLI57P2bmcAfievPkDzO6ilt8wT3oHWXbrGdXvd55v/nX7P8j7VD9b3fEChgLguHxe9afVa0YPQpdX/7r6vpbT/+ft9i4B/ET1dy5kwwAcpT9v+ZT5DaMHmdhfbznl/9CTbOS2zgB8UcuDfpzuAeC0u1bXtZx2Zv+uqV7c8kCfE7mtMwD/V/WdJ90BAEfnXdUX5izAPl3R8nXMnX0j72y/3d+75fS/3/4BuKW7VO+s/mD0IJN4QPXS6km73OjZvgXwPfngHwBn9w9zW/h9uKblxj47/zberV0CuKKl2Z3TjQQAmNY3Vb88eogjddfqf6++fa0d3Fp7e3be/AG4fc8ZPcCRelD1e6345l+3fgbgFdWj19wpAEfhk9UXtNwbgN24puX7/ZevvaNbngF4UN78ATg3F1ffMXqII/EZ1Yuq/7s9vPnXpxeAZ+9jpwAcDe8bJ/fwlm9UfOs+d3rLAvDMfe4cgIP34Jazx1yY51TXttxdca/OLAAPabm9IACcj28ZPcAB+qyWR/f+aHXZiAHOLABfP2IAAA7eU0YPcGAe0XLK/5tHDnFmAfADBOBCPKq6cvQQB+Ci6rur3225lfJQpwvAFdVjRg4CwMG6pPrq0UNs3JUtD/H539rInXZPF4BHV3cYOQgAB+3q0QNs2KNabuf7jaMHOdPpAvDYoVMAcOgUgE93+pT/v2u5YdKmXHrqn18xdAoADt1DWy4nf3j0IBtx9+r51deNHuRsTp8BeNjQKQA4dJe0whPrDtTjq9e04Tf/WgrAldW9Rg8CwMF7yOgBBjt9yv/l1b0Hz3K7Lk1jA2A3Zn4/uUf1b6qvGT3Iubq0AbcfBOAofdHoAQZ5QvVTHdjZ9Iurzx89BABH4arRA+zZxdVzW075H9Sbfy1nAK4aPQQAR2FzX3Vb0b1afut/wuA5LtjF1T1HDwHAUbiiusvoIfbgiS338n/C4DlO5PS3AABgFz5n9AAruqT63upl1eeNHeXkLu24f1gA7NeV1dtGD7GC+1Q/XT1u9CC7cnFznK4BYD/uNnqAFXxDy419jubNv5YCcNnoIQA4Gpt40t2OXNpyyv+XO8Kz5Zd2XD8sAMY6ll8q71u9oCN+WN7FeQwwALtzDL9UflP1hx3xm3996mFAALALF40e4AROn/L/xeqzx46yvktv/48AwNG7X/XC6itHD7IvzgAAMLunt5zyn+bNvxQAAOZ1WfXD1S9UnzV4lr1zCQCAWV1bPXz0EKM4AwDArKZ98y8FAACmpAAAwIQUAACYkAIAABNSAABgQgoAAExIAQCACSkAADAhBQAAJqQAAMCEFAAAmJACAAATUgAAYEIKAABMSAEAgAkpAAAwIQUAACakAADAhBQAAJiQAgAAE1IAAGBCCgAATEgBAIAJKQAAMCEFAAAmpAAAwIQUAACYkAIAABNSAABgQgoAAExIAQCACSkAADAhBQAAJqQAAMCEFAAAmJACAAATUgAAYEIKAABMSAEAgAkpAAAwIQUAACakAADAhBQAAJiQAgAAE1IAAGBCCgAATEgBAIAJKQAAMCEFAAAmpAAAwIQUAACYkAIAABNSAABgQgoAAExIAQCACSkAADAhBQAAJqQAAMCEFAAAmJACAAATUgAAYEIKAABMSAEAgAkpAAAwIQUAACakAADAhBQAAJiQAgAAE1IAAGBCCgAATEgBAIAJKQAAMCEFAAAmpAAAwIQUAACYkAIAABNSAABgQgoAAExIAQCACSkAADAhBQAAJqQAAMCEFAAAmJACAAATUgAAYEIKAABMSAEAgAkpAAAwIQUAACakAADAhBQAAJiQAgAAE1IAAGBCCgAATEgBAIAJKQAAMCEFAAAmpAAAwIQUAACYkAIAABNSAABgQgoAAExIAQCACSkAADAhBQAAJqQAAMCEFAAAmJACAAATUgAAYEIKAABMSAEAgAkpAAAwIQUAACakAADAhBQAAJiQAgAAE1IAAGBCCgAATEgBAIAJKQAAMCEFAAAmpAAAwIQUAACYkAIAABNSAABgQgoAAExIAQCACSkAADAhBQAAJqQAAMCEFAAAmJACAAATUgAAYEIKAABMSAEAgAkpAAAwIQUAACakAADAhBQAAJiQAgAAE1IAAGBCCgAATEgBAIAJKQAAMCEFAAAmpAAAwIQUAACYkAIAABNSAABgQgoAAExIAQCACSkAADAhBQAAJqQAAMCEFAAAmJACAAATUgAAYEIKAABMSAEAYFYfHz3ASAoAALN6TPWW0UOMogAAMKtXVQ+vfmb0ICMoAADM7IPVs6vvrG4YPMteKQAAUM+vrq7ePHqQfVEAAGDx6pZLAi8YPcg+KAAA8CnXV9/eckngI4NnWZUCAACf7vnVI6v/MHqQtSgAAHDr3lh9RfVTowdZgwIAAGf3oeo/b7kk8OHBs+yUAgAAt+/51SOq148eZFcUAAA4N/9f9ejqR0YPsgsKAACcuxuq766uabk8cLAUAAA4f/9PyyWB144e5EIpAABwYd7U8i2Bg7wkoAAAwIX7aMslgWdW7x88y3lRAADg5H6+elT1h6MHOVcKAADsxh93QJcEFAAA2J2PtVwS+ObqLwfPcpsUAADYvV+qvqx6xehBzkYBAIB1vL16XPX91c2DZ/k0CgAArOcT1f9QPb163+BZ/hMKAACs75erh1XXjh7kNAUAAPbjHdXfqJ5XfXLwLAoAAOzRJ6rvrb62+o8jB1EAAGD/Xt7yLIF/N2oABQAAxnhn9VUNuiSgAADAOKcvCTy5etc+d6wAAMB4v1l9afWyfe1QAQCAbbiuekrLJYGb1t6ZAgAA23FTyyWBJ1V/seaOFAAA2J7farkk8NK1dqAAAMA2vbvlksD3VDfueuMKAABs183VD7dcEvizXW5YAQCA7fu3Lc8SeMmuNqgAAMBheE/1De3okoACAACH4/Qlgaurt55kQwoAAByeV1aPrH71QjegAADAYXpv9bSWSwIfP9//WAEAgMN1+pLAY6s/OZ//UAEAgMP3B9WXVT97rv+BAgAAx+GD1bOqv9s5XBJQAADguPxY9Zjqzbf1hxQAADg+r6q+vHrh2f6AAgAAx+mD1bdV31l95Jb/RwUAAI7b81tuHPTHZ/5LBQAAjt9rWi4J/PTpf6EAAMAcrq/+ZqcuCVw6eBgAYL+eX73GGQAAmM/rFQAAmJACAAATUgAAYEIKAABMSAEAgAkpAAAwIQUAACakAADAhBQAAJiQAgAAE1IAAGBCCgAATEgBAIAJKQAAMCEFAAAmpAAAwIQUAACYkAIAABNSAABgQgoAAEzo/wdkGlZgqGs15QAAAABJRU5ErkJggg==;" parent="1" vertex="1">
          <mxGeometry x="-690" y="650" width="70" height="70" as="geometry" />
        </mxCell>
        <mxCell id="He7p6NDhDGaTkKvORS2x-18" value="圖片" style="text;html=1;align=center;verticalAlign=middle;whiteSpace=wrap;rounded=0;strokeColor=default;" parent="1" vertex="1">
          <mxGeometry x="170" y="150" width="40" height="40" as="geometry" />
        </mxCell>
        <mxCell id="He7p6NDhDGaTkKvORS2x-19" value="Combox" style="text;html=1;align=center;verticalAlign=middle;whiteSpace=wrap;rounded=0;strokeColor=default;" parent="1" vertex="1">
          <mxGeometry x="210" y="150" width="140" height="40" as="geometry" />
        </mxCell>
        <mxCell id="He7p6NDhDGaTkKvORS2x-20" value="" style="rounded=0;whiteSpace=wrap;html=1;fillColor=#fff2cc;strokeColor=#d6b656;" parent="1" vertex="1">
          <mxGeometry x="510" y="150" width="305" height="550" as="geometry" />
        </mxCell>
        <mxCell id="He7p6NDhDGaTkKvORS2x-22" value="V" style="text;html=1;align=center;verticalAlign=middle;whiteSpace=wrap;rounded=0;strokeColor=default;" parent="1" vertex="1">
          <mxGeometry x="510" y="150" width="40" height="40" as="geometry" />
        </mxCell>
        <mxCell id="He7p6NDhDGaTkKvORS2x-23" value="關閉" style="text;html=1;align=center;verticalAlign=middle;whiteSpace=wrap;rounded=0;strokeColor=default;aspect=fixed;" parent="1" vertex="1">
          <mxGeometry x="775" y="150" width="40" height="40" as="geometry" />
        </mxCell>
        <mxCell id="He7p6NDhDGaTkKvORS2x-24" value="隱藏" style="text;html=1;align=center;verticalAlign=middle;whiteSpace=wrap;rounded=0;strokeColor=default;aspect=fixed;" parent="1" vertex="1">
          <mxGeometry x="735" y="150" width="40" height="40" as="geometry" />
        </mxCell>
        <mxCell id="He7p6NDhDGaTkKvORS2x-25" value="圖片" style="text;html=1;align=center;verticalAlign=middle;whiteSpace=wrap;rounded=0;strokeColor=default;" parent="1" vertex="1">
          <mxGeometry x="550" y="150" width="40" height="40" as="geometry" />
        </mxCell>
        <mxCell id="He7p6NDhDGaTkKvORS2x-37" value="" style="text;html=1;align=center;verticalAlign=middle;whiteSpace=wrap;rounded=0;strokeColor=default;dashed=1;" parent="1" vertex="1">
          <mxGeometry x="510" y="195" width="480" height="245" as="geometry" />
        </mxCell>
        <mxCell id="He7p6NDhDGaTkKvORS2x-26" value="Combox" style="text;html=1;align=center;verticalAlign=middle;whiteSpace=wrap;rounded=0;strokeColor=default;" parent="1" vertex="1">
          <mxGeometry x="590" y="150" width="140" height="40" as="geometry" />
        </mxCell>
        <mxCell id="He7p6NDhDGaTkKvORS2x-27" value="&lt;font style=&quot;font-size: 10px;&quot;&gt;SaveFolder&lt;/font&gt;" style="text;html=1;align=center;verticalAlign=middle;whiteSpace=wrap;rounded=0;" parent="1" vertex="1">
          <mxGeometry x="510" y="200" width="60" height="20" as="geometry" />
        </mxCell>
        <mxCell id="He7p6NDhDGaTkKvORS2x-28" value="\\......" style="text;html=1;align=center;verticalAlign=middle;whiteSpace=wrap;rounded=0;strokeColor=default;" parent="1" vertex="1">
          <mxGeometry x="510" y="224" width="264" height="40" as="geometry" />
        </mxCell>
        <mxCell id="He7p6NDhDGaTkKvORS2x-29" value="Setting" style="text;html=1;align=center;verticalAlign=middle;whiteSpace=wrap;rounded=0;strokeColor=default;" parent="1" vertex="1">
          <mxGeometry x="580" y="200" width="40" height="20" as="geometry" />
        </mxCell>
        <mxCell id="He7p6NDhDGaTkKvORS2x-30" value="&lt;font style=&quot;font-size: 10px;&quot;&gt;StartAction&lt;/font&gt;" style="text;html=1;align=center;verticalAlign=middle;whiteSpace=wrap;rounded=0;" parent="1" vertex="1">
          <mxGeometry x="510" y="270" width="60" height="20" as="geometry" />
        </mxCell>
        <mxCell id="He7p6NDhDGaTkKvORS2x-32" value="F1" style="text;html=1;align=center;verticalAlign=middle;whiteSpace=wrap;rounded=0;strokeColor=default;" parent="1" vertex="1">
          <mxGeometry x="510" y="290" width="305" height="40" as="geometry" />
        </mxCell>
        <mxCell id="He7p6NDhDGaTkKvORS2x-33" value="&lt;font style=&quot;font-size: 10px;&quot;&gt;EndAction&lt;/font&gt;" style="text;html=1;align=center;verticalAlign=middle;whiteSpace=wrap;rounded=0;" parent="1" vertex="1">
          <mxGeometry x="510" y="340" width="60" height="20" as="geometry" />
        </mxCell>
        <mxCell id="He7p6NDhDGaTkKvORS2x-34" value="F2" style="text;html=1;align=center;verticalAlign=middle;whiteSpace=wrap;rounded=0;strokeColor=default;" parent="1" vertex="1">
          <mxGeometry x="510" y="360" width="305" height="40" as="geometry" />
        </mxCell>
        <mxCell id="He7p6NDhDGaTkKvORS2x-35" value="&lt;font style=&quot;font-size: 10px;&quot;&gt;TopView&lt;/font&gt;" style="text;html=1;align=center;verticalAlign=middle;whiteSpace=wrap;rounded=0;" parent="1" vertex="1">
          <mxGeometry x="510" y="410" width="60" height="20" as="geometry" />
        </mxCell>
        <mxCell id="He7p6NDhDGaTkKvORS2x-36" value="v" style="text;html=1;align=center;verticalAlign=middle;whiteSpace=wrap;rounded=0;strokeColor=default;" parent="1" vertex="1">
          <mxGeometry x="570" y="410" width="20" height="20" as="geometry" />
        </mxCell>
        <mxCell id="He7p6NDhDGaTkKvORS2x-38" value="GeneralView" style="text;html=1;align=center;verticalAlign=middle;whiteSpace=wrap;rounded=0;" parent="1" vertex="1">
          <mxGeometry x="850" y="195" width="140" height="30" as="geometry" />
        </mxCell>
        <mxCell id="He7p6NDhDGaTkKvORS2x-39" value="" style="text;html=1;align=center;verticalAlign=middle;whiteSpace=wrap;rounded=0;strokeColor=default;dashed=1;" parent="1" vertex="1">
          <mxGeometry x="510" y="445" width="480" height="245" as="geometry" />
        </mxCell>
        <mxCell id="He7p6NDhDGaTkKvORS2x-40" value="DetailView" style="text;html=1;align=center;verticalAlign=middle;whiteSpace=wrap;rounded=0;" parent="1" vertex="1">
          <mxGeometry x="850" y="445" width="140" height="30" as="geometry" />
        </mxCell>
        <mxCell id="He7p6NDhDGaTkKvORS2x-41" value="放置通用設定" style="text;html=1;align=center;verticalAlign=middle;whiteSpace=wrap;rounded=0;" parent="1" vertex="1">
          <mxGeometry x="850" y="265" width="140" height="30" as="geometry" />
        </mxCell>
        <mxCell id="He7p6NDhDGaTkKvORS2x-42" value="針對每個功能&lt;div&gt;客製的設定&lt;/div&gt;" style="text;html=1;align=center;verticalAlign=middle;whiteSpace=wrap;rounded=0;" parent="1" vertex="1">
          <mxGeometry x="860" y="490" width="140" height="30" as="geometry" />
        </mxCell>
        <mxCell id="He7p6NDhDGaTkKvORS2x-43" value="執行時畫面會有動畫效果" style="text;html=1;align=center;verticalAlign=middle;whiteSpace=wrap;rounded=0;fontColor=#0000FF;" parent="1" vertex="1">
          <mxGeometry x="295" y="290" width="140" height="30" as="geometry" />
        </mxCell>
        <mxCell id="He7p6NDhDGaTkKvORS2x-44" value="" style="curved=1;endArrow=classic;html=1;rounded=0;entryX=0;entryY=0.347;entryDx=0;entryDy=0;entryPerimeter=0;exitX=1;exitY=0.5;exitDx=0;exitDy=0;fontColor=#0000FF;strokeColor=#0000FF;" parent="1" source="He7p6NDhDGaTkKvORS2x-43" target="He7p6NDhDGaTkKvORS2x-37" edge="1">
          <mxGeometry width="50" height="50" relative="1" as="geometry">
            <mxPoint x="420" y="380" as="sourcePoint" />
            <mxPoint x="470" y="330" as="targetPoint" />
            <Array as="points">
              <mxPoint x="450" y="310" />
              <mxPoint x="480" y="300" />
            </Array>
          </mxGeometry>
        </mxCell>
        <mxCell id="He7p6NDhDGaTkKvORS2x-45" value="" style="curved=1;endArrow=classic;html=1;rounded=0;entryX=0.001;entryY=0.732;entryDx=0;entryDy=0;entryPerimeter=0;exitX=1.008;exitY=0.612;exitDx=0;exitDy=0;fontColor=#0000FF;strokeColor=#0000FF;exitPerimeter=0;" parent="1" source="He7p6NDhDGaTkKvORS2x-43" target="He7p6NDhDGaTkKvORS2x-37" edge="1">
          <mxGeometry width="50" height="50" relative="1" as="geometry">
            <mxPoint x="445" y="315" as="sourcePoint" />
            <mxPoint x="520" y="290" as="targetPoint" />
            <Array as="points">
              <mxPoint x="460" y="320" />
            </Array>
          </mxGeometry>
        </mxCell>
        <mxCell id="He7p6NDhDGaTkKvORS2x-46" value="可以用App.config 放置" style="text;html=1;align=center;verticalAlign=middle;whiteSpace=wrap;rounded=0;fontColor=#0000FF;" parent="1" vertex="1">
          <mxGeometry x="1080" y="264" width="140" height="30" as="geometry" />
        </mxCell>
        <mxCell id="He7p6NDhDGaTkKvORS2x-47" value="" style="curved=1;endArrow=classic;html=1;rounded=0;entryX=1;entryY=0.5;entryDx=0;entryDy=0;fontColor=#0000FF;strokeColor=#0000FF;exitX=0;exitY=0.5;exitDx=0;exitDy=0;" parent="1" source="He7p6NDhDGaTkKvORS2x-46" target="He7p6NDhDGaTkKvORS2x-41" edge="1">
          <mxGeometry width="50" height="50" relative="1" as="geometry">
            <mxPoint x="1110" y="330" as="sourcePoint" />
            <mxPoint x="1115" y="320" as="targetPoint" />
            <Array as="points">
              <mxPoint x="1030" y="300" />
            </Array>
          </mxGeometry>
        </mxCell>
        <mxCell id="He7p6NDhDGaTkKvORS2x-49" value="切換時確認是否有動作正在執行&lt;div&gt;要先做結束動作才能切換&lt;/div&gt;" style="text;html=1;align=center;verticalAlign=middle;whiteSpace=wrap;rounded=0;fontColor=#0000FF;" parent="1" vertex="1">
          <mxGeometry x="840" y="100" width="180" height="30" as="geometry" />
        </mxCell>
        <mxCell id="He7p6NDhDGaTkKvORS2x-50" value="" style="curved=1;endArrow=classic;html=1;rounded=0;entryX=0.5;entryY=0;entryDx=0;entryDy=0;fontColor=#0000FF;strokeColor=#0000FF;exitX=0;exitY=0.25;exitDx=0;exitDy=0;" parent="1" source="He7p6NDhDGaTkKvORS2x-49" target="He7p6NDhDGaTkKvORS2x-26" edge="1">
          <mxGeometry width="50" height="50" relative="1" as="geometry">
            <mxPoint x="1090" y="289" as="sourcePoint" />
            <mxPoint x="1000" y="290" as="targetPoint" />
            <Array as="points">
              <mxPoint x="730" y="110" />
            </Array>
          </mxGeometry>
        </mxCell>
        <mxCell id="BLDqwSSKFxnGTjVNPcJ4-1" value="隱藏" style="text;html=1;align=center;verticalAlign=middle;whiteSpace=wrap;rounded=0;strokeColor=default;aspect=fixed;" vertex="1" parent="1">
          <mxGeometry x="775" y="224" width="40" height="40" as="geometry" />
        </mxCell>
      </root>
    </mxGraphModel>
  </diagram>
</mxfile>
